<svg width="32" height="32" viewBox="0 0 32 32" fill="none" xmlns="http://www.w3.org/2000/svg">
<g clip-path="url(#clip0_61_61)">
<path d="M10.6702 27.6974H9.60321V28.7657H10.6702V27.6974Z" fill="#132F6D"/>
<path d="M32 24.5031H30.933V25.5714H32V24.5031Z" fill="#132F6D"/>
<path d="M32 23.4348H30.933V24.5031H32V23.4348Z" fill="#132F6D"/>
<path d="M32 22.3665H30.933V23.4348H32V22.3665Z" fill="#132F6D"/>
<path d="M32 21.2982H30.933V22.3665H32V21.2982Z" fill="#132F6D"/>
<path d="M32 20.2298H30.933V21.2981H32V20.2298Z" fill="#132F6D"/>
<path d="M32 19.1615H30.933V20.2298H32V19.1615Z" fill="#132F6D"/>
<path d="M32 18.0931H30.933V19.1615H32V18.0931Z" fill="#132F6D"/>
<path d="M30.933 26.6398H29.866V27.7081H30.933V26.6398Z" fill="#132F6D"/>
<path d="M30.933 25.5714H29.866V26.6397H30.933V25.5714Z" fill="#132F6D"/>
<path d="M30.933 24.5031H29.866V25.5714H30.933V24.5031Z" fill="#ED56C2"/>
<path d="M30.933 23.4348H29.866V24.5031H30.933V23.4348Z" fill="#ED56C2"/>
<path d="M30.933 22.3665H29.866V23.4348H30.933V22.3665Z" fill="#ED56C2"/>
<path d="M30.933 21.2982H29.866V22.3665H30.933V21.2982Z" fill="#ED56C2"/>
<path d="M30.933 20.2298H29.866V21.2981H30.933V20.2298Z" fill="#ED56C2"/>
<path d="M30.933 19.1615H29.866V20.2298H30.933V19.1615Z" fill="#ED56C2"/>
<path d="M30.933 18.0931H29.866V19.1615H30.933V18.0931Z" fill="#ED56C2"/>
<path d="M30.933 17.0248H29.866V18.0932H30.933V17.0248Z" fill="#132F6D"/>
<path d="M29.8767 27.7081H28.8096V28.7764H29.8767V27.7081Z" fill="#132F6D"/>
<path d="M29.8767 26.6398H28.8096V27.7081H29.8767V26.6398Z" fill="#ED56C2"/>
<path d="M29.8767 25.5714H28.8096V26.6397H29.8767V25.5714Z" fill="#ED56C2"/>
<path d="M29.8767 24.5031H28.8096V25.5714H29.8767V24.5031Z" fill="#ED56C2"/>
<path d="M29.8767 23.4348H28.8096V24.5031H29.8767V23.4348Z" fill="#ED56C2"/>
<path d="M29.8767 22.3665H28.8096V23.4348H29.8767V22.3665Z" fill="#ED56C2"/>
<path d="M29.8767 21.2982H28.8096V22.3665H29.8767V21.2982Z" fill="#ED56C2"/>
<path d="M29.8767 20.2298H28.8096V21.2981H29.8767V20.2298Z" fill="#ED56C2"/>
<path d="M29.8767 19.1615H28.8096V20.2298H29.8767V19.1615Z" fill="#ED56C2"/>
<path d="M29.8767 18.0931H28.8096V19.1615H29.8767V18.0931Z" fill="#ED56C2"/>
<path d="M29.8767 17.0248H28.8096V18.0932H29.8767V17.0248Z" fill="#ED56C2"/>
<path d="M29.8767 15.9565H28.8096V17.0249H29.8767V15.9565Z" fill="#132F6D"/>
<path d="M28.8096 28.7764H27.7426V29.8447H28.8096V28.7764Z" fill="#132F6D"/>
<path d="M28.8096 27.7081H27.7426V28.7764H28.8096V27.7081Z" fill="#ED56C2"/>
<path d="M28.8096 26.6398H27.7426V27.7081H28.8096V26.6398Z" fill="#ED56C2"/>
<path d="M28.8096 25.5714H27.7426V26.6397H28.8096V25.5714Z" fill="#ED56C2"/>
<path d="M28.8096 24.5031H27.7426V25.5714H28.8096V24.5031Z" fill="#ED56C2"/>
<path d="M28.8096 23.4348H27.7426V24.5031H28.8096V23.4348Z" fill="#ED56C2"/>
<path d="M28.8096 22.3665H27.7426V23.4348H28.8096V22.3665Z" fill="#ED56C2"/>
<path d="M28.8096 21.2982H27.7426V22.3665H28.8096V21.2982Z" fill="#ED56C2"/>
<path d="M28.8096 20.2298H27.7426V21.2981H28.8096V20.2298Z" fill="#ED56C2"/>
<path d="M28.8096 19.1615H27.7426V20.2298H28.8096V19.1615Z" fill="#ED56C2"/>
<path d="M28.8096 18.0931H27.7426V19.1615H28.8096V18.0931Z" fill="#ED56C2"/>
<path d="M28.8096 17.0248H27.7426V18.0932H28.8096V17.0248Z" fill="#ED56C2"/>
<path d="M28.8096 15.9565H27.7426V17.0249H28.8096V15.9565Z" fill="#132F6D"/>
<path d="M27.7426 27.7081H26.6755V28.7764H27.7426V27.7081Z" fill="#132F6D"/>
<path d="M27.7426 26.6398H26.6755V27.7081H27.7426V26.6398Z" fill="#132F6D"/>
<path d="M27.7426 25.5714H26.6755V26.6397H27.7426V25.5714Z" fill="#132F6D"/>
<path d="M27.7426 24.5031H26.6755V25.5714H27.7426V24.5031Z" fill="#ED56C2"/>
<path d="M27.7426 23.4348H26.6755V24.5031H27.7426V23.4348Z" fill="#ED56C2"/>
<path d="M27.7426 22.3665H26.6755V23.4348H27.7426V22.3665Z" fill="#ED56C2"/>
<path d="M27.7426 21.2982H26.6755V22.3665H27.7426V21.2982Z" fill="#ED56C2"/>
<path d="M27.7426 20.2298H26.6755V21.2981H27.7426V20.2298Z" fill="#8E1DD8"/>
<path d="M27.7426 19.1615H26.6755V20.2298H27.7426V19.1615Z" fill="#8E1DD8"/>
<path d="M27.7426 18.0931H26.6755V19.1615H27.7426V18.0931Z" fill="#ED56C2"/>
<path d="M27.7426 17.0248H26.6755V18.0932H27.7426V17.0248Z" fill="#ED56C2"/>
<path d="M27.7426 15.9565H26.6755V17.0249H27.7426V15.9565Z" fill="#ED56C2"/>
<path d="M27.7426 14.8882H26.6755V15.9565H27.7426V14.8882Z" fill="#132F6D"/>
<path d="M26.6755 27.7081H25.6085V28.7764H26.6755V27.7081Z" fill="#132F6D"/>
<path d="M26.6755 26.6398H25.6085V27.7081H26.6755V26.6398Z" fill="#C6F7FF"/>
<path d="M26.6755 25.5714H25.6085V26.6397H26.6755V25.5714Z" fill="#C6F7FF"/>
<path d="M26.6755 24.5031H25.6085V25.5714H26.6755V24.5031Z" fill="#132F6D"/>
<path d="M26.6755 23.4348H25.6085V24.5031H26.6755V23.4348Z" fill="#ED56C2"/>
<path d="M26.6755 22.3665H25.6085V23.4348H26.6755V22.3665Z" fill="#ED56C2"/>
<path d="M26.6755 21.2982H25.6085V22.3665H26.6755V21.2982Z" fill="#ED56C2"/>
<path d="M26.6755 20.2298H25.6085V21.2981H26.6755V20.2298Z" fill="#ED56C2"/>
<path d="M26.6755 19.1615H25.6085V20.2298H26.6755V19.1615Z" fill="#ED56C2"/>
<path d="M26.6755 18.0931H25.6085V19.1615H26.6755V18.0931Z" fill="#ED56C2"/>
<path d="M26.6755 17.0248H25.6085V18.0932H26.6755V17.0248Z" fill="#FF7BD3"/>
<path d="M26.6755 15.9565H25.6085V17.0249H26.6755V15.9565Z" fill="#FF7BD3"/>
<path d="M26.6755 14.8882H25.6085V15.9565H26.6755V14.8882Z" fill="#FF7BD3"/>
<path d="M26.6755 13.8199H25.6085V14.8882H26.6755V13.8199Z" fill="#132F6D"/>
<path d="M26.6755 12.7515H25.6085V13.8198H26.6755V12.7515Z" fill="#132F6D"/>
<path d="M26.6755 7.40991H25.6085V8.47824H26.6755V7.40991Z" fill="#132F6D"/>
<path d="M26.6755 6.34161H25.6085V7.40994H26.6755V6.34161Z" fill="#132F6D"/>
<path d="M25.6085 27.7081H24.5415V28.7764H25.6085V27.7081Z" fill="#132F6D"/>
<path d="M25.6085 26.6398H24.5415V27.7081H25.6085V26.6398Z" fill="#C6F7FF"/>
<path d="M25.6085 25.5714H24.5415V26.6397H25.6085V25.5714Z" fill="#81E0EA"/>
<path d="M25.6085 24.5031H24.5415V25.5714H25.6085V24.5031Z" fill="#132F6D"/>
<path d="M25.6085 23.4348H24.5415V24.5031H25.6085V23.4348Z" fill="#132F6D"/>
<path d="M25.6085 22.3665H24.5415V23.4348H25.6085V22.3665Z" fill="#ED56C2"/>
<path d="M25.6085 21.2982H24.5415V22.3665H25.6085V21.2982Z" fill="#ED56C2"/>
<path d="M25.6085 20.2298H24.5415V21.2981H25.6085V20.2298Z" fill="#ED56C2"/>
<path d="M25.6085 19.1615H24.5415V20.2298H25.6085V19.1615Z" fill="#FF7BD3"/>
<path d="M25.6085 18.0931H24.5415V19.1615H25.6085V18.0931Z" fill="#FF7BD3"/>
<path d="M25.6085 17.0248H24.5415V18.0932H25.6085V17.0248Z" fill="#FF7BD3"/>
<path d="M25.6085 15.9565H24.5415V17.0249H25.6085V15.9565Z" fill="#FF7BD3"/>
<path d="M25.6085 14.8882H24.5415V15.9565H25.6085V14.8882Z" fill="#FF7BD3"/>
<path d="M25.6085 13.8199H24.5415V14.8882H25.6085V13.8199Z" fill="#FF7BD3"/>
<path d="M25.6085 12.7515H24.5415V13.8198H25.6085V12.7515Z" fill="#FFBBEC"/>
<path d="M25.6085 11.6832H24.5415V12.7516H25.6085V11.6832Z" fill="#132F6D"/>
<path d="M25.6085 10.6149H24.5415V11.6833H25.6085V10.6149Z" fill="#132F6D"/>
<path d="M25.6085 9.54657H24.5415V10.6149H25.6085V9.54657Z" fill="#132F6D"/>
<path d="M25.6085 8.47827H24.5415V9.54659H25.6085V8.47827Z" fill="#132F6D"/>
<path d="M25.6085 7.40991H24.5415V8.47824H25.6085V7.40991Z" fill="#FF7BD3"/>
<path d="M25.6085 6.34161H24.5415V7.40994H25.6085V6.34161Z" fill="#FF7BD3"/>
<path d="M25.6085 5.27332H24.5415V6.34164H25.6085V5.27332Z" fill="#132F6D"/>
<path d="M24.5415 28.7764H23.4745V29.8447H24.5415V28.7764Z" fill="#132F6D"/>
<path d="M24.5415 27.7081H23.4745V28.7764H24.5415V27.7081Z" fill="#C6F7FF"/>
<path d="M24.5415 26.6398H23.4745V27.7081H24.5415V26.6398Z" fill="#C6F7FF"/>
<path d="M24.5415 25.5714H23.4745V26.6397H24.5415V25.5714Z" fill="#132F6D"/>
<path d="M24.5415 24.5031H23.4745V25.5714H24.5415V24.5031Z" fill="#ED56C2"/>
<path d="M24.5415 23.4348H23.4745V24.5031H24.5415V23.4348Z" fill="#ED56C2"/>
<path d="M24.5415 22.3665H23.4745V23.4348H24.5415V22.3665Z" fill="#ED56C2"/>
<path d="M24.5415 21.2982H23.4745V22.3665H24.5415V21.2982Z" fill="#ED56C2"/>
<path d="M24.5415 20.2298H23.4745V21.2981H24.5415V20.2298Z" fill="#FF7BD3"/>
<path d="M24.5415 19.1615H23.4745V20.2298H24.5415V19.1615Z" fill="#FF7BD3"/>
<path d="M24.5415 18.0931H23.4745V19.1615H24.5415V18.0931Z" fill="#FF7BD3"/>
<path d="M24.5415 17.0248H23.4745V18.0932H24.5415V17.0248Z" fill="#8E1DD8"/>
<path d="M24.5415 15.9565H23.4745V17.0249H24.5415V15.9565Z" fill="#FF7BD3"/>
<path d="M24.5415 14.8882H23.4745V15.9565H24.5415V14.8882Z" fill="#FF7BD3"/>
<path d="M24.5415 13.8199H23.4745V14.8882H24.5415V13.8199Z" fill="#FF7BD3"/>
<path d="M24.5415 12.7515H23.4745V13.8198H24.5415V12.7515Z" fill="#FF7BD3"/>
<path d="M24.5415 11.6832H23.4745V12.7516H24.5415V11.6832Z" fill="#FFBBEC"/>
<path d="M24.5415 10.6149H23.4745V11.6833H24.5415V10.6149Z" fill="#FFBBEC"/>
<path d="M24.5415 9.54657H23.4745V10.6149H24.5415V9.54657Z" fill="#FFBBEC"/>
<path d="M24.5415 8.47827H23.4745V9.54659H24.5415V8.47827Z" fill="#FFBBEC"/>
<path d="M24.5415 7.40991H23.4745V8.47824H24.5415V7.40991Z" fill="#FF7BD3"/>
<path d="M24.5415 6.34161H23.4745V7.40994H24.5415V6.34161Z" fill="#FF7BD3"/>
<path d="M24.5415 5.27332H23.4745V6.34164H24.5415V5.27332Z" fill="#FF7BD3"/>
<path d="M24.5415 4.20496H23.4745V5.27328H24.5415V4.20496Z" fill="#132F6D"/>
<path d="M23.4745 28.7764H22.4075V29.8447H23.4745V28.7764Z" fill="#132F6D"/>
<path d="M23.4745 27.7081H22.4075V28.7764H23.4745V27.7081Z" fill="#C6F7FF"/>
<path d="M23.4745 26.6398H22.4075V27.7081H23.4745V26.6398Z" fill="#132F6D"/>
<path d="M23.4745 25.5714H22.4075V26.6397H23.4745V25.5714Z" fill="#ED56C2"/>
<path d="M23.4745 24.5031H22.4075V25.5714H23.4745V24.5031Z" fill="#ED56C2"/>
<path d="M23.4745 23.4348H22.4075V24.5031H23.4745V23.4348Z" fill="#ED56C2"/>
<path d="M23.4745 22.3665H22.4075V23.4348H23.4745V22.3665Z" fill="#ED56C2"/>
<path d="M23.4745 21.2982H22.4075V22.3665H23.4745V21.2982Z" fill="#FF7BD3"/>
<path d="M23.4745 20.2298H22.4075V21.2981H23.4745V20.2298Z" fill="#FF7BD3"/>
<path d="M23.4745 19.1615H22.4075V20.2298H23.4745V19.1615Z" fill="#FFBBEC"/>
<path d="M23.4745 18.0931H22.4075V19.1615H23.4745V18.0931Z" fill="#FF7BD3"/>
<path d="M23.4745 17.0248H22.4075V18.0932H23.4745V17.0248Z" fill="#FF7BD3"/>
<path d="M23.4745 15.9565H22.4075V17.0249H23.4745V15.9565Z" fill="#FF7BD3"/>
<path d="M23.4745 14.8882H22.4075V15.9565H23.4745V14.8882Z" fill="#132F6D"/>
<path d="M23.4745 13.8199H22.4075V14.8882H23.4745V13.8199Z" fill="#132F6D"/>
<path d="M23.4745 12.7515H22.4075V13.8198H23.4745V12.7515Z" fill="#FF7BD3"/>
<path d="M23.4745 11.6832H22.4075V12.7516H23.4745V11.6832Z" fill="#FF7BD3"/>
<path d="M23.4745 10.6149H22.4075V11.6833H23.4745V10.6149Z" fill="#FF7BD3"/>
<path d="M23.4745 9.54657H22.4075V10.6149H23.4745V9.54657Z" fill="#FFBBEC"/>
<path d="M23.4745 8.47827H22.4075V9.54659H23.4745V8.47827Z" fill="#FFBBEC"/>
<path d="M23.4745 7.40991H22.4075V8.47824H23.4745V7.40991Z" fill="#8E1DD8"/>
<path d="M23.4745 6.34161H22.4075V7.40994H23.4745V6.34161Z" fill="#8E1DD8"/>
<path d="M23.4745 5.27332H22.4075V6.34164H23.4745V5.27332Z" fill="#FF7BD3"/>
<path d="M23.4745 4.20496H22.4075V5.27328H23.4745V4.20496Z" fill="#132F6D"/>
<path d="M22.4075 29.8447H21.3405V30.913H22.4075V29.8447Z" fill="#132F6D"/>
<path d="M22.4075 28.7764H21.3405V29.8447H22.4075V28.7764Z" fill="#C6F7FF"/>
<path d="M22.4075 27.7081H21.3405V28.7764H22.4075V27.7081Z" fill="#132F6D"/>
<path d="M22.4075 26.6398H21.3405V27.7081H22.4075V26.6398Z" fill="#ED56C2"/>
<path d="M22.4075 25.5714H21.3405V26.6397H22.4075V25.5714Z" fill="#ED56C2"/>
<path d="M22.4075 24.5031H21.3405V25.5714H22.4075V24.5031Z" fill="#ED56C2"/>
<path d="M22.4075 23.4348H21.3405V24.5031H22.4075V23.4348Z" fill="#ED56C2"/>
<path d="M22.4075 22.3665H21.3405V23.4348H22.4075V22.3665Z" fill="#ED56C2"/>
<path d="M22.4075 21.2982H21.3405V22.3665H22.4075V21.2982Z" fill="#FF7BD3"/>
<path d="M22.4075 20.2298H21.3405V21.2981H22.4075V20.2298Z" fill="#FF7BD3"/>
<path d="M22.4075 19.1615H21.3405V20.2298H22.4075V19.1615Z" fill="#FFBBEC"/>
<path d="M22.4075 18.0931H21.3405V19.1615H22.4075V18.0931Z" fill="#FF7BD3"/>
<path d="M22.4075 17.0248H21.3405V18.0932H22.4075V17.0248Z" fill="#FF7BD3"/>
<path d="M22.4075 15.9565H21.3405V17.0249H22.4075V15.9565Z" fill="#132F6D"/>
<path d="M22.4075 14.8882H21.3405V15.9565H22.4075V14.8882Z" fill="#81E0EA"/>
<path d="M22.4075 13.8199H21.3405V14.8882H22.4075V13.8199Z" fill="#81E0EA"/>
<path d="M22.4075 12.7515H21.3405V13.8198H22.4075V12.7515Z" fill="#132F6D"/>
<path d="M22.4075 11.6832H21.3405V12.7516H22.4075V11.6832Z" fill="#132F6D"/>
<path d="M22.4075 10.6149H21.3405V11.6833H22.4075V10.6149Z" fill="#FF7BD3"/>
<path d="M22.4075 9.54657H21.3405V10.6149H22.4075V9.54657Z" fill="#FF7BD3"/>
<path d="M22.4075 8.47827H21.3405V9.54659H22.4075V8.47827Z" fill="#FFBBEC"/>
<path d="M22.4075 7.40991H21.3405V8.47824H22.4075V7.40991Z" fill="#FFBBEC"/>
<path d="M22.4075 6.34161H21.3405V7.40994H22.4075V6.34161Z" fill="#FF7BD3"/>
<path d="M22.4075 5.27332H21.3405V6.34164H22.4075V5.27332Z" fill="#FF7BD3"/>
<path d="M22.4075 4.20496H21.3405V5.27328H22.4075V4.20496Z" fill="#FF7BD3"/>
<path d="M22.4075 3.13666H21.3405V4.20498H22.4075V3.13666Z" fill="#132F6D"/>
<path d="M21.3405 29.8447H20.2734V30.913H21.3405V29.8447Z" fill="#132F6D"/>
<path d="M21.3405 28.7764H20.2734V29.8447H21.3405V28.7764Z" fill="#C6F7FF"/>
<path d="M21.3405 27.7081H20.2734V28.7764H21.3405V27.7081Z" fill="#132F6D"/>
<path d="M21.3405 26.6398H20.2734V27.7081H21.3405V26.6398Z" fill="#ED56C2"/>
<path d="M21.3405 25.5714H20.2734V26.6397H21.3405V25.5714Z" fill="#ED56C2"/>
<path d="M21.3405 24.5031H20.2734V25.5714H21.3405V24.5031Z" fill="#ED56C2"/>
<path d="M21.3405 23.4348H20.2734V24.5031H21.3405V23.4348Z" fill="#ED56C2"/>
<path d="M21.3405 22.3665H20.2734V23.4348H21.3405V22.3665Z" fill="#8E1DD8"/>
<path d="M21.3405 21.2982H20.2734V22.3665H21.3405V21.2982Z" fill="#FF7BD3"/>
<path d="M21.3405 20.2298H20.2734V21.2981H21.3405V20.2298Z" fill="#FFBBEC"/>
<path d="M21.3405 19.1615H20.2734V20.2298H21.3405V19.1615Z" fill="#FF7BD3"/>
<path d="M21.3405 18.0931H20.2734V19.1615H21.3405V18.0931Z" fill="#FF7BD3"/>
<path d="M21.3405 17.0248H20.2734V18.0932H21.3405V17.0248Z" fill="#132F6D"/>
<path d="M21.3405 15.9565H20.2734V17.0249H21.3405V15.9565Z" fill="#C6F7FF"/>
<path d="M21.3405 14.8882H20.2734V15.9565H21.3405V14.8882Z" fill="#C6F7FF"/>
<path d="M21.3405 13.8199H20.2734V14.8882H21.3405V13.8199Z" fill="#81E0EA"/>
<path d="M21.3405 12.7515H20.2734V13.8198H21.3405V12.7515Z" fill="#81E0EA"/>
<path d="M21.3405 11.6832H20.2734V12.7516H21.3405V11.6832Z" fill="#81E0EA"/>
<path d="M21.3405 10.6149H20.2734V11.6833H21.3405V10.6149Z" fill="#132F6D"/>
<path d="M21.3405 9.54657H20.2734V10.6149H21.3405V9.54657Z" fill="#FF7BD3"/>
<path d="M21.3405 8.47827H20.2734V9.54659H21.3405V8.47827Z" fill="#FF7BD3"/>
<path d="M21.3405 7.40991H20.2734V8.47824H21.3405V7.40991Z" fill="#FF7BD3"/>
<path d="M21.3405 6.34161H20.2734V7.40994H21.3405V6.34161Z" fill="#FFBBEC"/>
<path d="M21.3405 5.27332H20.2734V6.34164H21.3405V5.27332Z" fill="#FF7BD3"/>
<path d="M21.3405 4.20496H20.2734V5.27328H21.3405V4.20496Z" fill="#FF7BD3"/>
<path d="M21.3405 3.13666H20.2734V4.20498H21.3405V3.13666Z" fill="#132F6D"/>
<path d="M20.2734 29.8447H19.2064V30.913H20.2734V29.8447Z" fill="#132F6D"/>
<path d="M20.2734 28.7764H19.2064V29.8447H20.2734V28.7764Z" fill="#C6F7FF"/>
<path d="M20.2734 27.7081H19.2064V28.7764H20.2734V27.7081Z" fill="#132F6D"/>
<path d="M20.2734 26.6398H19.2064V27.7081H20.2734V26.6398Z" fill="#ED56C2"/>
<path d="M20.2734 25.5714H19.2064V26.6397H20.2734V25.5714Z" fill="#ED56C2"/>
<path d="M20.2734 24.5031H19.2064V25.5714H20.2734V24.5031Z" fill="#ED56C2"/>
<path d="M20.2734 23.4348H19.2064V24.5031H20.2734V23.4348Z" fill="#ED56C2"/>
<path d="M20.2734 22.3665H19.2064V23.4348H20.2734V22.3665Z" fill="#8E1DD8"/>
<path d="M20.2734 21.2982H19.2064V22.3665H20.2734V21.2982Z" fill="#FF7BD3"/>
<path d="M20.2734 20.2298H19.2064V21.2981H20.2734V20.2298Z" fill="#FFBBEC"/>
<path d="M20.2734 19.1615H19.2064V20.2298H20.2734V19.1615Z" fill="#FF7BD3"/>
<path d="M20.2734 18.0931H19.2064V19.1615H20.2734V18.0931Z" fill="#FF7BD3"/>
<path d="M20.2734 17.0248H19.2064V18.0932H20.2734V17.0248Z" fill="#132F6D"/>
<path d="M20.2734 15.9565H19.2064V17.0249H20.2734V15.9565Z" fill="#132F6D"/>
<path d="M20.2734 14.8882H19.2064V15.9565H20.2734V14.8882Z" fill="#C6F7FF"/>
<path d="M20.2734 13.8199H19.2064V14.8882H20.2734V13.8199Z" fill="#C6F7FF"/>
<path d="M20.2734 12.7515H19.2064V13.8198H20.2734V12.7515Z" fill="#81E0EA"/>
<path d="M20.2734 11.6832H19.2064V12.7516H20.2734V11.6832Z" fill="#81E0EA"/>
<path d="M20.2734 10.6149H19.2064V11.6833H20.2734V10.6149Z" fill="#81E0EA"/>
<path d="M20.2734 9.54657H19.2064V10.6149H20.2734V9.54657Z" fill="#132F6D"/>
<path d="M20.2734 8.47827H19.2064V9.54659H20.2734V8.47827Z" fill="#FF7BD3"/>
<path d="M20.2734 7.40991H19.2064V8.47824H20.2734V7.40991Z" fill="#FF7BD3"/>
<path d="M20.2734 6.34161H19.2064V7.40994H20.2734V6.34161Z" fill="#FF7BD3"/>
<path d="M20.2734 5.27332H19.2064V6.34164H20.2734V5.27332Z" fill="#FF7BD3"/>
<path d="M20.2734 4.20496H19.2064V5.27328H20.2734V4.20496Z" fill="#FF7BD3"/>
<path d="M20.2734 3.13666H19.2064V4.20498H20.2734V3.13666Z" fill="#FF7BD3"/>
<path d="M20.2734 2.0683H19.2064V3.13662H20.2734V2.0683Z" fill="#132F6D"/>
<path d="M19.2064 29.8447H18.1394V30.913H19.2064V29.8447Z" fill="#132F6D"/>
<path d="M19.2064 28.7764H18.1394V29.8447H19.2064V28.7764Z" fill="#C6F7FF"/>
<path d="M19.2064 27.7081H18.1394V28.7764H19.2064V27.7081Z" fill="#132F6D"/>
<path d="M19.2064 26.6398H18.1394V27.7081H19.2064V26.6398Z" fill="#ED56C2"/>
<path d="M19.2064 25.5714H18.1394V26.6397H19.2064V25.5714Z" fill="#ED56C2"/>
<path d="M19.2064 24.5031H18.1394V25.5714H19.2064V24.5031Z" fill="#ED56C2"/>
<path d="M19.2064 23.4348H18.1394V24.5031H19.2064V23.4348Z" fill="#ED56C2"/>
<path d="M19.2064 22.3665H18.1394V23.4348H19.2064V22.3665Z" fill="#ED56C2"/>
<path d="M19.2064 21.2982H18.1394V22.3665H19.2064V21.2982Z" fill="#FF7BD3"/>
<path d="M19.2064 20.2298H18.1394V21.2981H19.2064V20.2298Z" fill="#FFBBEC"/>
<path d="M19.2064 19.1615H18.1394V20.2298H19.2064V19.1615Z" fill="#FF7BD3"/>
<path d="M19.2064 18.0931H18.1394V19.1615H19.2064V18.0931Z" fill="#FF7BD3"/>
<path d="M19.2064 17.0248H18.1394V18.0932H19.2064V17.0248Z" fill="#132F6D"/>
<path d="M19.2064 14.8882H18.1394V15.9565H19.2064V14.8882Z" fill="#132F6D"/>
<path d="M19.2064 13.8199H18.1394V14.8882H19.2064V13.8199Z" fill="#C6F7FF"/>
<path d="M19.2064 12.7515H18.1394V13.8198H19.2064V12.7515Z" fill="#C6F7FF"/>
<path d="M19.2064 11.6832H18.1394V12.7516H19.2064V11.6832Z" fill="#81E0EA"/>
<path d="M19.2064 10.6149H18.1394V11.6833H19.2064V10.6149Z" fill="#81E0EA"/>
<path d="M19.2064 9.54657H18.1394V10.6149H19.2064V9.54657Z" fill="#132F6D"/>
<path d="M19.2064 8.47827H18.1394V9.54659H19.2064V8.47827Z" fill="#FF7BD3"/>
<path d="M19.2064 7.40991H18.1394V8.47824H19.2064V7.40991Z" fill="#FF7BD3"/>
<path d="M19.2064 6.34161H18.1394V7.40994H19.2064V6.34161Z" fill="#FF7BD3"/>
<path d="M19.2064 5.27332H18.1394V6.34164H19.2064V5.27332Z" fill="#FF7BD3"/>
<path d="M19.2064 4.20496H18.1394V5.27328H19.2064V4.20496Z" fill="#8E1DD8"/>
<path d="M19.2064 3.13666H18.1394V4.20498H19.2064V3.13666Z" fill="#FF7BD3"/>
<path d="M19.2064 2.0683H18.1394V3.13662H19.2064V2.0683Z" fill="#132F6D"/>
<path d="M18.1393 29.8447H17.0723V30.913H18.1393V29.8447Z" fill="#132F6D"/>
<path d="M18.1393 28.7764H17.0723V29.8447H18.1393V28.7764Z" fill="#C6F7FF"/>
<path d="M18.1393 27.7081H17.0723V28.7764H18.1393V27.7081Z" fill="#132F6D"/>
<path d="M18.1393 26.6398H17.0723V27.7081H18.1393V26.6398Z" fill="#ED56C2"/>
<path d="M18.1393 25.5714H17.0723V26.6397H18.1393V25.5714Z" fill="#ED56C2"/>
<path d="M18.1393 24.5031H17.0723V25.5714H18.1393V24.5031Z" fill="#ED56C2"/>
<path d="M18.1393 23.4348H17.0723V24.5031H18.1393V23.4348Z" fill="#ED56C2"/>
<path d="M18.1393 22.3665H17.0723V23.4348H18.1393V22.3665Z" fill="#ED56C2"/>
<path d="M18.1393 21.2982H17.0723V22.3665H18.1393V21.2982Z" fill="#FF7BD3"/>
<path d="M18.1393 20.2298H17.0723V21.2981H18.1393V20.2298Z" fill="#FFBBEC"/>
<path d="M18.1393 19.1615H17.0723V20.2298H18.1393V19.1615Z" fill="#FF7BD3"/>
<path d="M18.1393 18.0931H17.0723V19.1615H18.1393V18.0931Z" fill="#FF7BD3"/>
<path d="M18.1393 17.0248H17.0723V18.0932H18.1393V17.0248Z" fill="#132F6D"/>
<path d="M18.1393 13.8199H17.0723V14.8882H18.1393V13.8199Z" fill="#132F6D"/>
<path d="M18.1393 12.7515H17.0723V13.8198H18.1393V12.7515Z" fill="#C6F7FF"/>
<path d="M18.1393 11.6832H17.0723V12.7516H18.1393V11.6832Z" fill="#C6F7FF"/>
<path d="M18.1393 10.6149H17.0723V11.6833H18.1393V10.6149Z" fill="#81E0EA"/>
<path d="M18.1393 9.54657H17.0723V10.6149H18.1393V9.54657Z" fill="#81E0EA"/>
<path d="M18.1393 8.47827H17.0723V9.54659H18.1393V8.47827Z" fill="#132F6D"/>
<path d="M18.1393 7.40991H17.0723V8.47824H18.1393V7.40991Z" fill="#FF7BD3"/>
<path d="M18.1393 6.34161H17.0723V7.40994H18.1393V6.34161Z" fill="#FF7BD3"/>
<path d="M18.1393 5.27332H17.0723V6.34164H18.1393V5.27332Z" fill="#FFBBEC"/>
<path d="M18.1393 4.20496H17.0723V5.27328H18.1393V4.20496Z" fill="#8E1DD8"/>
<path d="M18.1393 3.13666H17.0723V4.20498H18.1393V3.13666Z" fill="#FF7BD3"/>
<path d="M18.1393 2.0683H17.0723V3.13662H18.1393V2.0683Z" fill="#FF7BD3"/>
<path d="M18.1393 1H17.0723V2.06832H18.1393V1Z" fill="#132F6D"/>
<path d="M17.0723 29.8447H16.0053V30.913H17.0723V29.8447Z" fill="#132F6D"/>
<path d="M17.0723 28.7764H16.0053V29.8447H17.0723V28.7764Z" fill="#C6F7FF"/>
<path d="M17.0723 27.7081H16.0053V28.7764H17.0723V27.7081Z" fill="#81E0EA"/>
<path d="M17.0723 26.6398H16.0053V27.7081H17.0723V26.6398Z" fill="#132F6D"/>
<path d="M17.0723 25.5714H16.0053V26.6397H17.0723V25.5714Z" fill="#ED56C2"/>
<path d="M17.0723 24.5031H16.0053V25.5714H17.0723V24.5031Z" fill="#ED56C2"/>
<path d="M17.0723 23.4348H16.0053V24.5031H17.0723V23.4348Z" fill="#ED56C2"/>
<path d="M17.0723 22.3665H16.0053V23.4348H17.0723V22.3665Z" fill="#8E1DD8"/>
<path d="M17.0723 21.2982H16.0053V22.3665H17.0723V21.2982Z" fill="#8E1DD8"/>
<path d="M17.0723 20.2298H16.0053V21.2981H17.0723V20.2298Z" fill="#FFBBEC"/>
<path d="M17.0723 19.1615H16.0053V20.2298H17.0723V19.1615Z" fill="#FF7BD3"/>
<path d="M17.0723 18.0931H16.0053V19.1615H17.0723V18.0931Z" fill="#FF7BD3"/>
<path d="M17.0723 17.0248H16.0053V18.0932H17.0723V17.0248Z" fill="#FF7BD3"/>
<path d="M17.0723 15.9565H16.0053V17.0249H17.0723V15.9565Z" fill="#132F6D"/>
<path d="M17.0723 12.7515H16.0053V13.8198H17.0723V12.7515Z" fill="#132F6D"/>
<path d="M17.0723 11.6832H16.0053V12.7516H17.0723V11.6832Z" fill="#C6F7FF"/>
<path d="M17.0723 10.6149H16.0053V11.6833H17.0723V10.6149Z" fill="#C6F7FF"/>
<path d="M17.0723 9.54657H16.0053V10.6149H17.0723V9.54657Z" fill="#81E0EA"/>
<path d="M17.0723 8.47827H16.0053V9.54659H17.0723V8.47827Z" fill="#132F6D"/>
<path d="M17.0723 7.40991H16.0053V8.47824H17.0723V7.40991Z" fill="#FF7BD3"/>
<path d="M17.0723 6.34161H16.0053V7.40994H17.0723V6.34161Z" fill="#FF7BD3"/>
<path d="M17.0723 5.27332H16.0053V6.34164H17.0723V5.27332Z" fill="#FFBBEC"/>
<path d="M17.0723 4.20496H16.0053V5.27328H17.0723V4.20496Z" fill="#FFBBEC"/>
<path d="M17.0723 3.13666H16.0053V4.20498H17.0723V3.13666Z" fill="#FF7BD3"/>
<path d="M17.0723 2.0683H16.0053V3.13662H17.0723V2.0683Z" fill="#FF7BD3"/>
<path d="M17.0723 1H16.0053V2.06832H17.0723V1Z" fill="#132F6D"/>
<path d="M16.0053 29.8447H14.9383V30.913H16.0053V29.8447Z" fill="#132F6D"/>
<path d="M16.0053 28.7764H14.9383V29.8447H16.0053V28.7764Z" fill="#C6F7FF"/>
<path d="M16.0053 27.7081H14.9383V28.7764H16.0053V27.7081Z" fill="#81E0EA"/>
<path d="M16.0053 26.6398H14.9383V27.7081H16.0053V26.6398Z" fill="#132F6D"/>
<path d="M16.0053 25.5714H14.9383V26.6397H16.0053V25.5714Z" fill="#ED56C2"/>
<path d="M16.0053 24.5031H14.9383V25.5714H16.0053V24.5031Z" fill="#ED56C2"/>
<path d="M16.0053 23.4348H14.9383V24.5031H16.0053V23.4348Z" fill="#ED56C2"/>
<path d="M16.0053 22.3665H14.9383V23.4348H16.0053V22.3665Z" fill="#ED56C2"/>
<path d="M16.0053 21.2982H14.9383V22.3665H16.0053V21.2982Z" fill="#FF7BD3"/>
<path d="M16.0053 20.2298H14.9383V21.2981H16.0053V20.2298Z" fill="#FF7BD3"/>
<path d="M16.0053 19.1615H14.9383V20.2298H16.0053V19.1615Z" fill="#FFBBEC"/>
<path d="M16.0053 18.0931H14.9383V19.1615H16.0053V18.0931Z" fill="#FF7BD3"/>
<path d="M16.0053 17.0248H14.9383V18.0932H16.0053V17.0248Z" fill="#FF7BD3"/>
<path d="M16.0053 15.9565H14.9383V17.0249H16.0053V15.9565Z" fill="#132F6D"/>
<path d="M16.0053 11.6832H14.9383V12.7516H16.0053V11.6832Z" fill="#132F6D"/>
<path d="M16.0053 10.6149H14.9383V11.6833H16.0053V10.6149Z" fill="#C6F7FF"/>
<path d="M16.0053 9.54657H14.9383V10.6149H16.0053V9.54657Z" fill="#81E0EA"/>
<path d="M16.0053 8.47827H14.9383V9.54659H16.0053V8.47827Z" fill="#132F6D"/>
<path d="M16.0053 7.40991H14.9383V8.47824H16.0053V7.40991Z" fill="#FF7BD3"/>
<path d="M16.0053 6.34161H14.9383V7.40994H16.0053V6.34161Z" fill="#FF7BD3"/>
<path d="M16.0053 5.27332H14.9383V6.34164H16.0053V5.27332Z" fill="#FFBBEC"/>
<path d="M16.0053 4.20496H14.9383V5.27328H16.0053V4.20496Z" fill="#FFBBEC"/>
<path d="M16.0053 3.13666H14.9383V4.20498H16.0053V3.13666Z" fill="#FF7BD3"/>
<path d="M16.0053 2.0683H14.9383V3.13662H16.0053V2.0683Z" fill="#FF7BD3"/>
<path d="M16.0053 1H14.9383V2.06832H16.0053V1Z" fill="#132F6D"/>
<path d="M14.9383 28.7764H13.8713V29.8447H14.9383V28.7764Z" fill="#C6F7FF"/>
<path d="M14.9383 27.7081H13.8713V28.7764H14.9383V27.7081Z" fill="#81E0EA"/>
<path d="M14.9383 26.6398H13.8713V27.7081H14.9383V26.6398Z" fill="#132F6D"/>
<path d="M14.9383 25.5714H13.8713V26.6397H14.9383V25.5714Z" fill="#ED56C2"/>
<path d="M14.9383 24.5031H13.8713V25.5714H14.9383V24.5031Z" fill="#ED56C2"/>
<path d="M14.9383 23.4348H13.8713V24.5031H14.9383V23.4348Z" fill="#ED56C2"/>
<path d="M14.9383 22.3665H13.8713V23.4348H14.9383V22.3665Z" fill="#FF7BD3"/>
<path d="M14.9383 21.2982H13.8713V22.3665H14.9383V21.2982Z" fill="#FF7BD3"/>
<path d="M14.9383 20.2298H13.8713V21.2981H14.9383V20.2298Z" fill="#FF7BD3"/>
<path d="M14.9383 19.1615H13.8713V20.2298H14.9383V19.1615Z" fill="#8E1DD8"/>
<path d="M14.9383 18.0931H13.8713V19.1615H14.9383V18.0931Z" fill="#FFBBEC"/>
<path d="M14.9383 17.0248H13.8713V18.0932H14.9383V17.0248Z" fill="#FF7BD3"/>
<path d="M14.9383 15.9565H13.8713V17.0249H14.9383V15.9565Z" fill="#FF7BD3"/>
<path d="M14.9383 14.8882H13.8713V15.9565H14.9383V14.8882Z" fill="#132F6D"/>
<path d="M14.9383 11.6832H13.8713V12.7516H14.9383V11.6832Z" fill="#132F6D"/>
<path d="M14.9383 10.6149H13.8713V11.6833H14.9383V10.6149Z" fill="#C6F7FF"/>
<path d="M14.9383 9.54657H13.8713V10.6149H14.9383V9.54657Z" fill="#81E0EA"/>
<path d="M14.9383 8.47827H13.8713V9.54659H14.9383V8.47827Z" fill="#132F6D"/>
<path d="M14.9383 7.40991H13.8713V8.47824H14.9383V7.40991Z" fill="#FF7BD3"/>
<path d="M14.9383 6.34161H13.8713V7.40994H14.9383V6.34161Z" fill="#FF7BD3"/>
<path d="M14.9383 5.27332H13.8713V6.34164H14.9383V5.27332Z" fill="#FFBBEC"/>
<path d="M14.9383 4.20496H13.8713V5.27328H14.9383V4.20496Z" fill="#FFBBEC"/>
<path d="M14.9383 3.13666H13.8713V4.20498H14.9383V3.13666Z" fill="#FF7BD3"/>
<path d="M14.9383 2.0683H13.8713V3.13662H14.9383V2.0683Z" fill="#FF7BD3"/>
<path d="M14.9383 1H13.8713V2.06832H14.9383V1Z" fill="#132F6D"/>
<path d="M13.8713 27.7081H12.8043V28.7764H13.8713V27.7081Z" fill="#81E0EA"/>
<path d="M13.8713 26.6398H12.8043V27.7081H13.8713V26.6398Z" fill="#132F6D"/>
<path d="M13.8713 25.5714H12.8043V26.6397H13.8713V25.5714Z" fill="#ED56C2"/>
<path d="M13.8713 24.5031H12.8043V25.5714H13.8713V24.5031Z" fill="#ED56C2"/>
<path d="M13.8713 23.4348H12.8043V24.5031H13.8713V23.4348Z" fill="#ED56C2"/>
<path d="M13.8713 22.3665H12.8043V23.4348H13.8713V22.3665Z" fill="#ED56C2"/>
<path d="M13.8713 21.2982H12.8043V22.3665H13.8713V21.2982Z" fill="#ED56C2"/>
<path d="M13.8713 20.2298H12.8043V21.2981H13.8713V20.2298Z" fill="#FF7BD3"/>
<path d="M13.8713 19.1615H12.8043V20.2298H13.8713V19.1615Z" fill="#8E1DD8"/>
<path d="M13.8713 18.0931H12.8043V19.1615H13.8713V18.0931Z" fill="#FF7BD3"/>
<path d="M13.8713 17.0248H12.8043V18.0932H13.8713V17.0248Z" fill="#FF7BD3"/>
<path d="M13.8713 15.9565H12.8043V17.0249H13.8713V15.9565Z" fill="#FF7BD3"/>
<path d="M13.8713 14.8882H12.8043V15.9565H13.8713V14.8882Z" fill="#FF7BD3"/>
<path d="M13.8713 13.8199H12.8043V14.8882H13.8713V13.8199Z" fill="#132F6D"/>
<path d="M13.8713 11.6832H12.8043V12.7516H13.8713V11.6832Z" fill="#132F6D"/>
<path d="M13.8713 10.6149H12.8043V11.6833H13.8713V10.6149Z" fill="#C6F7FF"/>
<path d="M13.8713 9.54657H12.8043V10.6149H13.8713V9.54657Z" fill="#81E0EA"/>
<path d="M13.8713 8.47827H12.8043V9.54659H13.8713V8.47827Z" fill="#132F6D"/>
<path d="M13.8713 7.40991H12.8043V8.47824H13.8713V7.40991Z" fill="#FF7BD3"/>
<path d="M13.8713 6.34161H12.8043V7.40994H13.8713V6.34161Z" fill="#FF7BD3"/>
<path d="M13.8713 5.27332H12.8043V6.34164H13.8713V5.27332Z" fill="#FFBBEC"/>
<path d="M13.8713 4.20496H12.8043V5.27328H13.8713V4.20496Z" fill="#8E1DD8"/>
<path d="M13.8713 3.13666H12.8043V4.20498H13.8713V3.13666Z" fill="#8E1DD8"/>
<path d="M13.8713 2.0683H12.8043V3.13662H13.8713V2.0683Z" fill="#FF7BD3"/>
<path d="M13.8713 1H12.8043V2.06832H13.8713V1Z" fill="#132F6D"/>
<path d="M12.8043 27.7081H11.7372V28.7764H12.8043V27.7081Z" fill="#C6F7FF"/>
<path d="M12.8043 26.6398H11.7372V27.7081H12.8043V26.6398Z" fill="#81E0EA"/>
<path d="M12.8043 25.5714H11.7372V26.6397H12.8043V25.5714Z" fill="#132F6D"/>
<path d="M12.8043 24.5031H11.7372V25.5714H12.8043V24.5031Z" fill="#ED56C2"/>
<path d="M12.8043 23.4348H11.7372V24.5031H12.8043V23.4348Z" fill="#ED56C2"/>
<path d="M12.8043 22.3665H11.7372V23.4348H12.8043V22.3665Z" fill="#ED56C2"/>
<path d="M12.8043 21.2982H11.7372V22.3665H12.8043V21.2982Z" fill="#ED56C2"/>
<path d="M12.8043 20.2298H11.7372V21.2981H12.8043V20.2298Z" fill="#ED56C2"/>
<path d="M12.8043 19.1615H11.7372V20.2298H12.8043V19.1615Z" fill="#FF7BD3"/>
<path d="M12.8043 18.0931H11.7372V19.1615H12.8043V18.0931Z" fill="#FF7BD3"/>
<path d="M12.8043 17.0248H11.7372V18.0932H12.8043V17.0248Z" fill="#FF7BD3"/>
<path d="M12.8043 15.9565H11.7372V17.0249H12.8043V15.9565Z" fill="#FF7BD3"/>
<path d="M12.8043 14.8882H11.7372V15.9565H12.8043V14.8882Z" fill="#FF7BD3"/>
<path d="M12.8043 13.8199H11.7372V14.8882H12.8043V13.8199Z" fill="#FF7BD3"/>
<path d="M12.8043 12.7515H11.7372V13.8198H12.8043V12.7515Z" fill="#132F6D"/>
<path d="M12.8043 11.6832H11.7372V12.7516H12.8043V11.6832Z" fill="#132F6D"/>
<path d="M12.8043 10.6149H11.7372V11.6833H12.8043V10.6149Z" fill="#132F6D"/>
<path d="M12.8043 9.54657H11.7372V10.6149H12.8043V9.54657Z" fill="#132F6D"/>
<path d="M12.8043 8.47827H11.7372V9.54659H12.8043V8.47827Z" fill="#FF7BD3"/>
<path d="M12.8043 7.40991H11.7372V8.47824H12.8043V7.40991Z" fill="#FF7BD3"/>
<path d="M12.8043 6.34161H11.7372V7.40994H12.8043V6.34161Z" fill="#FF7BD3"/>
<path d="M12.8043 5.27332H11.7372V6.34164H12.8043V5.27332Z" fill="#FFBBEC"/>
<path d="M12.8043 4.20496H11.7372V5.27328H12.8043V4.20496Z" fill="#FFBBEC"/>
<path d="M12.8043 3.13666H11.7372V4.20498H12.8043V3.13666Z" fill="#FF7BD3"/>
<path d="M12.8043 2.0683H11.7372V3.13662H12.8043V2.0683Z" fill="#FF7BD3"/>
<path d="M12.8043 1H11.7372V2.06832H12.8043V1Z" fill="#132F6D"/>
<path d="M11.7372 27.7081H10.6702V28.7764H11.7372V27.7081Z" fill="#C6F7FF"/>
<path d="M13.8713 28.7764H12.8043V29.8447H13.8713V28.7764Z" fill="#C6F7FF"/>
<path d="M12.8043 28.7764H11.7372V29.8447H12.8043V28.7764Z" fill="#132F6D"/>
<path d="M11.7372 28.7764H10.6702V29.8447H11.7372V28.7764Z" fill="#132F6D"/>
<path d="M14.9383 29.8447H13.8713V30.913H14.9383V29.8447Z" fill="#132F6D"/>
<path d="M13.8713 29.8447H12.8043V30.913H13.8713V29.8447Z" fill="#132F6D"/>
<path d="M11.7372 26.6398H10.6702V27.7081H11.7372V26.6398Z" fill="#81E0EA"/>
<path d="M11.7372 25.5714H10.6702V26.6397H11.7372V25.5714Z" fill="#132F6D"/>
<path d="M11.7372 24.5031H10.6702V25.5714H11.7372V24.5031Z" fill="#ED56C2"/>
<path d="M11.7372 23.4348H10.6702V24.5031H11.7372V23.4348Z" fill="#ED56C2"/>
<path d="M11.7372 22.3665H10.6702V23.4348H11.7372V22.3665Z" fill="#ED56C2"/>
<path d="M11.7372 21.2982H10.6702V22.3665H11.7372V21.2982Z" fill="#ED56C2"/>
<path d="M11.7372 20.2298H10.6702V21.2981H11.7372V20.2298Z" fill="#ED56C2"/>
<path d="M11.7372 19.1615H10.6702V20.2298H11.7372V19.1615Z" fill="#ED56C2"/>
<path d="M11.7372 18.0931H10.6702V19.1615H11.7372V18.0931Z" fill="#FF7BD3"/>
<path d="M11.7372 17.0248H10.6702V18.0932H11.7372V17.0248Z" fill="#FF7BD3"/>
<path d="M11.7372 15.9565H10.6702V17.0249H11.7372V15.9565Z" fill="#FF7BD3"/>
<path d="M11.7372 14.8882H10.6702V15.9565H11.7372V14.8882Z" fill="#8E1DD8"/>
<path d="M11.7372 13.8199H10.6702V14.8882H11.7372V13.8199Z" fill="#FF7BD3"/>
<path d="M11.7372 12.7515H10.6702V13.8198H11.7372V12.7515Z" fill="#FF7BD3"/>
<path d="M11.7372 11.6832H10.6702V12.7516H11.7372V11.6832Z" fill="#FF7BD3"/>
<path d="M11.7372 10.6149H10.6702V11.6833H11.7372V10.6149Z" fill="#FF7BD3"/>
<path d="M11.7372 9.54657H10.6702V10.6149H11.7372V9.54657Z" fill="#FF7BD3"/>
<path d="M11.7372 8.47827H10.6702V9.54659H11.7372V8.47827Z" fill="#FF7BD3"/>
<path d="M11.7372 7.40991H10.6702V8.47824H11.7372V7.40991Z" fill="#8E1DD8"/>
<path d="M11.7372 6.34161H10.6702V7.40994H11.7372V6.34161Z" fill="#FFBBEC"/>
<path d="M11.7372 5.27332H10.6702V6.34164H11.7372V5.27332Z" fill="#FFBBEC"/>
<path d="M11.7372 4.20496H10.6702V5.27328H11.7372V4.20496Z" fill="#FFBBEC"/>
<path d="M11.7372 3.13666H10.6702V4.20498H11.7372V3.13666Z" fill="#FF7BD3"/>
<path d="M11.7372 2.0683H10.6702V3.13662H11.7372V2.0683Z" fill="#FF7BD3"/>
<path d="M11.7372 1H10.6702V2.06832H11.7372V1Z" fill="#132F6D"/>
<path d="M10.6702 26.6398H9.60321V27.7081H10.6702V26.6398Z" fill="#C6F7FF"/>
<path d="M10.6702 25.5714H9.60321V26.6397H10.6702V25.5714Z" fill="#132F6D"/>
<path d="M10.6702 24.5031H9.60321V25.5714H10.6702V24.5031Z" fill="#132F6D"/>
<path d="M10.6702 23.4348H9.60321V24.5031H10.6702V23.4348Z" fill="#ED56C2"/>
<path d="M10.6702 22.3665H9.60321V23.4348H10.6702V22.3665Z" fill="#ED56C2"/>
<path d="M10.6702 21.2982H9.60321V22.3665H10.6702V21.2982Z" fill="#ED56C2"/>
<path d="M10.6702 20.2298H9.60321V21.2981H10.6702V20.2298Z" fill="#ED56C2"/>
<path d="M10.6702 19.1615H9.60321V20.2298H10.6702V19.1615Z" fill="#ED56C2"/>
<path d="M10.6702 18.0931H9.60321V19.1615H10.6702V18.0931Z" fill="#8E1DD8"/>
<path d="M10.6702 17.0248H9.60321V18.0932H10.6702V17.0248Z" fill="#8E1DD8"/>
<path d="M10.6702 15.9565H9.60321V17.0249H10.6702V15.9565Z" fill="#FF7BD3"/>
<path d="M10.6702 14.8882H9.60321V15.9565H10.6702V14.8882Z" fill="#8E1DD8"/>
<path d="M10.6702 13.8199H9.60321V14.8882H10.6702V13.8199Z" fill="#FF7BD3"/>
<path d="M10.6702 12.7515H9.60321V13.8198H10.6702V12.7515Z" fill="#FF7BD3"/>
<path d="M10.6702 11.6832H9.60321V12.7516H10.6702V11.6832Z" fill="#FF7BD3"/>
<path d="M10.6702 10.6149H9.60321V11.6833H10.6702V10.6149Z" fill="#FF7BD3"/>
<path d="M10.6702 9.54657H9.60321V10.6149H10.6702V9.54657Z" fill="#FF7BD3"/>
<path d="M10.6702 8.47827H9.60321V9.54659H10.6702V8.47827Z" fill="#FF7BD3"/>
<path d="M10.6702 7.40991H9.60321V8.47824H10.6702V7.40991Z" fill="#FFBBEC"/>
<path d="M10.6702 6.34161H9.60321V7.40994H10.6702V6.34161Z" fill="#FFBBEC"/>
<path d="M10.6702 5.27332H9.60321V6.34164H10.6702V5.27332Z" fill="#FFBBEC"/>
<path d="M10.6702 4.20496H9.60321V5.27328H10.6702V4.20496Z" fill="#FF7BD3"/>
<path d="M10.6702 3.13666H9.60321V4.20498H10.6702V3.13666Z" fill="#FF7BD3"/>
<path d="M10.6702 2.0683H9.60321V3.13662H10.6702V2.0683Z" fill="#132F6D"/>
<path d="M9.60322 26.6398H8.53619V27.7081H9.60322V26.6398Z" fill="#C6F7FF"/>
<path d="M9.60322 25.5714H8.53619V26.6397H9.60322V25.5714Z" fill="#C6F7FF"/>
<path d="M9.60322 24.5031H8.53619V25.5714H9.60322V24.5031Z" fill="#81E0EA"/>
<path d="M9.60322 23.4348H8.53619V24.5031H9.60322V23.4348Z" fill="#132F6D"/>
<path d="M9.60322 22.3665H8.53619V23.4348H9.60322V22.3665Z" fill="#132F6D"/>
<path d="M9.60322 21.2982H8.53619V22.3665H9.60322V21.2982Z" fill="#132F6D"/>
<path d="M9.60322 20.2298H8.53619V21.2981H9.60322V20.2298Z" fill="#ED56C2"/>
<path d="M9.60322 19.1615H8.53619V20.2298H9.60322V19.1615Z" fill="#ED56C2"/>
<path d="M9.60322 18.0931H8.53619V19.1615H9.60322V18.0931Z" fill="#ED56C2"/>
<path d="M9.60322 17.0248H8.53619V18.0932H9.60322V17.0248Z" fill="#ED56C2"/>
<path d="M9.60322 15.9565H8.53619V17.0249H9.60322V15.9565Z" fill="#FF7BD3"/>
<path d="M9.60322 14.8882H8.53619V15.9565H9.60322V14.8882Z" fill="#FF7BD3"/>
<path d="M9.60322 13.8199H8.53619V14.8882H9.60322V13.8199Z" fill="#FF7BD3"/>
<path d="M9.60322 12.7515H8.53619V13.8198H9.60322V12.7515Z" fill="#FF7BD3"/>
<path d="M9.60322 11.6832H8.53619V12.7516H9.60322V11.6832Z" fill="#FF7BD3"/>
<path d="M9.60322 10.6149H8.53619V11.6833H9.60322V10.6149Z" fill="#FFBBEC"/>
<path d="M9.60322 9.54657H8.53619V10.6149H9.60322V9.54657Z" fill="#FFBBEC"/>
<path d="M9.60322 8.47827H8.53619V9.54659H9.60322V8.47827Z" fill="#FFBBEC"/>
<path d="M9.60322 7.40991H8.53619V8.47824H9.60322V7.40991Z" fill="#FFBBEC"/>
<path d="M9.60322 6.34161H8.53619V7.40994H9.60322V6.34161Z" fill="#FFBBEC"/>
<path d="M9.60322 5.27332H8.53619V6.34164H9.60322V5.27332Z" fill="#FFBBEC"/>
<path d="M9.60322 4.20496H8.53619V5.27328H9.60322V4.20496Z" fill="#8E1DD8"/>
<path d="M9.60322 3.13666H8.53619V4.20498H9.60322V3.13666Z" fill="#FF7BD3"/>
<path d="M9.60322 2.0683H8.53619V3.13662H9.60322V2.0683Z" fill="#132F6D"/>
<path d="M8.5362 25.5714H7.46918V26.6397H8.5362V25.5714Z" fill="#C6F7FF"/>
<path d="M8.5362 24.5031H7.46918V25.5714H8.5362V24.5031Z" fill="#C6F7FF"/>
<path d="M8.5362 23.4348H7.46918V24.5031H8.5362V23.4348Z" fill="#C6F7FF"/>
<path d="M8.5362 22.3665H7.46918V23.4348H8.5362V22.3665Z" fill="#81E0EA"/>
<path d="M8.5362 21.2982H7.46918V22.3665H8.5362V21.2982Z" fill="#132F6D"/>
<path d="M8.5362 20.2298H7.46918V21.2981H8.5362V20.2298Z" fill="#ED56C2"/>
<path d="M8.5362 19.1615H7.46918V20.2298H8.5362V19.1615Z" fill="#ED56C2"/>
<path d="M8.5362 18.0931H7.46918V19.1615H8.5362V18.0931Z" fill="#ED56C2"/>
<path d="M8.5362 17.0248H7.46918V18.0932H8.5362V17.0248Z" fill="#ED56C2"/>
<path d="M8.5362 15.9565H7.46918V17.0249H8.5362V15.9565Z" fill="#ED56C2"/>
<path d="M8.5362 14.8882H7.46918V15.9565H8.5362V14.8882Z" fill="#ED56C2"/>
<path d="M8.5362 13.8199H7.46918V14.8882H8.5362V13.8199Z" fill="#ED56C2"/>
<path d="M8.5362 12.7515H7.46918V13.8198H8.5362V12.7515Z" fill="#8E1DD8"/>
<path d="M8.5362 11.6832H7.46918V12.7516H8.5362V11.6832Z" fill="#8E1DD8"/>
<path d="M8.5362 10.6149H7.46918V11.6833H8.5362V10.6149Z" fill="#FFBBEC"/>
<path d="M8.5362 9.54657H7.46918V10.6149H8.5362V9.54657Z" fill="#FFBBEC"/>
<path d="M8.5362 8.47827H7.46918V9.54659H8.5362V8.47827Z" fill="#8E1DD8"/>
<path d="M8.5362 7.40991H7.46918V8.47824H8.5362V7.40991Z" fill="#FFBBEC"/>
<path d="M8.5362 6.34161H7.46918V7.40994H8.5362V6.34161Z" fill="#FF7BD3"/>
<path d="M8.5362 5.27332H7.46918V6.34164H8.5362V5.27332Z" fill="#FF7BD3"/>
<path d="M8.5362 4.20496H7.46918V5.27328H8.5362V4.20496Z" fill="#FF7BD3"/>
<path d="M8.5362 3.13666H7.46918V4.20498H8.5362V3.13666Z" fill="#FF7BD3"/>
<path d="M8.5362 2.0683H7.46918V3.13662H8.5362V2.0683Z" fill="#132F6D"/>
<path d="M7.46918 24.5031H6.40216V25.5714H7.46918V24.5031Z" fill="#C6F7FF"/>
<path d="M7.46918 23.4348H6.40216V24.5031H7.46918V23.4348Z" fill="#C6F7FF"/>
<path d="M7.46918 22.3665H6.40216V23.4348H7.46918V22.3665Z" fill="#132F6D"/>
<path d="M7.46918 21.2982H6.40216V22.3665H7.46918V21.2982Z" fill="#ED56C2"/>
<path d="M7.46918 20.2298H6.40216V21.2981H7.46918V20.2298Z" fill="#ED56C2"/>
<path d="M7.46918 19.1615H6.40216V20.2298H7.46918V19.1615Z" fill="#ED56C2"/>
<path d="M7.46918 18.0931H6.40216V19.1615H7.46918V18.0931Z" fill="#ED56C2"/>
<path d="M7.46918 17.0248H6.40216V18.0932H7.46918V17.0248Z" fill="#ED56C2"/>
<path d="M7.46918 15.9565H6.40216V17.0249H7.46918V15.9565Z" fill="#ED56C2"/>
<path d="M7.46918 14.8882H6.40216V15.9565H7.46918V14.8882Z" fill="#ED56C2"/>
<path d="M7.46918 13.8199H6.40216V14.8882H7.46918V13.8199Z" fill="#ED56C2"/>
<path d="M7.46918 12.7515H6.40216V13.8198H7.46918V12.7515Z" fill="#ED56C2"/>
<path d="M7.46918 11.6832H6.40216V12.7516H7.46918V11.6832Z" fill="#FF7BD3"/>
<path d="M7.46918 10.6149H6.40216V11.6833H7.46918V10.6149Z" fill="#FF7BD3"/>
<path d="M7.46918 9.54657H6.40216V10.6149H7.46918V9.54657Z" fill="#FF7BD3"/>
<path d="M7.46918 8.47827H6.40216V9.54659H7.46918V8.47827Z" fill="#8E1DD8"/>
<path d="M7.46918 7.40991H6.40216V8.47824H7.46918V7.40991Z" fill="#FF7BD3"/>
<path d="M7.46918 6.34161H6.40216V7.40994H7.46918V6.34161Z" fill="#FF7BD3"/>
<path d="M7.46918 5.27332H6.40216V6.34164H7.46918V5.27332Z" fill="#FF7BD3"/>
<path d="M7.46918 4.20496H6.40216V5.27328H7.46918V4.20496Z" fill="#FF7BD3"/>
<path d="M7.46918 3.13666H6.40216V4.20498H7.46918V3.13666Z" fill="#132F6D"/>
<path d="M6.40211 23.4348H5.33508V24.5031H6.40211V23.4348Z" fill="#132F6D"/>
<path d="M9.60322 27.6974H8.53619V28.7657H9.60322V27.6974Z" fill="#132F6D"/>
<path d="M8.5362 26.6398H7.46918V27.7081H8.5362V26.6398Z" fill="#132F6D"/>
<path d="M7.46918 25.5714H6.40216V26.6397H7.46918V25.5714Z" fill="#132F6D"/>
<path d="M6.40211 24.5031H5.33508V25.5714H6.40211V24.5031Z" fill="#132F6D"/>
<path d="M6.40211 22.3665H5.33508V23.4348H6.40211V22.3665Z" fill="#ED56C2"/>
<path d="M6.40211 21.2982H5.33508V22.3665H6.40211V21.2982Z" fill="#ED56C2"/>
<path d="M6.40211 20.2298H5.33508V21.2981H6.40211V20.2298Z" fill="#ED56C2"/>
<path d="M6.40211 19.1615H5.33508V20.2298H6.40211V19.1615Z" fill="#ED56C2"/>
<path d="M6.40211 18.0931H5.33508V19.1615H6.40211V18.0931Z" fill="#132F6D"/>
<path d="M6.40211 17.0248H5.33508V18.0932H6.40211V17.0248Z" fill="#132F6D"/>
<path d="M6.40211 15.9565H5.33508V17.0249H6.40211V15.9565Z" fill="#132F6D"/>
<path d="M6.40211 14.8882H5.33508V15.9565H6.40211V14.8882Z" fill="#132F6D"/>
<path d="M6.40211 13.8199H5.33508V14.8882H6.40211V13.8199Z" fill="#ED56C2"/>
<path d="M6.40211 12.7515H5.33508V13.8198H6.40211V12.7515Z" fill="#ED56C2"/>
<path d="M6.40211 11.6832H5.33508V12.7516H6.40211V11.6832Z" fill="#ED56C2"/>
<path d="M6.40211 10.6149H5.33508V11.6833H6.40211V10.6149Z" fill="#FF7BD3"/>
<path d="M6.40211 9.54657H5.33508V10.6149H6.40211V9.54657Z" fill="#FF7BD3"/>
<path d="M6.40211 8.47827H5.33508V9.54659H6.40211V8.47827Z" fill="#FF7BD3"/>
<path d="M6.40211 7.40991H5.33508V8.47824H6.40211V7.40991Z" fill="#FF7BD3"/>
<path d="M6.40211 6.34161H5.33508V7.40994H6.40211V6.34161Z" fill="#FF7BD3"/>
<path d="M6.40211 5.27332H5.33508V6.34164H6.40211V5.27332Z" fill="#FF7BD3"/>
<path d="M6.40211 4.20496H5.33508V5.27328H6.40211V4.20496Z" fill="#FF7BD3"/>
<path d="M6.40211 3.13666H5.33508V4.20498H6.40211V3.13666Z" fill="#132F6D"/>
<path d="M5.33509 23.4348H4.26807V24.5031H5.33509V23.4348Z" fill="#132F6D"/>
<path d="M5.33509 22.3665H4.26807V23.4348H5.33509V22.3665Z" fill="#ED56C2"/>
<path d="M5.33509 21.2982H4.26807V22.3665H5.33509V21.2982Z" fill="#ED56C2"/>
<path d="M5.33509 20.2298H4.26807V21.2981H5.33509V20.2298Z" fill="#132F6D"/>
<path d="M5.33509 19.1615H4.26807V20.2298H5.33509V19.1615Z" fill="#132F6D"/>
<path d="M5.33509 18.0931H4.26807V19.1615H5.33509V18.0931Z" fill="#81E0EA"/>
<path d="M5.33509 17.0248H4.26807V18.0932H5.33509V17.0248Z" fill="#81E0EA"/>
<path d="M5.33509 15.9565H4.26807V17.0249H5.33509V15.9565Z" fill="#81E0EA"/>
<path d="M5.33509 14.8882H4.26807V15.9565H5.33509V14.8882Z" fill="#81E0EA"/>
<path d="M5.33509 13.8199H4.26807V14.8882H5.33509V13.8199Z" fill="#132F6D"/>
<path d="M5.33509 12.7515H4.26807V13.8198H5.33509V12.7515Z" fill="#ED56C2"/>
<path d="M5.33509 11.6832H4.26807V12.7516H5.33509V11.6832Z" fill="#ED56C2"/>
<path d="M5.33509 10.6149H4.26807V11.6833H5.33509V10.6149Z" fill="#ED56C2"/>
<path d="M5.33509 9.54657H4.26807V10.6149H5.33509V9.54657Z" fill="#ED56C2"/>
<path d="M5.33509 8.47827H4.26807V9.54659H5.33509V8.47827Z" fill="#ED56C2"/>
<path d="M5.33509 7.40991H4.26807V8.47824H5.33509V7.40991Z" fill="#FF7BD3"/>
<path d="M5.33509 6.34161H4.26807V7.40994H5.33509V6.34161Z" fill="#FF7BD3"/>
<path d="M5.33509 5.27332H4.26807V6.34164H5.33509V5.27332Z" fill="#FF7BD3"/>
<path d="M5.33509 4.20496H4.26807V5.27328H5.33509V4.20496Z" fill="#132F6D"/>
<path d="M4.26807 22.3665H3.20105V23.4348H4.26807V22.3665Z" fill="#132F6D"/>
<path d="M4.26807 21.2982H3.20105V22.3665H4.26807V21.2982Z" fill="#132F6D"/>
<path d="M4.26807 20.2298H3.20105V21.2981H4.26807V20.2298Z" fill="#C6F7FF"/>
<path d="M4.26807 19.1615H3.20105V20.2298H4.26807V19.1615Z" fill="#C6F7FF"/>
<path d="M4.26807 18.0931H3.20105V19.1615H4.26807V18.0931Z" fill="#C6F7FF"/>
<path d="M4.26807 17.0248H3.20105V18.0932H4.26807V17.0248Z" fill="#81E0EA"/>
<path d="M4.26807 15.9565H3.20105V17.0249H4.26807V15.9565Z" fill="#81E0EA"/>
<path d="M4.26807 14.8882H3.20105V15.9565H4.26807V14.8882Z" fill="#81E0EA"/>
<path d="M4.26807 13.8199H3.20105V14.8882H4.26807V13.8199Z" fill="#81E0EA"/>
<path d="M4.26807 12.7515H3.20105V13.8198H4.26807V12.7515Z" fill="#132F6D"/>
<path d="M4.26807 11.6832H3.20105V12.7516H4.26807V11.6832Z" fill="#132F6D"/>
<path d="M4.26807 10.6149H3.20105V11.6833H4.26807V10.6149Z" fill="#132F6D"/>
<path d="M4.26807 9.54657H3.20105V10.6149H4.26807V9.54657Z" fill="#132F6D"/>
<path d="M4.26807 8.47827H3.20105V9.54659H4.26807V8.47827Z" fill="#132F6D"/>
<path d="M4.26807 7.40991H3.20105V8.47824H4.26807V7.40991Z" fill="#FF7BD3"/>
<path d="M4.26807 6.34161H3.20105V7.40994H4.26807V6.34161Z" fill="#FF7BD3"/>
<path d="M4.26807 5.27332H3.20105V6.34164H4.26807V5.27332Z" fill="#132F6D"/>
<path d="M3.20106 20.2298H2.13403V21.2981H3.20106V20.2298Z" fill="#132F6D"/>
<path d="M3.20106 19.1615H2.13403V20.2298H3.20106V19.1615Z" fill="#C6F7FF"/>
<path d="M3.20106 18.0931H2.13403V19.1615H3.20106V18.0931Z" fill="#C6F7FF"/>
<path d="M3.20106 17.0248H2.13403V18.0932H3.20106V17.0248Z" fill="#C6F7FF"/>
<path d="M3.20106 15.9565H2.13403V17.0249H3.20106V15.9565Z" fill="#C6F7FF"/>
<path d="M3.20106 14.8882H2.13403V15.9565H3.20106V14.8882Z" fill="#C6F7FF"/>
<path d="M3.20106 13.8199H2.13403V14.8882H3.20106V13.8199Z" fill="#81E0EA"/>
<path d="M3.20106 12.7515H2.13403V13.8198H3.20106V12.7515Z" fill="#81E0EA"/>
<path d="M3.20106 11.6832H2.13403V12.7516H3.20106V11.6832Z" fill="#81E0EA"/>
<path d="M3.20106 10.6149H2.13403V11.6833H3.20106V10.6149Z" fill="#81E0EA"/>
<path d="M3.20106 9.54657H2.13403V10.6149H3.20106V9.54657Z" fill="#81E0EA"/>
<path d="M3.20106 8.47827H2.13403V9.54659H3.20106V8.47827Z" fill="#81E0EA"/>
<path d="M3.20106 7.40991H2.13403V8.47824H3.20106V7.40991Z" fill="#132F6D"/>
<path d="M3.20106 6.34161H2.13403V7.40994H3.20106V6.34161Z" fill="#132F6D"/>
<path d="M2.13404 19.1615H1.06702V20.2298H2.13404V19.1615Z" fill="#132F6D"/>
<path d="M2.13404 18.0931H1.06702V19.1615H2.13404V18.0931Z" fill="#132F6D"/>
<path d="M2.13404 17.0248H1.06702V18.0932H2.13404V17.0248Z" fill="#C6F7FF"/>
<path d="M2.13404 15.9565H1.06702V17.0249H2.13404V15.9565Z" fill="#C6F7FF"/>
<path d="M2.13404 14.8882H1.06702V15.9565H2.13404V14.8882Z" fill="#C6F7FF"/>
<path d="M2.13404 13.8199H1.06702V14.8882H2.13404V13.8199Z" fill="#C6F7FF"/>
<path d="M2.13404 12.7515H1.06702V13.8198H2.13404V12.7515Z" fill="#C6F7FF"/>
<path d="M2.13404 11.6832H1.06702V12.7516H2.13404V11.6832Z" fill="#C6F7FF"/>
<path d="M2.13404 10.6149H1.06702V11.6833H2.13404V10.6149Z" fill="#C6F7FF"/>
<path d="M2.13404 9.54657H1.06702V10.6149H2.13404V9.54657Z" fill="#132F6D"/>
<path d="M2.13404 8.47827H1.06702V9.54659H2.13404V8.47827Z" fill="#132F6D"/>
<path d="M1.06702 17.0248H0V18.0932H1.06702V17.0248Z" fill="#132F6D"/>
<path d="M1.06702 15.9565H0V17.0249H1.06702V15.9565Z" fill="#132F6D"/>
<path d="M1.06702 14.8882H0V15.9565H1.06702V14.8882Z" fill="#132F6D"/>
<path d="M1.06702 13.8199H0V14.8882H1.06702V13.8199Z" fill="#132F6D"/>
<path d="M1.06702 12.7515H0V13.8198H1.06702V12.7515Z" fill="#132F6D"/>
<path d="M1.06702 11.6832H0V12.7516H1.06702V11.6832Z" fill="#132F6D"/>
<path d="M1.06702 10.6149H0V11.6833H1.06702V10.6149Z" fill="#132F6D"/>
</g>
<defs>
<clipPath id="clip0_61_61">
<rect width="32" height="29.913" fill="white" transform="translate(0 1)"/>
</clipPath>
</defs>
</svg>
