<svg width="331" height="504" viewBox="0 0 331 504" fill="none" xmlns="http://www.w3.org/2000/svg">
<rect width="331" height="504" fill="white"/>
<line x1="33" y1="1" x2="122" y2="1" stroke="#8E1DD8" stroke-opacity="0.15" stroke-width="2" stroke-dasharray="8 8"/>
<line x1="33" y1="34.4" x2="122" y2="34.4" stroke="#8E1DD8" stroke-opacity="0.15" stroke-width="2" stroke-dasharray="8 8"/>
<line x1="33" y1="67.8" x2="122" y2="67.8" stroke="#8E1DD8" stroke-opacity="0.15" stroke-width="2" stroke-dasharray="8 8"/>
<line x1="33" y1="101.2" x2="122" y2="101.2" stroke="#8E1DD8" stroke-opacity="0.15" stroke-width="2" stroke-dasharray="8 8"/>
<line x1="33" y1="134.6" x2="122" y2="134.6" stroke="#8E1DD8" stroke-opacity="0.15" stroke-width="2" stroke-dasharray="8 8"/>
<line x1="33" y1="168" x2="122" y2="168" stroke="#8E1DD8" stroke-opacity="0.15" stroke-width="2" stroke-dasharray="8 8"/>
<line x1="33" y1="201.4" x2="122" y2="201.4" stroke="#8E1DD8" stroke-opacity="0.15" stroke-width="2" stroke-dasharray="8 8"/>
<line x1="33" y1="234.8" x2="122" y2="234.8" stroke="#8E1DD8" stroke-opacity="0.15" stroke-width="2" stroke-dasharray="8 8"/>
<line x1="33" y1="268.2" x2="122" y2="268.2" stroke="#8E1DD8" stroke-opacity="0.15" stroke-width="2" stroke-dasharray="8 8"/>
<line x1="33" y1="301.6" x2="122" y2="301.6" stroke="#8E1DD8" stroke-opacity="0.15" stroke-width="2" stroke-dasharray="8 8"/>
<line x1="33" y1="335" x2="122" y2="335" stroke="#8E1DD8" stroke-opacity="0.15" stroke-width="2" stroke-dasharray="8 8"/>
<line x1="33" y1="368.4" x2="122" y2="368.4" stroke="#8E1DD8" stroke-opacity="0.15" stroke-width="2" stroke-dasharray="8 8"/>
<line x1="33" y1="401.8" x2="122" y2="401.8" stroke="#8E1DD8" stroke-opacity="0.15" stroke-width="2" stroke-dasharray="8 8"/>
<line x1="33" y1="435.2" x2="122" y2="435.2" stroke="#8E1DD8" stroke-opacity="0.15" stroke-width="2" stroke-dasharray="8 8"/>
<line x1="33" y1="468.6" x2="122" y2="468.6" stroke="#8E1DD8" stroke-opacity="0.15" stroke-width="2" stroke-dasharray="8 8"/>
<line x1="33" y1="502" x2="122" y2="502" stroke="#8E1DD8" stroke-opacity="0.15" stroke-width="2" stroke-dasharray="8 8"/>
<rect x="24" y="202" width="106" height="300" stroke="#ED56C2" stroke-width="2"/>
<rect x="32" y="2" width="90" height="100" stroke="#8E1DD8" stroke-width="2"/>
<rect x="32" y="102" width="90" height="100" stroke="#8E1DD8" stroke-width="2"/>
<rect x="32" y="202" width="90" height="100" stroke="#8E1DD8" stroke-width="2"/>
<rect x="32" y="302" width="90" height="100" stroke="#8E1DD8" stroke-width="2"/>
<rect x="32" y="402" width="90" height="100" stroke="#8E1DD8" stroke-width="2"/>
<path d="M155.724 256V249.455H157.455V250.609H157.531C157.668 250.226 157.895 249.923 158.213 249.702C158.531 249.48 158.912 249.369 159.355 249.369C159.804 249.369 160.186 249.482 160.501 249.706C160.817 249.928 161.027 250.229 161.132 250.609H161.2C161.334 250.234 161.575 249.935 161.925 249.71C162.277 249.483 162.693 249.369 163.173 249.369C163.784 249.369 164.28 249.564 164.661 249.953C165.044 250.339 165.236 250.888 165.236 251.598V256H163.425V251.956C163.425 251.592 163.328 251.32 163.135 251.138C162.942 250.956 162.7 250.865 162.411 250.865C162.081 250.865 161.824 250.97 161.639 251.18C161.455 251.388 161.362 251.662 161.362 252.003V256H159.602V251.918C159.602 251.597 159.51 251.341 159.325 251.151C159.143 250.96 158.903 250.865 158.605 250.865C158.403 250.865 158.222 250.916 158.06 251.018C157.901 251.118 157.774 251.259 157.68 251.44C157.587 251.619 157.54 251.83 157.54 252.071V256H155.724ZM168.296 256.124C167.879 256.124 167.506 256.051 167.18 255.906C166.853 255.759 166.595 255.541 166.404 255.254C166.217 254.964 166.123 254.604 166.123 254.172C166.123 253.808 166.19 253.503 166.323 253.256C166.457 253.009 166.639 252.81 166.869 252.659C167.099 252.509 167.36 252.395 167.653 252.318C167.948 252.241 168.258 252.188 168.582 252.156C168.962 252.116 169.269 252.08 169.502 252.045C169.735 252.009 169.904 251.955 170.009 251.884C170.114 251.812 170.167 251.707 170.167 251.568V251.543C170.167 251.273 170.082 251.064 169.911 250.916C169.744 250.768 169.505 250.695 169.195 250.695C168.869 250.695 168.609 250.767 168.416 250.912C168.222 251.054 168.095 251.233 168.032 251.449L166.353 251.312C166.438 250.915 166.606 250.571 166.856 250.281C167.106 249.989 167.428 249.764 167.823 249.608C168.221 249.449 168.681 249.369 169.204 249.369C169.568 249.369 169.916 249.412 170.248 249.497C170.583 249.582 170.88 249.714 171.139 249.893C171.4 250.072 171.606 250.303 171.756 250.584C171.907 250.862 171.982 251.196 171.982 251.585V256H170.261V255.092H170.21C170.104 255.297 169.964 255.477 169.788 255.634C169.612 255.787 169.4 255.908 169.153 255.996C168.906 256.081 168.62 256.124 168.296 256.124ZM168.816 254.871C169.083 254.871 169.319 254.818 169.523 254.713C169.728 254.605 169.889 254.46 170.005 254.278C170.122 254.097 170.18 253.891 170.18 253.661V252.966C170.123 253.003 170.045 253.037 169.945 253.068C169.849 253.097 169.739 253.124 169.617 253.149C169.495 253.172 169.373 253.193 169.251 253.213C169.129 253.23 169.018 253.246 168.918 253.26C168.705 253.291 168.519 253.341 168.36 253.409C168.201 253.477 168.077 253.57 167.989 253.686C167.901 253.8 167.857 253.942 167.857 254.112C167.857 254.359 167.947 254.548 168.126 254.679C168.308 254.807 168.538 254.871 168.816 254.871ZM173.151 256V249.455H174.911V250.597H174.979C175.098 250.19 175.298 249.884 175.58 249.676C175.861 249.466 176.185 249.361 176.551 249.361C176.642 249.361 176.74 249.366 176.845 249.378C176.95 249.389 177.043 249.405 177.122 249.425V251.036C177.037 251.01 176.919 250.987 176.769 250.967C176.618 250.947 176.48 250.938 176.355 250.938C176.088 250.938 175.85 250.996 175.639 251.112C175.432 251.226 175.267 251.385 175.145 251.589C175.026 251.794 174.966 252.03 174.966 252.297V256H173.151ZM181.841 258.455V254.952H181.786C181.701 255.134 181.58 255.314 181.424 255.493C181.27 255.669 181.07 255.815 180.823 255.932C180.579 256.048 180.28 256.107 179.928 256.107C179.431 256.107 178.981 255.979 178.577 255.723C178.177 255.464 177.858 255.085 177.623 254.585C177.39 254.082 177.273 253.466 177.273 252.736C177.273 251.986 177.394 251.362 177.635 250.865C177.877 250.365 178.198 249.991 178.599 249.744C179.002 249.494 179.444 249.369 179.924 249.369C180.29 249.369 180.596 249.432 180.84 249.557C181.087 249.679 181.286 249.832 181.437 250.017C181.59 250.199 181.706 250.378 181.786 250.554H181.863V249.455H183.653V258.455H181.841ZM180.503 254.662C180.796 254.662 181.043 254.582 181.245 254.423C181.449 254.261 181.606 254.036 181.714 253.746C181.824 253.456 181.88 253.116 181.88 252.727C181.88 252.338 181.826 252 181.718 251.713C181.61 251.426 181.454 251.205 181.249 251.048C181.045 250.892 180.796 250.814 180.503 250.814C180.205 250.814 179.954 250.895 179.749 251.057C179.545 251.219 179.39 251.443 179.285 251.73C179.18 252.017 179.127 252.349 179.127 252.727C179.127 253.108 179.18 253.445 179.285 253.737C179.393 254.027 179.547 254.254 179.749 254.419C179.954 254.581 180.205 254.662 180.503 254.662ZM189.067 253.213V249.455H190.883V256H189.14V254.811H189.072C188.924 255.195 188.678 255.503 188.334 255.736C187.993 255.969 187.577 256.085 187.086 256.085C186.648 256.085 186.263 255.986 185.931 255.787C185.599 255.588 185.339 255.305 185.151 254.939C184.966 254.572 184.873 254.134 184.87 253.622V249.455H186.685V253.298C186.688 253.685 186.792 253.99 186.996 254.214C187.201 254.439 187.475 254.551 187.819 254.551C188.038 254.551 188.242 254.501 188.432 254.402C188.623 254.3 188.776 254.149 188.893 253.95C189.012 253.751 189.07 253.506 189.067 253.213ZM195.078 256.128C194.404 256.128 193.825 255.991 193.339 255.719C192.856 255.443 192.484 255.054 192.223 254.551C191.961 254.045 191.831 253.447 191.831 252.757C191.831 252.084 191.961 251.493 192.223 250.984C192.484 250.476 192.852 250.08 193.326 249.795C193.804 249.511 194.363 249.369 195.005 249.369C195.437 249.369 195.839 249.439 196.211 249.578C196.586 249.714 196.913 249.92 197.191 250.196C197.473 250.472 197.691 250.818 197.848 251.236C198.004 251.651 198.082 252.136 198.082 252.693V253.192H192.555V252.067H196.373C196.373 251.805 196.316 251.574 196.203 251.372C196.089 251.17 195.931 251.013 195.73 250.899C195.531 250.783 195.299 250.724 195.035 250.724C194.76 250.724 194.515 250.788 194.302 250.916C194.092 251.041 193.927 251.21 193.808 251.423C193.688 251.634 193.627 251.868 193.625 252.126V253.196C193.625 253.52 193.684 253.8 193.804 254.036C193.926 254.271 194.098 254.453 194.319 254.581C194.541 254.709 194.804 254.773 195.108 254.773C195.309 254.773 195.494 254.744 195.662 254.688C195.829 254.631 195.973 254.545 196.092 254.432C196.211 254.318 196.302 254.179 196.365 254.014L198.044 254.125C197.958 254.528 197.784 254.881 197.519 255.182C197.258 255.48 196.92 255.713 196.505 255.881C196.093 256.045 195.617 256.128 195.078 256.128ZM202.01 256.128C201.336 256.128 200.757 255.991 200.271 255.719C199.788 255.443 199.416 255.054 199.154 254.551C198.893 254.045 198.762 253.447 198.762 252.757C198.762 252.084 198.893 251.493 199.154 250.984C199.416 250.476 199.784 250.08 200.258 249.795C200.735 249.511 201.295 249.369 201.937 249.369C202.369 249.369 202.771 249.439 203.143 249.578C203.518 249.714 203.845 249.92 204.123 250.196C204.404 250.472 204.623 250.818 204.779 251.236C204.936 251.651 205.014 252.136 205.014 252.693V253.192H199.487V252.067H203.305C203.305 251.805 203.248 251.574 203.135 251.372C203.021 251.17 202.863 251.013 202.662 250.899C202.463 250.783 202.231 250.724 201.967 250.724C201.691 250.724 201.447 250.788 201.234 250.916C201.024 251.041 200.859 251.21 200.74 251.423C200.62 251.634 200.559 251.868 200.556 252.126V253.196C200.556 253.52 200.616 253.8 200.735 254.036C200.858 254.271 201.029 254.453 201.251 254.581C201.473 254.709 201.735 254.773 202.039 254.773C202.241 254.773 202.426 254.744 202.593 254.688C202.761 254.631 202.904 254.545 203.024 254.432C203.143 254.318 203.234 254.179 203.297 254.014L204.975 254.125C204.89 254.528 204.716 254.881 204.451 255.182C204.19 255.48 203.852 255.713 203.437 255.881C203.025 256.045 202.549 256.128 202.01 256.128ZM211.453 256.128C210.783 256.128 210.206 255.986 209.723 255.702C209.243 255.415 208.874 255.017 208.615 254.509C208.359 254 208.232 253.415 208.232 252.753C208.232 252.082 208.361 251.494 208.619 250.989C208.881 250.48 209.252 250.084 209.732 249.8C210.212 249.513 210.783 249.369 211.445 249.369C212.016 249.369 212.516 249.473 212.945 249.68C213.374 249.888 213.713 250.179 213.963 250.554C214.213 250.929 214.351 251.369 214.377 251.875H212.663C212.615 251.548 212.487 251.286 212.28 251.087C212.075 250.885 211.807 250.784 211.475 250.784C211.193 250.784 210.948 250.861 210.737 251.014C210.53 251.165 210.368 251.385 210.252 251.675C210.135 251.964 210.077 252.315 210.077 252.727C210.077 253.145 210.134 253.5 210.247 253.793C210.364 254.085 210.527 254.308 210.737 254.462C210.948 254.615 211.193 254.692 211.475 254.692C211.682 254.692 211.868 254.649 212.033 254.564C212.2 254.479 212.338 254.355 212.446 254.193C212.557 254.028 212.629 253.831 212.663 253.601H214.377C214.348 254.101 214.212 254.541 213.967 254.922C213.726 255.3 213.392 255.595 212.966 255.808C212.54 256.021 212.036 256.128 211.453 256.128ZM218.256 256.128C217.594 256.128 217.022 255.987 216.539 255.706C216.059 255.422 215.688 255.027 215.427 254.521C215.165 254.013 215.035 253.423 215.035 252.753C215.035 252.077 215.165 251.486 215.427 250.98C215.688 250.472 216.059 250.077 216.539 249.795C217.022 249.511 217.594 249.369 218.256 249.369C218.918 249.369 219.489 249.511 219.969 249.795C220.452 250.077 220.824 250.472 221.086 250.98C221.347 251.486 221.478 252.077 221.478 252.753C221.478 253.423 221.347 254.013 221.086 254.521C220.824 255.027 220.452 255.422 219.969 255.706C219.489 255.987 218.918 256.128 218.256 256.128ZM218.265 254.722C218.566 254.722 218.817 254.636 219.019 254.466C219.221 254.293 219.373 254.057 219.475 253.759C219.58 253.46 219.633 253.121 219.633 252.74C219.633 252.359 219.58 252.02 219.475 251.722C219.373 251.423 219.221 251.187 219.019 251.014C218.817 250.841 218.566 250.754 218.265 250.754C217.961 250.754 217.705 250.841 217.498 251.014C217.293 251.187 217.138 251.423 217.033 251.722C216.931 252.02 216.88 252.359 216.88 252.74C216.88 253.121 216.931 253.46 217.033 253.759C217.138 254.057 217.293 254.293 217.498 254.466C217.705 254.636 217.961 254.722 218.265 254.722ZM224.234 252.216V256H222.418V249.455H224.148V250.609H224.225C224.37 250.229 224.613 249.928 224.954 249.706C225.295 249.482 225.708 249.369 226.194 249.369C226.648 249.369 227.045 249.469 227.383 249.668C227.721 249.866 227.984 250.151 228.171 250.52C228.359 250.886 228.452 251.324 228.452 251.832V256H226.637V252.156C226.64 251.756 226.537 251.443 226.33 251.219C226.123 250.991 225.837 250.878 225.474 250.878C225.229 250.878 225.013 250.93 224.826 251.036C224.641 251.141 224.496 251.294 224.391 251.496C224.289 251.695 224.236 251.935 224.234 252.216ZM233.125 249.455V250.818H229.183V249.455H233.125ZM230.078 247.886H231.893V253.989C231.893 254.156 231.919 254.287 231.97 254.381C232.021 254.472 232.092 254.536 232.183 254.572C232.277 254.609 232.385 254.628 232.507 254.628C232.592 254.628 232.677 254.621 232.762 254.607C232.848 254.589 232.913 254.577 232.958 254.568L233.244 255.919C233.153 255.947 233.025 255.98 232.86 256.017C232.696 256.057 232.495 256.081 232.26 256.089C231.822 256.107 231.438 256.048 231.109 255.915C230.782 255.781 230.528 255.574 230.346 255.293C230.164 255.011 230.075 254.656 230.078 254.227V247.886ZM235.934 256.124C235.516 256.124 235.144 256.051 234.817 255.906C234.49 255.759 234.232 255.541 234.042 255.254C233.854 254.964 233.76 254.604 233.76 254.172C233.76 253.808 233.827 253.503 233.961 253.256C234.094 253.009 234.276 252.81 234.506 252.659C234.736 252.509 234.997 252.395 235.29 252.318C235.586 252.241 235.895 252.188 236.219 252.156C236.6 252.116 236.907 252.08 237.14 252.045C237.372 252.009 237.542 251.955 237.647 251.884C237.752 251.812 237.804 251.707 237.804 251.568V251.543C237.804 251.273 237.719 251.064 237.549 250.916C237.381 250.768 237.142 250.695 236.833 250.695C236.506 250.695 236.246 250.767 236.053 250.912C235.86 251.054 235.732 251.233 235.669 251.449L233.99 251.312C234.076 250.915 234.243 250.571 234.493 250.281C234.743 249.989 235.066 249.764 235.461 249.608C235.858 249.449 236.319 249.369 236.841 249.369C237.205 249.369 237.553 249.412 237.885 249.497C238.221 249.582 238.517 249.714 238.776 249.893C239.037 250.072 239.243 250.303 239.394 250.584C239.544 250.862 239.62 251.196 239.62 251.585V256H237.898V255.092H237.847C237.742 255.297 237.601 255.477 237.425 255.634C237.249 255.787 237.037 255.908 236.79 255.996C236.543 256.081 236.257 256.124 235.934 256.124ZM236.453 254.871C236.721 254.871 236.956 254.818 237.161 254.713C237.365 254.605 237.526 254.46 237.642 254.278C237.759 254.097 237.817 253.891 237.817 253.661V252.966C237.76 253.003 237.682 253.037 237.583 253.068C237.486 253.097 237.377 253.124 237.255 253.149C237.132 253.172 237.01 253.193 236.888 253.213C236.766 253.23 236.655 253.246 236.556 253.26C236.343 253.291 236.157 253.341 235.997 253.409C235.838 253.477 235.715 253.57 235.627 253.686C235.539 253.8 235.495 253.942 235.495 254.112C235.495 254.359 235.584 254.548 235.763 254.679C235.945 254.807 236.175 254.871 236.453 254.871ZM240.788 256V249.455H242.603V256H240.788ZM241.7 248.611C241.43 248.611 241.199 248.521 241.005 248.342C240.815 248.161 240.72 247.943 240.72 247.69C240.72 247.44 240.815 247.226 241.005 247.047C241.199 246.865 241.43 246.774 241.7 246.774C241.97 246.774 242.2 246.865 242.39 247.047C242.583 247.226 242.68 247.44 242.68 247.69C242.68 247.943 242.583 248.161 242.39 248.342C242.2 248.521 241.97 248.611 241.7 248.611ZM245.633 252.216V256H243.818V249.455H245.548V250.609H245.624C245.769 250.229 246.012 249.928 246.353 249.706C246.694 249.482 247.107 249.369 247.593 249.369C248.048 249.369 248.444 249.469 248.782 249.668C249.12 249.866 249.383 250.151 249.57 250.52C249.758 250.886 249.852 251.324 249.852 251.832V256H248.036V252.156C248.039 251.756 247.937 251.443 247.729 251.219C247.522 250.991 247.237 250.878 246.873 250.878C246.629 250.878 246.413 250.93 246.225 251.036C246.041 251.141 245.896 251.294 245.791 251.496C245.688 251.695 245.636 251.935 245.633 252.216ZM254.025 256.128C253.352 256.128 252.773 255.991 252.287 255.719C251.804 255.443 251.432 255.054 251.17 254.551C250.909 254.045 250.778 253.447 250.778 252.757C250.778 252.084 250.909 251.493 251.17 250.984C251.432 250.476 251.8 250.08 252.274 249.795C252.751 249.511 253.311 249.369 253.953 249.369C254.385 249.369 254.787 249.439 255.159 249.578C255.534 249.714 255.861 249.92 256.139 250.196C256.42 250.472 256.639 250.818 256.795 251.236C256.951 251.651 257.03 252.136 257.03 252.693V253.192H251.503V252.067H255.321C255.321 251.805 255.264 251.574 255.15 251.372C255.037 251.17 254.879 251.013 254.677 250.899C254.478 250.783 254.247 250.724 253.983 250.724C253.707 250.724 253.463 250.788 253.25 250.916C253.04 251.041 252.875 251.21 252.755 251.423C252.636 251.634 252.575 251.868 252.572 252.126V253.196C252.572 253.52 252.632 253.8 252.751 254.036C252.873 254.271 253.045 254.453 253.267 254.581C253.488 254.709 253.751 254.773 254.055 254.773C254.257 254.773 254.442 254.744 254.609 254.688C254.777 254.631 254.92 254.545 255.04 254.432C255.159 254.318 255.25 254.179 255.312 254.014L256.991 254.125C256.906 254.528 256.731 254.881 256.467 255.182C256.206 255.48 255.868 255.713 255.453 255.881C255.041 256.045 254.565 256.128 254.025 256.128ZM257.974 256V249.455H259.734V250.597H259.802C259.922 250.19 260.122 249.884 260.403 249.676C260.685 249.466 261.008 249.361 261.375 249.361C261.466 249.361 261.564 249.366 261.669 249.378C261.774 249.389 261.866 249.405 261.946 249.425V251.036C261.861 251.01 261.743 250.987 261.592 250.967C261.442 250.947 261.304 250.938 261.179 250.938C260.912 250.938 260.673 250.996 260.463 251.112C260.256 251.226 260.091 251.385 259.969 251.589C259.849 251.794 259.79 252.03 259.79 252.297V256H257.974Z" fill="#32CF2F"/>
<path d="M159.498 207.455V208.818H155.557V207.455H159.498ZM156.452 205.886H158.267V211.989C158.267 212.156 158.292 212.287 158.344 212.381C158.395 212.472 158.466 212.536 158.557 212.572C158.65 212.609 158.758 212.628 158.881 212.628C158.966 212.628 159.051 212.621 159.136 212.607C159.221 212.589 159.287 212.577 159.332 212.568L159.618 213.919C159.527 213.947 159.399 213.98 159.234 214.017C159.069 214.057 158.869 214.081 158.633 214.089C158.196 214.107 157.812 214.048 157.483 213.915C157.156 213.781 156.902 213.574 156.72 213.293C156.538 213.011 156.449 212.656 156.452 212.227V205.886ZM160.441 214V207.455H162.201V208.597H162.269C162.388 208.19 162.589 207.884 162.87 207.676C163.151 207.466 163.475 207.361 163.842 207.361C163.932 207.361 164.03 207.366 164.136 207.378C164.241 207.389 164.333 207.405 164.413 207.425V209.036C164.327 209.01 164.209 208.987 164.059 208.967C163.908 208.947 163.771 208.938 163.646 208.938C163.378 208.938 163.14 208.996 162.93 209.112C162.722 209.226 162.557 209.385 162.435 209.589C162.316 209.794 162.256 210.03 162.256 210.297V214H160.441ZM166.79 214.124C166.373 214.124 166 214.051 165.674 213.906C165.347 213.759 165.088 213.541 164.898 213.254C164.711 212.964 164.617 212.604 164.617 212.172C164.617 211.808 164.684 211.503 164.817 211.256C164.951 211.009 165.132 210.81 165.363 210.659C165.593 210.509 165.854 210.395 166.147 210.318C166.442 210.241 166.752 210.188 167.076 210.156C167.456 210.116 167.763 210.08 167.996 210.045C168.229 210.009 168.398 209.955 168.503 209.884C168.608 209.812 168.661 209.707 168.661 209.568V209.543C168.661 209.273 168.576 209.064 168.405 208.916C168.238 208.768 167.999 208.695 167.689 208.695C167.363 208.695 167.103 208.767 166.909 208.912C166.716 209.054 166.588 209.233 166.526 209.449L164.847 209.312C164.932 208.915 165.1 208.571 165.35 208.281C165.6 207.989 165.922 207.764 166.317 207.608C166.715 207.449 167.175 207.369 167.698 207.369C168.061 207.369 168.409 207.412 168.742 207.497C169.077 207.582 169.374 207.714 169.632 207.893C169.894 208.072 170.1 208.303 170.25 208.584C170.401 208.862 170.476 209.196 170.476 209.585V214H168.755V213.092H168.703C168.598 213.297 168.458 213.477 168.282 213.634C168.105 213.787 167.894 213.908 167.647 213.996C167.4 214.081 167.114 214.124 166.79 214.124ZM167.31 212.871C167.577 212.871 167.813 212.818 168.017 212.713C168.222 212.605 168.382 212.46 168.499 212.278C168.615 212.097 168.674 211.891 168.674 211.661V210.966C168.617 211.003 168.539 211.037 168.439 211.068C168.343 211.097 168.233 211.124 168.111 211.149C167.989 211.172 167.867 211.193 167.745 211.213C167.623 211.23 167.512 211.246 167.412 211.26C167.199 211.291 167.013 211.341 166.854 211.409C166.695 211.477 166.571 211.57 166.483 211.686C166.395 211.8 166.351 211.942 166.351 212.112C166.351 212.359 166.441 212.548 166.62 212.679C166.801 212.807 167.032 212.871 167.31 212.871ZM174.602 214.128C173.932 214.128 173.355 213.986 172.872 213.702C172.392 213.415 172.022 213.017 171.764 212.509C171.508 212 171.38 211.415 171.38 210.753C171.38 210.082 171.51 209.494 171.768 208.989C172.03 208.48 172.4 208.084 172.88 207.8C173.36 207.513 173.932 207.369 174.593 207.369C175.164 207.369 175.664 207.473 176.093 207.68C176.522 207.888 176.862 208.179 177.112 208.554C177.362 208.929 177.5 209.369 177.525 209.875H175.812C175.764 209.548 175.636 209.286 175.429 209.087C175.224 208.885 174.956 208.784 174.623 208.784C174.342 208.784 174.096 208.861 173.886 209.014C173.679 209.165 173.517 209.385 173.4 209.675C173.284 209.964 173.226 210.315 173.226 210.727C173.226 211.145 173.282 211.5 173.396 211.793C173.512 212.085 173.676 212.308 173.886 212.462C174.096 212.615 174.342 212.692 174.623 212.692C174.831 212.692 175.017 212.649 175.182 212.564C175.349 212.479 175.487 212.355 175.595 212.193C175.706 212.028 175.778 211.831 175.812 211.601H177.525C177.497 212.101 177.36 212.541 177.116 212.922C176.875 213.3 176.541 213.595 176.115 213.808C175.689 214.021 175.184 214.128 174.602 214.128ZM180.092 212.116L180.097 209.939H180.361L182.458 207.455H184.541L181.725 210.744H181.294L180.092 212.116ZM178.448 214V205.273H180.263V214H178.448ZM182.538 214L180.612 211.149L181.823 209.866L184.665 214H182.538Z" fill="#ED56C2"/>
<path d="M48.5775 51.321L46.9156 51.4233C46.8871 51.2812 46.8261 51.1534 46.7323 51.0398C46.6386 50.9233 46.515 50.831 46.3616 50.7628C46.211 50.6918 46.0306 50.6562 45.8204 50.6562C45.5391 50.6562 45.3019 50.7159 45.1087 50.8352C44.9156 50.9517 44.819 51.108 44.819 51.304C44.819 51.4602 44.8815 51.5923 45.0065 51.7003C45.1315 51.8082 45.346 51.8949 45.6499 51.9602L46.8346 52.1989C47.471 52.3295 47.9454 52.5398 48.2579 52.8295C48.5704 53.1193 48.7266 53.5 48.7266 53.9716C48.7266 54.4006 48.6002 54.777 48.3474 55.1009C48.0974 55.4247 47.7536 55.6776 47.3161 55.8594C46.8815 56.0384 46.38 56.1278 45.8119 56.1278C44.9454 56.1278 44.255 55.9474 43.7408 55.5866C43.2295 55.223 42.9298 54.7287 42.8417 54.1037L44.6272 54.0099C44.6812 54.2741 44.8119 54.4759 45.0192 54.6151C45.2266 54.7514 45.4923 54.8196 45.8161 54.8196C46.1343 54.8196 46.39 54.7585 46.5832 54.6364C46.7792 54.5114 46.8786 54.3509 46.8815 54.1548C46.8786 53.9901 46.809 53.8551 46.6727 53.75C46.5363 53.642 46.3261 53.5597 46.042 53.5028L44.9085 53.277C44.2692 53.1491 43.7934 52.9276 43.4809 52.6122C43.1712 52.2969 43.0164 51.8949 43.0164 51.4062C43.0164 50.9858 43.13 50.6236 43.3573 50.3196C43.5874 50.0156 43.9099 49.7812 44.3246 49.6165C44.7423 49.4517 45.2309 49.3693 45.7906 49.3693C46.6173 49.3693 47.2678 49.544 47.7423 49.8935C48.2195 50.2429 48.4979 50.7187 48.5775 51.321ZM53.8272 53.2131V49.4545H55.6425V56H53.8996V54.8111H53.8314C53.6837 55.1946 53.438 55.5028 53.0942 55.7358C52.7533 55.9687 52.3371 56.0852 51.8457 56.0852C51.4082 56.0852 51.0232 55.9858 50.6908 55.7869C50.3584 55.5881 50.0985 55.3054 49.911 54.9389C49.7263 54.5724 49.6326 54.1335 49.6297 53.6222V49.4545H51.4451V53.2983C51.4479 53.6847 51.5516 53.9901 51.7562 54.2145C51.9607 54.4389 52.2349 54.5511 52.5786 54.5511C52.7974 54.5511 53.0019 54.5014 53.1922 54.402C53.3826 54.2997 53.536 54.1491 53.6525 53.9503C53.7718 53.7514 53.83 53.5057 53.8272 53.2131ZM56.8887 56V47.2727H58.704V50.554H58.7594C58.839 50.3778 58.954 50.1989 59.1046 50.017C59.258 49.8324 59.4569 49.679 59.7012 49.5568C59.9483 49.4318 60.2552 49.3693 60.6216 49.3693C61.0989 49.3693 61.5392 49.4943 61.9427 49.7443C62.3461 49.9915 62.6685 50.3651 62.91 50.8651C63.1515 51.3622 63.2722 51.9858 63.2722 52.7358C63.2722 53.4659 63.1543 54.0824 62.9185 54.5852C62.6856 55.0852 62.3674 55.4645 61.964 55.723C61.5634 55.9787 61.1145 56.1065 60.6174 56.1065C60.2651 56.1065 59.9654 56.0483 59.7182 55.9318C59.4739 55.8153 59.2736 55.669 59.1174 55.4929C58.9611 55.3139 58.8418 55.1335 58.7594 54.9517H58.6785V56H56.8887ZM58.6657 52.7273C58.6657 53.1165 58.7196 53.456 58.8276 53.7457C58.9356 54.0355 59.0918 54.2614 59.2964 54.4233C59.5009 54.5824 59.7495 54.6619 60.0421 54.6619C60.3375 54.6619 60.5875 54.581 60.7921 54.419C60.9966 54.2543 61.1515 54.027 61.2566 53.7372C61.3645 53.4446 61.4185 53.108 61.4185 52.7273C61.4185 52.3494 61.366 52.017 61.2608 51.7301C61.1557 51.4432 61.0009 51.2187 60.7964 51.0568C60.5918 50.8949 60.3404 50.8139 60.0421 50.8139C59.7466 50.8139 59.4966 50.892 59.2921 51.0483C59.0904 51.2045 58.9356 51.4261 58.8276 51.7131C58.7196 52 58.6657 52.3381 58.6657 52.7273ZM68.3216 51.696V53.1364H64.3415V51.696H68.3216ZM73.11 49.4545V50.8182H69.1683V49.4545H73.11ZM70.0632 47.8864H71.8785V53.9886C71.8785 54.1562 71.9041 54.2869 71.9552 54.3807C72.0063 54.4716 72.0774 54.5355 72.1683 54.5724C72.262 54.6094 72.37 54.6278 72.4921 54.6278C72.5774 54.6278 72.6626 54.6207 72.7478 54.6065C72.833 54.5895 72.8984 54.5767 72.9438 54.5682L73.2293 55.919C73.1384 55.9474 73.0106 55.9801 72.8458 56.017C72.6811 56.0568 72.4808 56.081 72.245 56.0895C71.8075 56.1065 71.424 56.0483 71.0944 55.9148C70.7677 55.7812 70.5134 55.5739 70.3316 55.2926C70.1498 55.0114 70.0603 54.6562 70.0632 54.2273V47.8864ZM74.0526 56V49.4545H75.8125V50.5966H75.8807C76 50.1903 76.2003 49.8835 76.4815 49.6761C76.7628 49.4659 77.0866 49.3608 77.4531 49.3608C77.544 49.3608 77.642 49.3665 77.7472 49.3778C77.8523 49.3892 77.9446 49.4048 78.0241 49.4247V51.0355C77.9389 51.0099 77.821 50.9872 77.6705 50.9673C77.5199 50.9474 77.3821 50.9375 77.2571 50.9375C76.9901 50.9375 76.7514 50.9957 76.5412 51.1122C76.3338 51.2259 76.169 51.3849 76.0469 51.5895C75.9276 51.794 75.8679 52.0298 75.8679 52.2969V56H74.0526ZM80.4017 56.1236C79.9841 56.1236 79.6119 56.0511 79.2852 55.9062C78.9585 55.7585 78.7 55.5412 78.5096 55.2543C78.3221 54.9645 78.2284 54.6037 78.2284 54.1719C78.2284 53.8082 78.2952 53.5028 78.4287 53.2557C78.5622 53.0085 78.744 52.8097 78.9741 52.6591C79.2042 52.5085 79.4656 52.3949 79.7582 52.3182C80.0537 52.2415 80.3633 52.1875 80.6872 52.1562C81.0679 52.1165 81.3747 52.0795 81.6077 52.0455C81.8406 52.0085 82.0096 51.9545 82.1148 51.8835C82.2199 51.8125 82.2724 51.7074 82.2724 51.5682V51.5426C82.2724 51.2727 82.1872 51.0639 82.0167 50.9162C81.8491 50.7685 81.6105 50.6946 81.3008 50.6946C80.9741 50.6946 80.7142 50.767 80.521 50.9119C80.3278 51.054 80.2 51.233 80.1375 51.4489L78.4585 51.3125C78.5437 50.9148 78.7114 50.571 78.9614 50.2812C79.2114 49.9886 79.5338 49.7642 79.9287 49.608C80.3264 49.4489 80.7866 49.3693 81.3094 49.3693C81.673 49.3693 82.021 49.4119 82.3534 49.4972C82.6886 49.5824 82.9855 49.7145 83.244 49.8935C83.5054 50.0724 83.7114 50.3026 83.8619 50.5838C84.0125 50.8622 84.0878 51.196 84.0878 51.5852V56H82.3662V55.0923H82.315C82.2099 55.2969 82.0693 55.4773 81.8932 55.6335C81.717 55.7869 81.5054 55.9077 81.2582 55.9957C81.0111 56.081 80.7256 56.1236 80.4017 56.1236ZM80.9216 54.8707C81.1886 54.8707 81.4244 54.8182 81.629 54.7131C81.8335 54.6051 81.994 54.4602 82.1105 54.2784C82.227 54.0966 82.2852 53.8906 82.2852 53.6605V52.9659C82.2284 53.0028 82.1503 53.0369 82.0508 53.0682C81.9542 53.0966 81.8449 53.1236 81.7227 53.1491C81.6006 53.1719 81.4784 53.1932 81.3562 53.2131C81.2341 53.2301 81.1233 53.2457 81.0239 53.2599C80.8108 53.2912 80.6247 53.3409 80.4656 53.4091C80.3065 53.4773 80.1829 53.5696 80.0949 53.6861C80.0068 53.7997 79.9628 53.9418 79.9628 54.1122C79.9628 54.3594 80.0523 54.5483 80.2312 54.679C80.4131 54.8068 80.6432 54.8707 80.9216 54.8707ZM88.2135 56.1278C87.5431 56.1278 86.9664 55.9858 86.4834 55.7017C86.0033 55.4148 85.634 55.017 85.3755 54.5085C85.1198 54 84.9919 53.4148 84.9919 52.7528C84.9919 52.0824 85.1212 51.4943 85.3797 50.9886C85.6411 50.4801 86.0118 50.0838 86.4919 49.7997C86.9721 49.5128 87.5431 49.3693 88.205 49.3693C88.776 49.3693 89.276 49.473 89.705 49.6804C90.134 49.8878 90.4735 50.179 90.7235 50.554C90.9735 50.929 91.1113 51.3693 91.1368 51.875H89.4238C89.3755 51.5483 89.2476 51.2855 89.0402 51.0866C88.8357 50.8849 88.5672 50.7841 88.2348 50.7841C87.9536 50.7841 87.7079 50.8608 87.4976 51.0142C87.2902 51.1648 87.1283 51.3849 87.0118 51.6747C86.8954 51.9645 86.8371 52.3153 86.8371 52.7273C86.8371 53.1449 86.8939 53.5 87.0076 53.7926C87.124 54.0852 87.2874 54.3082 87.4976 54.4616C87.7079 54.6151 87.9536 54.6918 88.2348 54.6918C88.4422 54.6918 88.6283 54.6491 88.7931 54.5639C88.9607 54.4787 89.0985 54.3551 89.2064 54.1932C89.3172 54.0284 89.3897 53.831 89.4238 53.6009H91.1368C91.1084 54.1009 90.9721 54.5412 90.7277 54.9219C90.4863 55.2997 90.1525 55.5952 89.7263 55.8082C89.3002 56.0213 88.7959 56.1278 88.2135 56.1278ZM93.704 54.1165L93.7083 51.9389H93.9725L96.0691 49.4545H98.1529L95.3361 52.7443H94.9057L93.704 54.1165ZM92.0591 56V47.2727H93.8745V56H92.0591ZM96.15 56L94.2239 53.1491L95.4341 51.8665L98.2765 56H96.15ZM102.879 56H100.902L103.915 47.2727H106.293L109.301 56H107.324L105.138 49.267H105.07L102.879 56ZM102.756 52.5696H107.426V54.0099H102.756V52.5696Z" fill="#8E1DD8"/>
<rect x="166" y="35" width="90" height="33.3333" stroke="#8E1DD8" stroke-width="2"/>
<path d="M198.802 56V49.4545H200.886V56H198.802ZM199.846 48.6918C199.553 48.6918 199.302 48.5952 199.092 48.402C198.881 48.206 198.776 47.9702 198.776 47.6946C198.776 47.4219 198.881 47.1889 199.092 46.9957C199.302 46.7997 199.553 46.7017 199.846 46.7017C200.141 46.7017 200.393 46.7997 200.6 46.9957C200.81 47.1889 200.915 47.4219 200.915 47.6946C200.915 47.9702 200.81 48.206 200.6 48.402C200.393 48.5952 200.141 48.6918 199.846 48.6918ZM205.667 49.4545V50.9886H201.537V49.4545H205.667ZM202.402 47.8864H204.486V53.9418C204.486 54.0696 204.506 54.1733 204.546 54.2528C204.588 54.3295 204.649 54.3849 204.729 54.419C204.809 54.4503 204.904 54.4659 205.015 54.4659C205.094 54.4659 205.178 54.4588 205.266 54.4446C205.357 54.4276 205.425 54.4134 205.47 54.402L205.786 55.9062C205.686 55.9347 205.546 55.9702 205.364 56.0128C205.185 56.0554 204.97 56.0824 204.72 56.0938C204.232 56.1165 203.813 56.0597 203.463 55.9233C203.117 55.7841 202.851 55.5682 202.667 55.2756C202.485 54.983 202.397 54.6151 202.402 54.1719V47.8864ZM209.479 56.1236C208.794 56.1236 208.204 55.9886 207.706 55.7188C207.212 55.446 206.831 55.0582 206.564 54.5554C206.3 54.0497 206.168 53.4489 206.168 52.7528C206.168 52.0767 206.302 51.4858 206.569 50.9801C206.836 50.4716 207.212 50.0767 207.698 49.7955C208.184 49.5114 208.756 49.3693 209.415 49.3693C209.881 49.3693 210.307 49.4418 210.694 49.5866C211.08 49.7315 211.414 49.946 211.695 50.2301C211.976 50.5142 212.195 50.8651 212.351 51.2827C212.507 51.6974 212.586 52.1733 212.586 52.7102V53.2301H206.897V52.0199H210.647C210.644 51.7983 210.591 51.6009 210.489 51.4276C210.387 51.2543 210.246 51.1193 210.067 51.0227C209.891 50.9233 209.688 50.8736 209.458 50.8736C209.225 50.8736 209.016 50.9261 208.831 51.0312C208.647 51.1335 208.5 51.2741 208.392 51.4531C208.284 51.6293 208.228 51.8295 208.222 52.054V53.2855C208.222 53.5526 208.275 53.7869 208.38 53.9886C208.485 54.1875 208.634 54.3423 208.827 54.4531C209.02 54.5639 209.25 54.6193 209.517 54.6193C209.702 54.6193 209.87 54.5937 210.02 54.5426C210.171 54.4915 210.3 54.4162 210.408 54.3168C210.516 54.2173 210.597 54.0952 210.651 53.9503L212.564 54.0057C212.485 54.4347 212.31 54.8082 212.04 55.1264C211.773 55.4418 211.422 55.6875 210.988 55.8636C210.553 56.0369 210.05 56.1236 209.479 56.1236ZM213.41 56V49.4545H215.391V50.6562H215.464C215.6 50.2585 215.83 49.9446 216.154 49.7145C216.478 49.4844 216.864 49.3693 217.313 49.3693C217.768 49.3693 218.157 49.4858 218.481 49.7188C218.805 49.9517 219.011 50.2642 219.099 50.6562H219.167C219.289 50.267 219.528 49.956 219.883 49.723C220.238 49.4872 220.657 49.3693 221.14 49.3693C221.759 49.3693 222.262 49.5682 222.649 49.9659C223.035 50.3608 223.228 50.9034 223.228 51.5938V56H221.144V52.071C221.144 51.7443 221.06 51.4957 220.893 51.3253C220.725 51.152 220.508 51.0653 220.241 51.0653C219.954 51.0653 219.728 51.1591 219.563 51.3466C219.401 51.5312 219.32 51.7798 219.32 52.0923V56H217.318V52.0497C217.318 51.7457 217.235 51.5057 217.07 51.3295C216.906 51.1534 216.688 51.0653 216.418 51.0653C216.237 51.0653 216.076 51.1094 215.937 51.1974C215.798 51.2827 215.688 51.4048 215.609 51.5639C215.532 51.723 215.494 51.9105 215.494 52.1264V56H213.41Z" fill="#8E1DD8"/>
<rect x="166" y="2" width="90" height="33.3333" stroke="#8E1DD8" stroke-width="2"/>
<path d="M198.802 23V16.4545H200.886V23H198.802ZM199.846 15.6918C199.553 15.6918 199.302 15.5952 199.092 15.402C198.881 15.206 198.776 14.9702 198.776 14.6946C198.776 14.4219 198.881 14.1889 199.092 13.9957C199.302 13.7997 199.553 13.7017 199.846 13.7017C200.141 13.7017 200.393 13.7997 200.6 13.9957C200.81 14.1889 200.915 14.4219 200.915 14.6946C200.915 14.9702 200.81 15.206 200.6 15.402C200.393 15.5952 200.141 15.6918 199.846 15.6918ZM205.667 16.4545V17.9886H201.537V16.4545H205.667ZM202.402 14.8864H204.486V20.9418C204.486 21.0696 204.506 21.1733 204.546 21.2528C204.588 21.3295 204.649 21.3849 204.729 21.419C204.809 21.4503 204.904 21.4659 205.015 21.4659C205.094 21.4659 205.178 21.4588 205.266 21.4446C205.357 21.4276 205.425 21.4134 205.47 21.402L205.786 22.9062C205.686 22.9347 205.546 22.9702 205.364 23.0128C205.185 23.0554 204.97 23.0824 204.72 23.0938C204.232 23.1165 203.813 23.0597 203.463 22.9233C203.117 22.7841 202.851 22.5682 202.667 22.2756C202.485 21.983 202.397 21.6151 202.402 21.1719V14.8864ZM209.479 23.1236C208.794 23.1236 208.204 22.9886 207.706 22.7188C207.212 22.446 206.831 22.0582 206.564 21.5554C206.3 21.0497 206.168 20.4489 206.168 19.7528C206.168 19.0767 206.302 18.4858 206.569 17.9801C206.836 17.4716 207.212 17.0767 207.698 16.7955C208.184 16.5114 208.756 16.3693 209.415 16.3693C209.881 16.3693 210.307 16.4418 210.694 16.5866C211.08 16.7315 211.414 16.946 211.695 17.2301C211.976 17.5142 212.195 17.8651 212.351 18.2827C212.507 18.6974 212.586 19.1733 212.586 19.7102V20.2301H206.897V19.0199H210.647C210.644 18.7983 210.591 18.6009 210.489 18.4276C210.387 18.2543 210.246 18.1193 210.067 18.0227C209.891 17.9233 209.688 17.8736 209.458 17.8736C209.225 17.8736 209.016 17.9261 208.831 18.0312C208.647 18.1335 208.5 18.2741 208.392 18.4531C208.284 18.6293 208.228 18.8295 208.222 19.054V20.2855C208.222 20.5526 208.275 20.7869 208.38 20.9886C208.485 21.1875 208.634 21.3423 208.827 21.4531C209.02 21.5639 209.25 21.6193 209.517 21.6193C209.702 21.6193 209.87 21.5937 210.02 21.5426C210.171 21.4915 210.3 21.4162 210.408 21.3168C210.516 21.2173 210.597 21.0952 210.651 20.9503L212.564 21.0057C212.485 21.4347 212.31 21.8082 212.04 22.1264C211.773 22.4418 211.422 22.6875 210.988 22.8636C210.553 23.0369 210.05 23.1236 209.479 23.1236ZM213.41 23V16.4545H215.391V17.6562H215.464C215.6 17.2585 215.83 16.9446 216.154 16.7145C216.478 16.4844 216.864 16.3693 217.313 16.3693C217.768 16.3693 218.157 16.4858 218.481 16.7188C218.805 16.9517 219.011 17.2642 219.099 17.6562H219.167C219.289 17.267 219.528 16.956 219.883 16.723C220.238 16.4872 220.657 16.3693 221.14 16.3693C221.759 16.3693 222.262 16.5682 222.649 16.9659C223.035 17.3608 223.228 17.9034 223.228 18.5938V23H221.144V19.071C221.144 18.7443 221.06 18.4957 220.893 18.3253C220.725 18.152 220.508 18.0653 220.241 18.0653C219.954 18.0653 219.728 18.1591 219.563 18.3466C219.401 18.5312 219.32 18.7798 219.32 19.0923V23H217.318V19.0497C217.318 18.7457 217.235 18.5057 217.07 18.3295C216.906 18.1534 216.688 18.0653 216.418 18.0653C216.237 18.0653 216.076 18.1094 215.937 18.1974C215.798 18.2827 215.688 18.4048 215.609 18.5639C215.532 18.723 215.494 18.9105 215.494 19.1264V23H213.41Z" fill="#8E1DD8"/>
<rect x="166" y="68" width="90" height="33.3333" stroke="#8E1DD8" stroke-width="2"/>
<path d="M198.802 88V81.4545H200.886V88H198.802ZM199.846 80.6918C199.553 80.6918 199.302 80.5952 199.092 80.402C198.881 80.206 198.776 79.9702 198.776 79.6946C198.776 79.4219 198.881 79.1889 199.092 78.9957C199.302 78.7997 199.553 78.7017 199.846 78.7017C200.141 78.7017 200.393 78.7997 200.6 78.9957C200.81 79.1889 200.915 79.4219 200.915 79.6946C200.915 79.9702 200.81 80.206 200.6 80.402C200.393 80.5952 200.141 80.6918 199.846 80.6918ZM205.667 81.4545V82.9886H201.537V81.4545H205.667ZM202.402 79.8864H204.486V85.9418C204.486 86.0696 204.506 86.1733 204.546 86.2528C204.588 86.3295 204.649 86.3849 204.729 86.419C204.809 86.4503 204.904 86.4659 205.015 86.4659C205.094 86.4659 205.178 86.4588 205.266 86.4446C205.357 86.4276 205.425 86.4134 205.47 86.402L205.786 87.9062C205.686 87.9347 205.546 87.9702 205.364 88.0128C205.185 88.0554 204.97 88.0824 204.72 88.0938C204.232 88.1165 203.813 88.0597 203.463 87.9233C203.117 87.7841 202.851 87.5682 202.667 87.2756C202.485 86.983 202.397 86.6151 202.402 86.1719V79.8864ZM209.479 88.1236C208.794 88.1236 208.204 87.9886 207.706 87.7188C207.212 87.446 206.831 87.0582 206.564 86.5554C206.3 86.0497 206.168 85.4489 206.168 84.7528C206.168 84.0767 206.302 83.4858 206.569 82.9801C206.836 82.4716 207.212 82.0767 207.698 81.7955C208.184 81.5114 208.756 81.3693 209.415 81.3693C209.881 81.3693 210.307 81.4418 210.694 81.5866C211.08 81.7315 211.414 81.946 211.695 82.2301C211.976 82.5142 212.195 82.8651 212.351 83.2827C212.507 83.6974 212.586 84.1733 212.586 84.7102V85.2301H206.897V84.0199H210.647C210.644 83.7983 210.591 83.6009 210.489 83.4276C210.387 83.2543 210.246 83.1193 210.067 83.0227C209.891 82.9233 209.688 82.8736 209.458 82.8736C209.225 82.8736 209.016 82.9261 208.831 83.0312C208.647 83.1335 208.5 83.2741 208.392 83.4531C208.284 83.6293 208.228 83.8295 208.222 84.054V85.2855C208.222 85.5526 208.275 85.7869 208.38 85.9886C208.485 86.1875 208.634 86.3423 208.827 86.4531C209.02 86.5639 209.25 86.6193 209.517 86.6193C209.702 86.6193 209.87 86.5937 210.02 86.5426C210.171 86.4915 210.3 86.4162 210.408 86.3168C210.516 86.2173 210.597 86.0952 210.651 85.9503L212.564 86.0057C212.485 86.4347 212.31 86.8082 212.04 87.1264C211.773 87.4418 211.422 87.6875 210.988 87.8636C210.553 88.0369 210.05 88.1236 209.479 88.1236ZM213.41 88V81.4545H215.391V82.6562H215.464C215.6 82.2585 215.83 81.9446 216.154 81.7145C216.478 81.4844 216.864 81.3693 217.313 81.3693C217.768 81.3693 218.157 81.4858 218.481 81.7188C218.805 81.9517 219.011 82.2642 219.099 82.6562H219.167C219.289 82.267 219.528 81.956 219.883 81.723C220.238 81.4872 220.657 81.3693 221.14 81.3693C221.759 81.3693 222.262 81.5682 222.649 81.9659C223.035 82.3608 223.228 82.9034 223.228 83.5938V88H221.144V84.071C221.144 83.7443 221.06 83.4957 220.893 83.3253C220.725 83.152 220.508 83.0653 220.241 83.0653C219.954 83.0653 219.728 83.1591 219.563 83.3466C219.401 83.5312 219.32 83.7798 219.32 84.0923V88H217.318V84.0497C217.318 83.7457 217.235 83.5057 217.07 83.3295C216.906 83.1534 216.688 83.0653 216.418 83.0653C216.237 83.0653 216.076 83.1094 215.937 83.1974C215.798 83.2827 215.688 83.4048 215.609 83.5639C215.532 83.723 215.494 83.9105 215.494 84.1264V88H213.41Z" fill="#8E1DD8"/>
<path d="M50.599 151.321L48.937 151.423C48.9086 151.281 48.8476 151.153 48.7538 151.04C48.6601 150.923 48.5365 150.831 48.3831 150.763C48.2325 150.692 48.0521 150.656 47.8419 150.656C47.5606 150.656 47.3234 150.716 47.1302 150.835C46.937 150.952 46.8404 151.108 46.8404 151.304C46.8404 151.46 46.9029 151.592 47.0279 151.7C47.1529 151.808 47.3674 151.895 47.6714 151.96L48.8561 152.199C49.4924 152.33 49.9669 152.54 50.2794 152.83C50.5919 153.119 50.7481 153.5 50.7481 153.972C50.7481 154.401 50.6217 154.777 50.3689 155.101C50.1189 155.425 49.7751 155.678 49.3376 155.859C48.9029 156.038 48.4015 156.128 47.8333 156.128C46.9669 156.128 46.2765 155.947 45.7623 155.587C45.251 155.223 44.9512 154.729 44.8632 154.104L46.6487 154.01C46.7027 154.274 46.8333 154.476 47.0407 154.615C47.2481 154.751 47.5137 154.82 47.8376 154.82C48.1558 154.82 48.4115 154.759 48.6047 154.636C48.8007 154.511 48.9001 154.351 48.9029 154.155C48.9001 153.99 48.8305 153.855 48.6941 153.75C48.5578 153.642 48.3476 153.56 48.0635 153.503L46.9299 153.277C46.2907 153.149 45.8149 152.928 45.5024 152.612C45.1927 152.297 45.0379 151.895 45.0379 151.406C45.0379 150.986 45.1515 150.624 45.3788 150.32C45.6089 150.016 45.9314 149.781 46.3461 149.616C46.7637 149.452 47.2524 149.369 47.812 149.369C48.6387 149.369 49.2893 149.544 49.7637 149.893C50.241 150.243 50.5194 150.719 50.599 151.321ZM55.8487 153.213V149.455H57.664V156H55.9211V154.811H55.8529C55.7052 155.195 55.4595 155.503 55.1157 155.736C54.7748 155.969 54.3586 156.085 53.8671 156.085C53.4296 156.085 53.0447 155.986 52.7123 155.787C52.3799 155.588 52.12 155.305 51.9325 154.939C51.7478 154.572 51.6541 154.134 51.6512 153.622V149.455H53.4666V153.298C53.4694 153.685 53.5731 153.99 53.7777 154.214C53.9822 154.439 54.2563 154.551 54.6001 154.551C54.8188 154.551 55.0234 154.501 55.2137 154.402C55.4041 154.3 55.5575 154.149 55.674 153.95C55.7933 153.751 55.8515 153.506 55.8487 153.213ZM58.9102 156V147.273H60.7255V150.554H60.7809C60.8604 150.378 60.9755 150.199 61.1261 150.017C61.2795 149.832 61.4783 149.679 61.7227 149.557C61.9698 149.432 62.2766 149.369 62.6431 149.369C63.1204 149.369 63.5607 149.494 63.9641 149.744C64.3676 149.991 64.69 150.365 64.9315 150.865C65.1729 151.362 65.2937 151.986 65.2937 152.736C65.2937 153.466 65.1758 154.082 64.94 154.585C64.707 155.085 64.3889 155.464 63.9854 155.723C63.5849 155.979 63.136 156.107 62.6389 156.107C62.2866 156.107 61.9869 156.048 61.7397 155.932C61.4954 155.815 61.2951 155.669 61.1389 155.493C60.9826 155.314 60.8633 155.134 60.7809 154.952H60.6999V156H58.9102ZM60.6872 152.727C60.6872 153.116 60.7411 153.456 60.8491 153.746C60.957 154.036 61.1133 154.261 61.3178 154.423C61.5224 154.582 61.771 154.662 62.0636 154.662C62.359 154.662 62.609 154.581 62.8136 154.419C63.0181 154.254 63.1729 154.027 63.2781 153.737C63.386 153.445 63.44 153.108 63.44 152.727C63.44 152.349 63.3874 152.017 63.2823 151.73C63.1772 151.443 63.0224 151.219 62.8178 151.057C62.6133 150.895 62.3619 150.814 62.0636 150.814C61.7681 150.814 61.5181 150.892 61.3136 151.048C61.1119 151.205 60.957 151.426 60.8491 151.713C60.7411 152 60.6872 152.338 60.6872 152.727ZM70.3431 151.696V153.136H66.363V151.696H70.3431ZM75.1315 149.455V150.818H71.1898V149.455H75.1315ZM72.0846 147.886H73.9V153.989C73.9 154.156 73.9255 154.287 73.9767 154.381C74.0278 154.472 74.0988 154.536 74.1898 154.572C74.2835 154.609 74.3915 154.628 74.5136 154.628C74.5988 154.628 74.6841 154.621 74.7693 154.607C74.8545 154.589 74.9199 154.577 74.9653 154.568L75.2508 155.919C75.1599 155.947 75.0321 155.98 74.8673 156.017C74.7025 156.057 74.5023 156.081 74.2665 156.089C73.829 156.107 73.4454 156.048 73.1159 155.915C72.7892 155.781 72.5349 155.574 72.3531 155.293C72.1713 155.011 72.0818 154.656 72.0846 154.227V147.886ZM76.074 156V149.455H77.834V150.597H77.9022C78.0215 150.19 78.2218 149.884 78.503 149.676C78.7843 149.466 79.1081 149.361 79.4746 149.361C79.5655 149.361 79.6635 149.366 79.7686 149.378C79.8738 149.389 79.9661 149.405 80.0456 149.425V151.036C79.9604 151.01 79.8425 150.987 79.6919 150.967C79.5414 150.947 79.4036 150.938 79.2786 150.938C79.0115 150.938 78.7729 150.996 78.5627 151.112C78.3553 151.226 78.1905 151.385 78.0684 151.589C77.949 151.794 77.8894 152.03 77.8894 152.297V156H76.074ZM82.4232 156.124C82.0056 156.124 81.6334 156.051 81.3067 155.906C80.98 155.759 80.7215 155.541 80.5311 155.254C80.3436 154.964 80.2499 154.604 80.2499 154.172C80.2499 153.808 80.3166 153.503 80.4502 153.256C80.5837 153.009 80.7655 152.81 80.9956 152.659C81.2257 152.509 81.4871 152.395 81.7797 152.318C82.0752 152.241 82.3848 152.188 82.7087 152.156C83.0894 152.116 83.3962 152.08 83.6291 152.045C83.8621 152.009 84.0311 151.955 84.1362 151.884C84.2414 151.812 84.2939 151.707 84.2939 151.568V151.543C84.2939 151.273 84.2087 151.064 84.0382 150.916C83.8706 150.768 83.632 150.695 83.3223 150.695C82.9956 150.695 82.7357 150.767 82.5425 150.912C82.3493 151.054 82.2215 151.233 82.159 151.449L80.48 151.312C80.5652 150.915 80.7328 150.571 80.9828 150.281C81.2328 149.989 81.5553 149.764 81.9502 149.608C82.3479 149.449 82.8081 149.369 83.3308 149.369C83.6945 149.369 84.0425 149.412 84.3749 149.497C84.7101 149.582 85.007 149.714 85.2655 149.893C85.5269 150.072 85.7328 150.303 85.8834 150.584C86.034 150.862 86.1093 151.196 86.1093 151.585V156H84.3877V155.092H84.3365C84.2314 155.297 84.0908 155.477 83.9147 155.634C83.7385 155.787 83.5269 155.908 83.2797 155.996C83.0326 156.081 82.747 156.124 82.4232 156.124ZM82.9431 154.871C83.2101 154.871 83.4459 154.818 83.6504 154.713C83.855 154.605 84.0155 154.46 84.132 154.278C84.2485 154.097 84.3067 153.891 84.3067 153.661V152.966C84.2499 153.003 84.1718 153.037 84.0723 153.068C83.9757 153.097 83.8664 153.124 83.7442 153.149C83.622 153.172 83.4999 153.193 83.3777 153.213C83.2556 153.23 83.1448 153.246 83.0453 153.26C82.8323 153.291 82.6462 153.341 82.4871 153.409C82.328 153.477 82.2044 153.57 82.1164 153.686C82.0283 153.8 81.9843 153.942 81.9843 154.112C81.9843 154.359 82.0737 154.548 82.2527 154.679C82.4345 154.807 82.6647 154.871 82.9431 154.871ZM90.235 156.128C89.5646 156.128 88.9879 155.986 88.5049 155.702C88.0248 155.415 87.6555 155.017 87.397 154.509C87.1413 154 87.0134 153.415 87.0134 152.753C87.0134 152.082 87.1427 151.494 87.4012 150.989C87.6626 150.48 88.0333 150.084 88.5134 149.8C88.9935 149.513 89.5646 149.369 90.2265 149.369C90.7975 149.369 91.2975 149.473 91.7265 149.68C92.1555 149.888 92.495 150.179 92.745 150.554C92.995 150.929 93.1327 151.369 93.1583 151.875H91.4452C91.397 151.548 91.2691 151.286 91.0617 151.087C90.8572 150.885 90.5887 150.784 90.2563 150.784C89.9751 150.784 89.7293 150.861 89.5191 151.014C89.3117 151.165 89.1498 151.385 89.0333 151.675C88.9168 151.964 88.8586 152.315 88.8586 152.727C88.8586 153.145 88.9154 153.5 89.0291 153.793C89.1455 154.085 89.3089 154.308 89.5191 154.462C89.7293 154.615 89.9751 154.692 90.2563 154.692C90.4637 154.692 90.6498 154.649 90.8146 154.564C90.9822 154.479 91.12 154.355 91.2279 154.193C91.3387 154.028 91.4112 153.831 91.4452 153.601H93.1583C93.1299 154.101 92.9935 154.541 92.7492 154.922C92.5077 155.3 92.1739 155.595 91.7478 155.808C91.3217 156.021 90.8174 156.128 90.235 156.128ZM95.7255 154.116L95.7298 151.939H95.994L98.0905 149.455H100.174L97.3576 152.744H96.9272L95.7255 154.116ZM94.0806 156V147.273H95.8959V156H94.0806ZM98.1715 156L96.2454 153.149L97.4556 151.866L100.298 156H98.1715ZM103.396 156V147.273H106.891C107.533 147.273 108.068 147.368 108.497 147.558C108.926 147.749 109.249 148.013 109.465 148.351C109.681 148.686 109.788 149.072 109.788 149.51C109.788 149.851 109.72 150.151 109.584 150.409C109.448 150.665 109.26 150.875 109.021 151.04C108.786 151.202 108.516 151.317 108.212 151.385V151.47C108.544 151.484 108.855 151.578 109.145 151.751C109.438 151.925 109.675 152.168 109.857 152.48C110.038 152.79 110.129 153.159 110.129 153.588C110.129 154.051 110.014 154.464 109.784 154.828C109.557 155.189 109.22 155.474 108.774 155.685C108.328 155.895 107.779 156 107.125 156H103.396ZM105.242 154.491H106.746C107.26 154.491 107.635 154.393 107.871 154.197C108.107 153.999 108.225 153.734 108.225 153.405C108.225 153.163 108.166 152.95 108.05 152.766C107.933 152.581 107.767 152.436 107.551 152.331C107.338 152.226 107.084 152.173 106.788 152.173H105.242V154.491ZM105.242 150.925H106.609C106.862 150.925 107.087 150.881 107.283 150.793C107.482 150.702 107.638 150.574 107.752 150.409C107.868 150.244 107.926 150.047 107.926 149.817C107.926 149.501 107.814 149.247 107.59 149.054C107.368 148.861 107.053 148.764 106.644 148.764H105.242V150.925Z" fill="#8E1DD8"/>
<path d="M49.554 251.321L47.8921 251.423C47.8637 251.281 47.8026 251.153 47.7089 251.04C47.6151 250.923 47.4915 250.831 47.3381 250.763C47.1876 250.692 47.0072 250.656 46.7969 250.656C46.5157 250.656 46.2785 250.716 46.0853 250.835C45.8921 250.952 45.7955 251.108 45.7955 251.304C45.7955 251.46 45.858 251.592 45.983 251.7C46.108 251.808 46.3225 251.895 46.6265 251.96L47.8112 252.199C48.4475 252.33 48.9219 252.54 49.2344 252.83C49.5469 253.119 49.7032 253.5 49.7032 253.972C49.7032 254.401 49.5768 254.777 49.3239 255.101C49.0739 255.425 48.7302 255.678 48.2927 255.859C47.858 256.038 47.3566 256.128 46.7884 256.128C45.9219 256.128 45.2316 255.947 44.7174 255.587C44.206 255.223 43.9063 254.729 43.8183 254.104L45.6038 254.01C45.6577 254.274 45.7884 254.476 45.9958 254.615C46.2032 254.751 46.4688 254.82 46.7927 254.82C47.1109 254.82 47.3665 254.759 47.5597 254.636C47.7558 254.511 47.8552 254.351 47.858 254.155C47.8552 253.99 47.7856 253.855 47.6492 253.75C47.5129 253.642 47.3026 253.56 47.0185 253.503L45.885 253.277C45.2458 253.149 44.77 252.928 44.4575 252.612C44.1478 252.297 43.993 251.895 43.993 251.406C43.993 250.986 44.1066 250.624 44.3339 250.32C44.564 250.016 44.8864 249.781 45.3012 249.616C45.7188 249.452 46.2075 249.369 46.7671 249.369C47.5938 249.369 48.2444 249.544 48.7188 249.893C49.1961 250.243 49.4745 250.719 49.554 251.321ZM54.8038 253.213V249.455H56.6191V256H54.8762V254.811H54.808C54.6603 255.195 54.4145 255.503 54.0708 255.736C53.7299 255.969 53.3137 256.085 52.8222 256.085C52.3847 256.085 51.9998 255.986 51.6674 255.787C51.335 255.588 51.0751 255.305 50.8876 254.939C50.7029 254.572 50.6091 254.134 50.6063 253.622V249.455H52.4216V253.298C52.4245 253.685 52.5282 253.99 52.7327 254.214C52.9373 254.439 53.2114 254.551 53.5552 254.551C53.7739 254.551 53.9785 254.501 54.1688 254.402C54.3591 254.3 54.5126 254.149 54.629 253.95C54.7484 253.751 54.8066 253.506 54.8038 253.213ZM57.8652 256V247.273H59.6806V250.554H59.736C59.8155 250.378 59.9306 250.199 60.0812 250.017C60.2346 249.832 60.4334 249.679 60.6777 249.557C60.9249 249.432 61.2317 249.369 61.5982 249.369C62.0755 249.369 62.5158 249.494 62.9192 249.744C63.3226 249.991 63.6451 250.365 63.8865 250.865C64.128 251.362 64.2488 251.986 64.2488 252.736C64.2488 253.466 64.1309 254.082 63.8951 254.585C63.6621 255.085 63.3439 255.464 62.9405 255.723C62.54 255.979 62.0911 256.107 61.5939 256.107C61.2417 256.107 60.9419 256.048 60.6948 255.932C60.4505 255.815 60.2502 255.669 60.0939 255.493C59.9377 255.314 59.8184 255.134 59.736 254.952H59.655V256H57.8652ZM59.6422 252.727C59.6422 253.116 59.6962 253.456 59.8042 253.746C59.9121 254.036 60.0684 254.261 60.2729 254.423C60.4775 254.582 60.726 254.662 61.0187 254.662C61.3141 254.662 61.5641 254.581 61.7687 254.419C61.9732 254.254 62.128 254.027 62.2331 253.737C62.3411 253.445 62.3951 253.108 62.3951 252.727C62.3951 252.349 62.3425 252.017 62.2374 251.73C62.1323 251.443 61.9775 251.219 61.7729 251.057C61.5684 250.895 61.3169 250.814 61.0187 250.814C60.7232 250.814 60.4732 250.892 60.2687 251.048C60.0669 251.205 59.9121 251.426 59.8042 251.713C59.6962 252 59.6422 252.338 59.6422 252.727ZM69.2982 251.696V253.136H65.3181V251.696H69.2982ZM74.0866 249.455V250.818H70.1448V249.455H74.0866ZM71.0397 247.886H72.8551V253.989C72.8551 254.156 72.8806 254.287 72.9318 254.381C72.9829 254.472 73.0539 254.536 73.1448 254.572C73.2386 254.609 73.3465 254.628 73.4687 254.628C73.5539 254.628 73.6391 254.621 73.7244 254.607C73.8096 254.589 73.8749 254.577 73.9204 254.568L74.2059 255.919C74.115 255.947 73.9872 255.98 73.8224 256.017C73.6576 256.057 73.4573 256.081 73.2215 256.089C72.784 256.107 72.4005 256.048 72.071 255.915C71.7443 255.781 71.49 255.574 71.3082 255.293C71.1264 255.011 71.0369 254.656 71.0397 254.227V247.886ZM75.0291 256V249.455H76.7891V250.597H76.8572C76.9766 250.19 77.1768 249.884 77.4581 249.676C77.7393 249.466 78.0632 249.361 78.4297 249.361C78.5206 249.361 78.6186 249.366 78.7237 249.378C78.8288 249.389 78.9212 249.405 79.0007 249.425V251.036C78.9155 251.01 78.7976 250.987 78.647 250.967C78.4964 250.947 78.3587 250.938 78.2337 250.938C77.9666 250.938 77.728 250.996 77.5178 251.112C77.3104 251.226 77.1456 251.385 77.0234 251.589C76.9041 251.794 76.8445 252.03 76.8445 252.297V256H75.0291ZM81.3783 256.124C80.9606 256.124 80.5885 256.051 80.2618 255.906C79.9351 255.759 79.6766 255.541 79.4862 255.254C79.2987 254.964 79.205 254.604 79.205 254.172C79.205 253.808 79.2717 253.503 79.4052 253.256C79.5388 253.009 79.7206 252.81 79.9507 252.659C80.1808 252.509 80.4422 252.395 80.7348 252.318C81.0302 252.241 81.3399 252.188 81.6638 252.156C82.0444 252.116 82.3513 252.08 82.5842 252.045C82.8172 252.009 82.9862 251.955 83.0913 251.884C83.1964 251.812 83.249 251.707 83.249 251.568V251.543C83.249 251.273 83.1638 251.064 82.9933 250.916C82.8257 250.768 82.5871 250.695 82.2774 250.695C81.9507 250.695 81.6908 250.767 81.4976 250.912C81.3044 251.054 81.1766 251.233 81.1141 251.449L79.4351 251.312C79.5203 250.915 79.6879 250.571 79.9379 250.281C80.1879 249.989 80.5104 249.764 80.9052 249.608C81.303 249.449 81.7632 249.369 82.2859 249.369C82.6496 249.369 82.9976 249.412 83.33 249.497C83.6652 249.582 83.9621 249.714 84.2206 249.893C84.4819 250.072 84.6879 250.303 84.8385 250.584C84.9891 250.862 85.0643 251.196 85.0643 251.585V256H83.3427V255.092H83.2916C83.1865 255.297 83.0459 255.477 82.8697 255.634C82.6936 255.787 82.4819 255.908 82.2348 255.996C81.9876 256.081 81.7021 256.124 81.3783 256.124ZM81.8981 254.871C82.1652 254.871 82.401 254.818 82.6055 254.713C82.8101 254.605 82.9706 254.46 83.0871 254.278C83.2035 254.097 83.2618 253.891 83.2618 253.661V252.966C83.205 253.003 83.1268 253.037 83.0274 253.068C82.9308 253.097 82.8214 253.124 82.6993 253.149C82.5771 253.172 82.455 253.193 82.3328 253.213C82.2106 253.23 82.0998 253.246 82.0004 253.26C81.7873 253.291 81.6013 253.341 81.4422 253.409C81.2831 253.477 81.1595 253.57 81.0714 253.686C80.9834 253.8 80.9393 253.942 80.9393 254.112C80.9393 254.359 81.0288 254.548 81.2078 254.679C81.3896 254.807 81.6197 254.871 81.8981 254.871ZM89.1901 256.128C88.5196 256.128 87.9429 255.986 87.46 255.702C86.9799 255.415 86.6106 255.017 86.352 254.509C86.0963 254 85.9685 253.415 85.9685 252.753C85.9685 252.082 86.0978 251.494 86.3563 250.989C86.6177 250.48 86.9884 250.084 87.4685 249.8C87.9486 249.513 88.5196 249.369 89.1816 249.369C89.7526 249.369 90.2526 249.473 90.6816 249.68C91.1106 249.888 91.45 250.179 91.7 250.554C91.95 250.929 92.0878 251.369 92.1134 251.875H90.4003C90.352 251.548 90.2242 251.286 90.0168 251.087C89.8123 250.885 89.5438 250.784 89.2114 250.784C88.9302 250.784 88.6844 250.861 88.4742 251.014C88.2668 251.165 88.1049 251.385 87.9884 251.675C87.8719 251.964 87.8137 252.315 87.8137 252.727C87.8137 253.145 87.8705 253.5 87.9841 253.793C88.1006 254.085 88.264 254.308 88.4742 254.462C88.6844 254.615 88.9302 254.692 89.2114 254.692C89.4188 254.692 89.6049 254.649 89.7696 254.564C89.9373 254.479 90.075 254.355 90.183 254.193C90.2938 254.028 90.3662 253.831 90.4003 253.601H92.1134C92.085 254.101 91.9486 254.541 91.7043 254.922C91.4628 255.3 91.129 255.595 90.7029 255.808C90.2767 256.021 89.7725 256.128 89.1901 256.128ZM94.6806 254.116L94.6848 251.939H94.949L97.0456 249.455H99.1294L96.3127 252.744H95.8823L94.6806 254.116ZM93.0357 256V247.273H94.851V256H93.0357ZM97.1266 256L95.2005 253.149L96.4107 251.866L99.253 256H97.1266ZM110.052 250.328H108.185C108.151 250.087 108.082 249.872 107.976 249.685C107.871 249.494 107.736 249.332 107.572 249.199C107.407 249.065 107.217 248.963 107.001 248.892C106.788 248.821 106.556 248.786 106.306 248.786C105.854 248.786 105.461 248.898 105.126 249.122C104.79 249.344 104.53 249.668 104.346 250.094C104.161 250.517 104.069 251.031 104.069 251.636C104.069 252.259 104.161 252.781 104.346 253.205C104.533 253.628 104.795 253.947 105.13 254.163C105.465 254.379 105.853 254.487 106.293 254.487C106.54 254.487 106.769 254.455 106.979 254.389C107.192 254.324 107.381 254.229 107.546 254.104C107.711 253.976 107.847 253.821 107.955 253.639C108.066 253.457 108.143 253.25 108.185 253.017L110.052 253.026C110.003 253.426 109.883 253.812 109.69 254.185C109.499 254.554 109.242 254.885 108.918 255.178C108.597 255.467 108.214 255.697 107.768 255.868C107.325 256.036 106.823 256.119 106.263 256.119C105.485 256.119 104.789 255.943 104.175 255.591C103.565 255.239 103.082 254.729 102.726 254.061C102.374 253.393 102.198 252.585 102.198 251.636C102.198 250.685 102.377 249.875 102.735 249.207C103.093 248.54 103.579 248.031 104.192 247.682C104.806 247.33 105.496 247.153 106.263 247.153C106.769 247.153 107.238 247.224 107.67 247.366C108.104 247.509 108.489 247.716 108.825 247.989C109.16 248.259 109.432 248.589 109.643 248.982C109.856 249.374 109.992 249.822 110.052 250.328Z" fill="#8E1DD8"/>
<path d="M50.599 351.321L48.937 351.423C48.9086 351.281 48.8476 351.153 48.7538 351.04C48.6601 350.923 48.5365 350.831 48.3831 350.763C48.2325 350.692 48.0521 350.656 47.8419 350.656C47.5606 350.656 47.3234 350.716 47.1302 350.835C46.937 350.952 46.8404 351.108 46.8404 351.304C46.8404 351.46 46.9029 351.592 47.0279 351.7C47.1529 351.808 47.3674 351.895 47.6714 351.96L48.8561 352.199C49.4924 352.33 49.9669 352.54 50.2794 352.83C50.5919 353.119 50.7481 353.5 50.7481 353.972C50.7481 354.401 50.6217 354.777 50.3689 355.101C50.1189 355.425 49.7751 355.678 49.3376 355.859C48.9029 356.038 48.4015 356.128 47.8333 356.128C46.9669 356.128 46.2765 355.947 45.7623 355.587C45.251 355.223 44.9512 354.729 44.8632 354.104L46.6487 354.01C46.7027 354.274 46.8333 354.476 47.0407 354.615C47.2481 354.751 47.5137 354.82 47.8376 354.82C48.1558 354.82 48.4115 354.759 48.6047 354.636C48.8007 354.511 48.9001 354.351 48.9029 354.155C48.9001 353.99 48.8305 353.855 48.6941 353.75C48.5578 353.642 48.3476 353.56 48.0635 353.503L46.9299 353.277C46.2907 353.149 45.8149 352.928 45.5024 352.612C45.1927 352.297 45.0379 351.895 45.0379 351.406C45.0379 350.986 45.1515 350.624 45.3788 350.32C45.6089 350.016 45.9314 349.781 46.3461 349.616C46.7637 349.452 47.2524 349.369 47.812 349.369C48.6387 349.369 49.2893 349.544 49.7637 349.893C50.241 350.243 50.5194 350.719 50.599 351.321ZM55.8487 353.213V349.455H57.664V356H55.9211V354.811H55.8529C55.7052 355.195 55.4595 355.503 55.1157 355.736C54.7748 355.969 54.3586 356.085 53.8671 356.085C53.4296 356.085 53.0447 355.986 52.7123 355.787C52.3799 355.588 52.12 355.305 51.9325 354.939C51.7478 354.572 51.6541 354.134 51.6512 353.622V349.455H53.4666V353.298C53.4694 353.685 53.5731 353.99 53.7777 354.214C53.9822 354.439 54.2563 354.551 54.6001 354.551C54.8188 354.551 55.0234 354.501 55.2137 354.402C55.4041 354.3 55.5575 354.149 55.674 353.95C55.7933 353.751 55.8515 353.506 55.8487 353.213ZM58.9102 356V347.273H60.7255V350.554H60.7809C60.8604 350.378 60.9755 350.199 61.1261 350.017C61.2795 349.832 61.4783 349.679 61.7227 349.557C61.9698 349.432 62.2766 349.369 62.6431 349.369C63.1204 349.369 63.5607 349.494 63.9641 349.744C64.3676 349.991 64.69 350.365 64.9315 350.865C65.1729 351.362 65.2937 351.986 65.2937 352.736C65.2937 353.466 65.1758 354.082 64.94 354.585C64.707 355.085 64.3889 355.464 63.9854 355.723C63.5849 355.979 63.136 356.107 62.6389 356.107C62.2866 356.107 61.9869 356.048 61.7397 355.932C61.4954 355.815 61.2951 355.669 61.1389 355.493C60.9826 355.314 60.8633 355.134 60.7809 354.952H60.6999V356H58.9102ZM60.6872 352.727C60.6872 353.116 60.7411 353.456 60.8491 353.746C60.957 354.036 61.1133 354.261 61.3178 354.423C61.5224 354.582 61.771 354.662 62.0636 354.662C62.359 354.662 62.609 354.581 62.8136 354.419C63.0181 354.254 63.1729 354.027 63.2781 353.737C63.386 353.445 63.44 353.108 63.44 352.727C63.44 352.349 63.3874 352.017 63.2823 351.73C63.1772 351.443 63.0224 351.219 62.8178 351.057C62.6133 350.895 62.3619 350.814 62.0636 350.814C61.7681 350.814 61.5181 350.892 61.3136 351.048C61.1119 351.205 60.957 351.426 60.8491 351.713C60.7411 352 60.6872 352.338 60.6872 352.727ZM70.3431 351.696V353.136H66.363V351.696H70.3431ZM75.1315 349.455V350.818H71.1898V349.455H75.1315ZM72.0846 347.886H73.9V353.989C73.9 354.156 73.9255 354.287 73.9767 354.381C74.0278 354.472 74.0988 354.536 74.1898 354.572C74.2835 354.609 74.3915 354.628 74.5136 354.628C74.5988 354.628 74.6841 354.621 74.7693 354.607C74.8545 354.589 74.9199 354.577 74.9653 354.568L75.2508 355.919C75.1599 355.947 75.0321 355.98 74.8673 356.017C74.7025 356.057 74.5023 356.081 74.2665 356.089C73.829 356.107 73.4454 356.048 73.1159 355.915C72.7892 355.781 72.5349 355.574 72.3531 355.293C72.1713 355.011 72.0818 354.656 72.0846 354.227V347.886ZM76.074 356V349.455H77.834V350.597H77.9022C78.0215 350.19 78.2218 349.884 78.503 349.676C78.7843 349.466 79.1081 349.361 79.4746 349.361C79.5655 349.361 79.6635 349.366 79.7686 349.378C79.8738 349.389 79.9661 349.405 80.0456 349.425V351.036C79.9604 351.01 79.8425 350.987 79.6919 350.967C79.5414 350.947 79.4036 350.938 79.2786 350.938C79.0115 350.938 78.7729 350.996 78.5627 351.112C78.3553 351.226 78.1905 351.385 78.0684 351.589C77.949 351.794 77.8894 352.03 77.8894 352.297V356H76.074ZM82.4232 356.124C82.0056 356.124 81.6334 356.051 81.3067 355.906C80.98 355.759 80.7215 355.541 80.5311 355.254C80.3436 354.964 80.2499 354.604 80.2499 354.172C80.2499 353.808 80.3166 353.503 80.4502 353.256C80.5837 353.009 80.7655 352.81 80.9956 352.659C81.2257 352.509 81.4871 352.395 81.7797 352.318C82.0752 352.241 82.3848 352.188 82.7087 352.156C83.0894 352.116 83.3962 352.08 83.6291 352.045C83.8621 352.009 84.0311 351.955 84.1362 351.884C84.2414 351.812 84.2939 351.707 84.2939 351.568V351.543C84.2939 351.273 84.2087 351.064 84.0382 350.916C83.8706 350.768 83.632 350.695 83.3223 350.695C82.9956 350.695 82.7357 350.767 82.5425 350.912C82.3493 351.054 82.2215 351.233 82.159 351.449L80.48 351.312C80.5652 350.915 80.7328 350.571 80.9828 350.281C81.2328 349.989 81.5553 349.764 81.9502 349.608C82.3479 349.449 82.8081 349.369 83.3308 349.369C83.6945 349.369 84.0425 349.412 84.3749 349.497C84.7101 349.582 85.007 349.714 85.2655 349.893C85.5269 350.072 85.7328 350.303 85.8834 350.584C86.034 350.862 86.1093 351.196 86.1093 351.585V356H84.3877V355.092H84.3365C84.2314 355.297 84.0908 355.477 83.9147 355.634C83.7385 355.787 83.5269 355.908 83.2797 355.996C83.0326 356.081 82.747 356.124 82.4232 356.124ZM82.9431 354.871C83.2101 354.871 83.4459 354.818 83.6504 354.713C83.855 354.605 84.0155 354.46 84.132 354.278C84.2485 354.097 84.3067 353.891 84.3067 353.661V352.966C84.2499 353.003 84.1718 353.037 84.0723 353.068C83.9757 353.097 83.8664 353.124 83.7442 353.149C83.622 353.172 83.4999 353.193 83.3777 353.213C83.2556 353.23 83.1448 353.246 83.0453 353.26C82.8323 353.291 82.6462 353.341 82.4871 353.409C82.328 353.477 82.2044 353.57 82.1164 353.686C82.0283 353.8 81.9843 353.942 81.9843 354.112C81.9843 354.359 82.0737 354.548 82.2527 354.679C82.4345 354.807 82.6647 354.871 82.9431 354.871ZM90.235 356.128C89.5646 356.128 88.9879 355.986 88.5049 355.702C88.0248 355.415 87.6555 355.017 87.397 354.509C87.1413 354 87.0134 353.415 87.0134 352.753C87.0134 352.082 87.1427 351.494 87.4012 350.989C87.6626 350.48 88.0333 350.084 88.5134 349.8C88.9935 349.513 89.5646 349.369 90.2265 349.369C90.7975 349.369 91.2975 349.473 91.7265 349.68C92.1555 349.888 92.495 350.179 92.745 350.554C92.995 350.929 93.1327 351.369 93.1583 351.875H91.4452C91.397 351.548 91.2691 351.286 91.0617 351.087C90.8572 350.885 90.5887 350.784 90.2563 350.784C89.9751 350.784 89.7293 350.861 89.5191 351.014C89.3117 351.165 89.1498 351.385 89.0333 351.675C88.9168 351.964 88.8586 352.315 88.8586 352.727C88.8586 353.145 88.9154 353.5 89.0291 353.793C89.1455 354.085 89.3089 354.308 89.5191 354.462C89.7293 354.615 89.9751 354.692 90.2563 354.692C90.4637 354.692 90.6498 354.649 90.8146 354.564C90.9822 354.479 91.12 354.355 91.2279 354.193C91.3387 354.028 91.4112 353.831 91.4452 353.601H93.1583C93.1299 354.101 92.9935 354.541 92.7492 354.922C92.5077 355.3 92.1739 355.595 91.7478 355.808C91.3217 356.021 90.8174 356.128 90.235 356.128ZM95.7255 354.116L95.7298 351.939H95.994L98.0905 349.455H100.174L97.3576 352.744H96.9272L95.7255 354.116ZM94.0806 356V347.273H95.8959V356H94.0806ZM98.1715 356L96.2454 353.149L97.4556 351.866L100.298 356H98.1715ZM103.396 356V347.273H106.891C107.533 347.273 108.068 347.368 108.497 347.558C108.926 347.749 109.249 348.013 109.465 348.351C109.681 348.686 109.788 349.072 109.788 349.51C109.788 349.851 109.72 350.151 109.584 350.409C109.448 350.665 109.26 350.875 109.021 351.04C108.786 351.202 108.516 351.317 108.212 351.385V351.47C108.544 351.484 108.855 351.578 109.145 351.751C109.438 351.925 109.675 352.168 109.857 352.48C110.038 352.79 110.129 353.159 110.129 353.588C110.129 354.051 110.014 354.464 109.784 354.828C109.557 355.189 109.22 355.474 108.774 355.685C108.328 355.895 107.779 356 107.125 356H103.396ZM105.242 354.491H106.746C107.26 354.491 107.635 354.393 107.871 354.197C108.107 353.999 108.225 353.734 108.225 353.405C108.225 353.163 108.166 352.95 108.05 352.766C107.933 352.581 107.767 352.436 107.551 352.331C107.338 352.226 107.084 352.173 106.788 352.173H105.242V354.491ZM105.242 350.925H106.609C106.862 350.925 107.087 350.881 107.283 350.793C107.482 350.702 107.638 350.574 107.752 350.409C107.868 350.244 107.926 350.047 107.926 349.817C107.926 349.501 107.814 349.247 107.59 349.054C107.368 348.861 107.053 348.764 106.644 348.764H105.242V350.925Z" fill="#8E1DD8"/>
<path d="M49.5775 451.321L47.9156 451.423C47.8871 451.281 47.8261 451.153 47.7323 451.04C47.6386 450.923 47.515 450.831 47.3616 450.763C47.211 450.692 47.0306 450.656 46.8204 450.656C46.5391 450.656 46.3019 450.716 46.1087 450.835C45.9156 450.952 45.819 451.108 45.819 451.304C45.819 451.46 45.8815 451.592 46.0065 451.7C46.1315 451.808 46.346 451.895 46.6499 451.96L47.8346 452.199C48.471 452.33 48.9454 452.54 49.2579 452.83C49.5704 453.119 49.7266 453.5 49.7266 453.972C49.7266 454.401 49.6002 454.777 49.3474 455.101C49.0974 455.425 48.7536 455.678 48.3161 455.859C47.8815 456.038 47.38 456.128 46.8119 456.128C45.9454 456.128 45.255 455.947 44.7408 455.587C44.2295 455.223 43.9298 454.729 43.8417 454.104L45.6272 454.01C45.6812 454.274 45.8119 454.476 46.0192 454.615C46.2266 454.751 46.4923 454.82 46.8161 454.82C47.1343 454.82 47.39 454.759 47.5832 454.636C47.7792 454.511 47.8786 454.351 47.8815 454.155C47.8786 453.99 47.809 453.855 47.6727 453.75C47.5363 453.642 47.3261 453.56 47.042 453.503L45.9085 453.277C45.2692 453.149 44.7934 452.928 44.4809 452.612C44.1712 452.297 44.0164 451.895 44.0164 451.406C44.0164 450.986 44.13 450.624 44.3573 450.32C44.5874 450.016 44.9099 449.781 45.3246 449.616C45.7423 449.452 46.2309 449.369 46.7906 449.369C47.6173 449.369 48.2678 449.544 48.7423 449.893C49.2195 450.243 49.4979 450.719 49.5775 451.321ZM54.8272 453.213V449.455H56.6425V456H54.8996V454.811H54.8314C54.6837 455.195 54.438 455.503 54.0942 455.736C53.7533 455.969 53.3371 456.085 52.8457 456.085C52.4082 456.085 52.0232 455.986 51.6908 455.787C51.3584 455.588 51.0985 455.305 50.911 454.939C50.7263 454.572 50.6326 454.134 50.6297 453.622V449.455H52.4451V453.298C52.4479 453.685 52.5516 453.99 52.7562 454.214C52.9607 454.439 53.2349 454.551 53.5786 454.551C53.7974 454.551 54.0019 454.501 54.1922 454.402C54.3826 454.3 54.536 454.149 54.6525 453.95C54.7718 453.751 54.83 453.506 54.8272 453.213ZM57.8887 456V447.273H59.704V450.554H59.7594C59.839 450.378 59.954 450.199 60.1046 450.017C60.258 449.832 60.4569 449.679 60.7012 449.557C60.9483 449.432 61.2552 449.369 61.6216 449.369C62.0989 449.369 62.5392 449.494 62.9427 449.744C63.3461 449.991 63.6685 450.365 63.91 450.865C64.1515 451.362 64.2722 451.986 64.2722 452.736C64.2722 453.466 64.1543 454.082 63.9185 454.585C63.6856 455.085 63.3674 455.464 62.964 455.723C62.5634 455.979 62.1145 456.107 61.6174 456.107C61.2651 456.107 60.9654 456.048 60.7182 455.932C60.4739 455.815 60.2736 455.669 60.1174 455.493C59.9611 455.314 59.8418 455.134 59.7594 454.952H59.6785V456H57.8887ZM59.6657 452.727C59.6657 453.116 59.7196 453.456 59.8276 453.746C59.9356 454.036 60.0918 454.261 60.2964 454.423C60.5009 454.582 60.7495 454.662 61.0421 454.662C61.3375 454.662 61.5875 454.581 61.7921 454.419C61.9966 454.254 62.1515 454.027 62.2566 453.737C62.3645 453.445 62.4185 453.108 62.4185 452.727C62.4185 452.349 62.366 452.017 62.2608 451.73C62.1557 451.443 62.0009 451.219 61.7964 451.057C61.5918 450.895 61.3404 450.814 61.0421 450.814C60.7466 450.814 60.4966 450.892 60.2921 451.048C60.0904 451.205 59.9356 451.426 59.8276 451.713C59.7196 452 59.6657 452.338 59.6657 452.727ZM69.3216 451.696V453.136H65.3415V451.696H69.3216ZM74.11 449.455V450.818H70.1683V449.455H74.11ZM71.0632 447.886H72.8785V453.989C72.8785 454.156 72.9041 454.287 72.9552 454.381C73.0063 454.472 73.0774 454.536 73.1683 454.572C73.262 454.609 73.37 454.628 73.4921 454.628C73.5774 454.628 73.6626 454.621 73.7478 454.607C73.833 454.589 73.8984 454.577 73.9438 454.568L74.2293 455.919C74.1384 455.947 74.0106 455.98 73.8458 456.017C73.6811 456.057 73.4808 456.081 73.245 456.089C72.8075 456.107 72.424 456.048 72.0944 455.915C71.7677 455.781 71.5134 455.574 71.3316 455.293C71.1498 455.011 71.0603 454.656 71.0632 454.227V447.886ZM75.0526 456V449.455H76.8125V450.597H76.8807C77 450.19 77.2003 449.884 77.4815 449.676C77.7628 449.466 78.0866 449.361 78.4531 449.361C78.544 449.361 78.642 449.366 78.7472 449.378C78.8523 449.389 78.9446 449.405 79.0241 449.425V451.036C78.9389 451.01 78.821 450.987 78.6705 450.967C78.5199 450.947 78.3821 450.938 78.2571 450.938C77.9901 450.938 77.7514 450.996 77.5412 451.112C77.3338 451.226 77.169 451.385 77.0469 451.589C76.9276 451.794 76.8679 452.03 76.8679 452.297V456H75.0526ZM81.4017 456.124C80.9841 456.124 80.6119 456.051 80.2852 455.906C79.9585 455.759 79.7 455.541 79.5096 455.254C79.3221 454.964 79.2284 454.604 79.2284 454.172C79.2284 453.808 79.2952 453.503 79.4287 453.256C79.5622 453.009 79.744 452.81 79.9741 452.659C80.2042 452.509 80.4656 452.395 80.7582 452.318C81.0537 452.241 81.3633 452.188 81.6872 452.156C82.0679 452.116 82.3747 452.08 82.6077 452.045C82.8406 452.009 83.0096 451.955 83.1148 451.884C83.2199 451.812 83.2724 451.707 83.2724 451.568V451.543C83.2724 451.273 83.1872 451.064 83.0167 450.916C82.8491 450.768 82.6105 450.695 82.3008 450.695C81.9741 450.695 81.7142 450.767 81.521 450.912C81.3278 451.054 81.2 451.233 81.1375 451.449L79.4585 451.312C79.5437 450.915 79.7114 450.571 79.9614 450.281C80.2114 449.989 80.5338 449.764 80.9287 449.608C81.3264 449.449 81.7866 449.369 82.3094 449.369C82.673 449.369 83.021 449.412 83.3534 449.497C83.6886 449.582 83.9855 449.714 84.244 449.893C84.5054 450.072 84.7114 450.303 84.8619 450.584C85.0125 450.862 85.0878 451.196 85.0878 451.585V456H83.3662V455.092H83.315C83.2099 455.297 83.0693 455.477 82.8932 455.634C82.717 455.787 82.5054 455.908 82.2582 455.996C82.0111 456.081 81.7256 456.124 81.4017 456.124ZM81.9216 454.871C82.1886 454.871 82.4244 454.818 82.629 454.713C82.8335 454.605 82.994 454.46 83.1105 454.278C83.227 454.097 83.2852 453.891 83.2852 453.661V452.966C83.2284 453.003 83.1503 453.037 83.0508 453.068C82.9542 453.097 82.8449 453.124 82.7227 453.149C82.6006 453.172 82.4784 453.193 82.3562 453.213C82.2341 453.23 82.1233 453.246 82.0239 453.26C81.8108 453.291 81.6247 453.341 81.4656 453.409C81.3065 453.477 81.1829 453.57 81.0949 453.686C81.0068 453.8 80.9628 453.942 80.9628 454.112C80.9628 454.359 81.0523 454.548 81.2312 454.679C81.4131 454.807 81.6432 454.871 81.9216 454.871ZM89.2135 456.128C88.5431 456.128 87.9664 455.986 87.4834 455.702C87.0033 455.415 86.634 455.017 86.3755 454.509C86.1198 454 85.9919 453.415 85.9919 452.753C85.9919 452.082 86.1212 451.494 86.3797 450.989C86.6411 450.48 87.0118 450.084 87.4919 449.8C87.9721 449.513 88.5431 449.369 89.205 449.369C89.776 449.369 90.276 449.473 90.705 449.68C91.134 449.888 91.4735 450.179 91.7235 450.554C91.9735 450.929 92.1113 451.369 92.1368 451.875H90.4238C90.3755 451.548 90.2476 451.286 90.0402 451.087C89.8357 450.885 89.5672 450.784 89.2348 450.784C88.9536 450.784 88.7079 450.861 88.4976 451.014C88.2902 451.165 88.1283 451.385 88.0118 451.675C87.8954 451.964 87.8371 452.315 87.8371 452.727C87.8371 453.145 87.8939 453.5 88.0076 453.793C88.124 454.085 88.2874 454.308 88.4976 454.462C88.7079 454.615 88.9536 454.692 89.2348 454.692C89.4422 454.692 89.6283 454.649 89.7931 454.564C89.9607 454.479 90.0985 454.355 90.2064 454.193C90.3172 454.028 90.3897 453.831 90.4238 453.601H92.1368C92.1084 454.101 91.9721 454.541 91.7277 454.922C91.4863 455.3 91.1525 455.595 90.7263 455.808C90.3002 456.021 89.7959 456.128 89.2135 456.128ZM94.704 454.116L94.7083 451.939H94.9725L97.0691 449.455H99.1529L96.3361 452.744H95.9057L94.704 454.116ZM93.0591 456V447.273H94.8745V456H93.0591ZM97.15 456L95.2239 453.149L96.4341 451.866L99.2765 456H97.15ZM103.879 456H101.902L104.915 447.273H107.293L110.301 456H108.324L106.138 449.267H106.07L103.879 456ZM103.756 452.57H108.426V454.01H103.756V452.57Z" fill="#8E1DD8"/>
<rect x="16" y="202" width="122" height="100" stroke="#32CF2F" stroke-width="2"/>
<path d="M129.5 2H133C137.418 2 141 5.58172 141 10V42.8831C141 45.4667 142.248 47.8912 144.35 49.3929L145.722 50.3725C146.838 51.1702 146.838 52.8298 145.722 53.6275L144.35 54.6071C142.248 56.1088 141 58.5333 141 61.1169V94C141 98.4183 137.418 102 133 102H129.5" stroke="#CACACA" stroke-width="2" stroke-linecap="round"/>
</svg>
