<svg width="268" height="523" viewBox="0 0 268 523" fill="none" xmlns="http://www.w3.org/2000/svg">
<rect width="268" height="523" fill="white"/>
<path d="M149.724 66V59.4545H151.455V60.6094H151.531C151.668 60.2259 151.895 59.9233 152.213 59.7017C152.531 59.4801 152.912 59.3693 153.355 59.3693C153.804 59.3693 154.186 59.4815 154.501 59.706C154.817 59.9276 155.027 60.2287 155.132 60.6094H155.2C155.334 60.2344 155.575 59.9347 155.925 59.7102C156.277 59.483 156.693 59.3693 157.173 59.3693C157.784 59.3693 158.28 59.5639 158.661 59.9531C159.044 60.3395 159.236 60.8878 159.236 61.598V66H157.425V61.956C157.425 61.5923 157.328 61.3196 157.135 61.1378C156.942 60.956 156.7 60.8651 156.411 60.8651C156.081 60.8651 155.824 60.9702 155.639 61.1804C155.455 61.3878 155.362 61.6619 155.362 62.0028V66H153.602V61.9176C153.602 61.5966 153.51 61.3409 153.325 61.1506C153.143 60.9602 152.903 60.8651 152.605 60.8651C152.403 60.8651 152.222 60.9162 152.06 61.0185C151.901 61.1179 151.774 61.2585 151.68 61.4403C151.587 61.6193 151.54 61.8295 151.54 62.071V66H149.724ZM162.296 66.1236C161.879 66.1236 161.506 66.0511 161.18 65.9062C160.853 65.7585 160.595 65.5412 160.404 65.2543C160.217 64.9645 160.123 64.6037 160.123 64.1719C160.123 63.8082 160.19 63.5028 160.323 63.2557C160.457 63.0085 160.639 62.8097 160.869 62.6591C161.099 62.5085 161.36 62.3949 161.653 62.3182C161.948 62.2415 162.258 62.1875 162.582 62.1562C162.962 62.1165 163.269 62.0795 163.502 62.0455C163.735 62.0085 163.904 61.9545 164.009 61.8835C164.114 61.8125 164.167 61.7074 164.167 61.5682V61.5426C164.167 61.2727 164.082 61.0639 163.911 60.9162C163.744 60.7685 163.505 60.6946 163.195 60.6946C162.869 60.6946 162.609 60.767 162.416 60.9119C162.222 61.054 162.095 61.233 162.032 61.4489L160.353 61.3125C160.438 60.9148 160.606 60.571 160.856 60.2812C161.106 59.9886 161.428 59.7642 161.823 59.608C162.221 59.4489 162.681 59.3693 163.204 59.3693C163.568 59.3693 163.916 59.4119 164.248 59.4972C164.583 59.5824 164.88 59.7145 165.139 59.8935C165.4 60.0724 165.606 60.3026 165.756 60.5838C165.907 60.8622 165.982 61.196 165.982 61.5852V66H164.261V65.0923H164.21C164.104 65.2969 163.964 65.4773 163.788 65.6335C163.612 65.7869 163.4 65.9077 163.153 65.9957C162.906 66.081 162.62 66.1236 162.296 66.1236ZM162.816 64.8707C163.083 64.8707 163.319 64.8182 163.523 64.7131C163.728 64.6051 163.889 64.4602 164.005 64.2784C164.122 64.0966 164.18 63.8906 164.18 63.6605V62.9659C164.123 63.0028 164.045 63.0369 163.945 63.0682C163.849 63.0966 163.739 63.1236 163.617 63.1491C163.495 63.1719 163.373 63.1932 163.251 63.2131C163.129 63.2301 163.018 63.2457 162.918 63.2599C162.705 63.2912 162.519 63.3409 162.36 63.4091C162.201 63.4773 162.077 63.5696 161.989 63.6861C161.901 63.7997 161.857 63.9418 161.857 64.1122C161.857 64.3594 161.947 64.5483 162.126 64.679C162.308 64.8068 162.538 64.8707 162.816 64.8707ZM167.151 66V59.4545H168.911V60.5966H168.979C169.098 60.1903 169.298 59.8835 169.58 59.6761C169.861 59.4659 170.185 59.3608 170.551 59.3608C170.642 59.3608 170.74 59.3665 170.845 59.3778C170.95 59.3892 171.043 59.4048 171.122 59.4247V61.0355C171.037 61.0099 170.919 60.9872 170.769 60.9673C170.618 60.9474 170.48 60.9375 170.355 60.9375C170.088 60.9375 169.85 60.9957 169.639 61.1122C169.432 61.2259 169.267 61.3849 169.145 61.5895C169.026 61.794 168.966 62.0298 168.966 62.2969V66H167.151ZM175.841 68.4545V64.9517H175.786C175.701 65.1335 175.58 65.3139 175.424 65.4929C175.27 65.669 175.07 65.8153 174.823 65.9318C174.579 66.0483 174.28 66.1065 173.928 66.1065C173.431 66.1065 172.981 65.9787 172.577 65.723C172.177 65.4645 171.858 65.0852 171.623 64.5852C171.39 64.0824 171.273 63.4659 171.273 62.7358C171.273 61.9858 171.394 61.3622 171.635 60.8651C171.877 60.3651 172.198 59.9915 172.599 59.7443C173.002 59.4943 173.444 59.3693 173.924 59.3693C174.29 59.3693 174.596 59.4318 174.84 59.5568C175.087 59.679 175.286 59.8324 175.437 60.017C175.59 60.1989 175.706 60.3778 175.786 60.554H175.863V59.4545H177.653V68.4545H175.841ZM174.503 64.6619C174.796 64.6619 175.043 64.5824 175.245 64.4233C175.449 64.2614 175.606 64.0355 175.714 63.7457C175.824 63.456 175.88 63.1165 175.88 62.7273C175.88 62.3381 175.826 62 175.718 61.7131C175.61 61.4261 175.454 61.2045 175.249 61.0483C175.045 60.892 174.796 60.8139 174.503 60.8139C174.205 60.8139 173.954 60.8949 173.749 61.0568C173.545 61.2187 173.39 61.4432 173.285 61.7301C173.18 62.017 173.127 62.3494 173.127 62.7273C173.127 63.108 173.18 63.4446 173.285 63.7372C173.393 64.027 173.547 64.2543 173.749 64.419C173.954 64.581 174.205 64.6619 174.503 64.6619ZM183.067 63.2131V59.4545H184.883V66H183.14V64.8111H183.072C182.924 65.1946 182.678 65.5028 182.334 65.7358C181.993 65.9687 181.577 66.0852 181.086 66.0852C180.648 66.0852 180.263 65.9858 179.931 65.7869C179.599 65.5881 179.339 65.3054 179.151 64.9389C178.966 64.5724 178.873 64.1335 178.87 63.6222V59.4545H180.685V63.2983C180.688 63.6847 180.792 63.9901 180.996 64.2145C181.201 64.4389 181.475 64.5511 181.819 64.5511C182.038 64.5511 182.242 64.5014 182.432 64.402C182.623 64.2997 182.776 64.1491 182.893 63.9503C183.012 63.7514 183.07 63.5057 183.067 63.2131ZM189.078 66.1278C188.404 66.1278 187.825 65.9915 187.339 65.7188C186.856 65.4432 186.484 65.054 186.223 64.5511C185.961 64.0455 185.831 63.4474 185.831 62.7571C185.831 62.0838 185.961 61.4929 186.223 60.9844C186.484 60.4759 186.852 60.0795 187.326 59.7955C187.804 59.5114 188.363 59.3693 189.005 59.3693C189.437 59.3693 189.839 59.4389 190.211 59.5781C190.586 59.7145 190.913 59.9205 191.191 60.196C191.473 60.4716 191.691 60.8182 191.848 61.2358C192.004 61.6506 192.082 62.1364 192.082 62.6932V63.1918H186.555V62.0668H190.373C190.373 61.8054 190.316 61.5739 190.203 61.3722C190.089 61.1705 189.931 61.0128 189.73 60.8991C189.531 60.7827 189.299 60.7244 189.035 60.7244C188.76 60.7244 188.515 60.7884 188.302 60.9162C188.092 61.0412 187.927 61.2102 187.808 61.4233C187.688 61.6335 187.627 61.8679 187.625 62.1264V63.196C187.625 63.5199 187.684 63.7997 187.804 64.0355C187.926 64.2713 188.098 64.4531 188.319 64.581C188.541 64.7088 188.804 64.7727 189.108 64.7727C189.309 64.7727 189.494 64.7443 189.662 64.6875C189.829 64.6307 189.973 64.5455 190.092 64.4318C190.211 64.3182 190.302 64.179 190.365 64.0142L192.044 64.125C191.958 64.5284 191.784 64.8807 191.519 65.1818C191.258 65.4801 190.92 65.7131 190.505 65.8807C190.093 66.0455 189.617 66.1278 189.078 66.1278ZM196.01 66.1278C195.336 66.1278 194.757 65.9915 194.271 65.7188C193.788 65.4432 193.416 65.054 193.154 64.5511C192.893 64.0455 192.762 63.4474 192.762 62.7571C192.762 62.0838 192.893 61.4929 193.154 60.9844C193.416 60.4759 193.784 60.0795 194.258 59.7955C194.735 59.5114 195.295 59.3693 195.937 59.3693C196.369 59.3693 196.771 59.4389 197.143 59.5781C197.518 59.7145 197.845 59.9205 198.123 60.196C198.404 60.4716 198.623 60.8182 198.779 61.2358C198.936 61.6506 199.014 62.1364 199.014 62.6932V63.1918H193.487V62.0668H197.305C197.305 61.8054 197.248 61.5739 197.135 61.3722C197.021 61.1705 196.863 61.0128 196.662 60.8991C196.463 60.7827 196.231 60.7244 195.967 60.7244C195.691 60.7244 195.447 60.7884 195.234 60.9162C195.024 61.0412 194.859 61.2102 194.74 61.4233C194.62 61.6335 194.559 61.8679 194.556 62.1264V63.196C194.556 63.5199 194.616 63.7997 194.735 64.0355C194.858 64.2713 195.029 64.4531 195.251 64.581C195.473 64.7088 195.735 64.7727 196.039 64.7727C196.241 64.7727 196.426 64.7443 196.593 64.6875C196.761 64.6307 196.904 64.5455 197.024 64.4318C197.143 64.3182 197.234 64.179 197.297 64.0142L198.975 64.125C198.89 64.5284 198.716 64.8807 198.451 65.1818C198.19 65.4801 197.852 65.7131 197.437 65.8807C197.025 66.0455 196.549 66.1278 196.01 66.1278ZM205.453 66.1278C204.783 66.1278 204.206 65.9858 203.723 65.7017C203.243 65.4148 202.874 65.017 202.615 64.5085C202.359 64 202.232 63.4148 202.232 62.7528C202.232 62.0824 202.361 61.4943 202.619 60.9886C202.881 60.4801 203.252 60.0838 203.732 59.7997C204.212 59.5128 204.783 59.3693 205.445 59.3693C206.016 59.3693 206.516 59.473 206.945 59.6804C207.374 59.8878 207.713 60.179 207.963 60.554C208.213 60.929 208.351 61.3693 208.377 61.875H206.663C206.615 61.5483 206.487 61.2855 206.28 61.0866C206.075 60.8849 205.807 60.7841 205.475 60.7841C205.193 60.7841 204.948 60.8608 204.737 61.0142C204.53 61.1648 204.368 61.3849 204.252 61.6747C204.135 61.9645 204.077 62.3153 204.077 62.7273C204.077 63.1449 204.134 63.5 204.247 63.7926C204.364 64.0852 204.527 64.3082 204.737 64.4616C204.948 64.6151 205.193 64.6918 205.475 64.6918C205.682 64.6918 205.868 64.6491 206.033 64.5639C206.2 64.4787 206.338 64.3551 206.446 64.1932C206.557 64.0284 206.629 63.831 206.663 63.6009H208.377C208.348 64.1009 208.212 64.5412 207.967 64.9219C207.726 65.2997 207.392 65.5952 206.966 65.8082C206.54 66.0213 206.036 66.1278 205.453 66.1278ZM212.256 66.1278C211.594 66.1278 211.022 65.9872 210.539 65.706C210.059 65.4219 209.688 65.027 209.427 64.5213C209.165 64.0128 209.035 63.4233 209.035 62.7528C209.035 62.0767 209.165 61.4858 209.427 60.9801C209.688 60.4716 210.059 60.0767 210.539 59.7955C211.022 59.5114 211.594 59.3693 212.256 59.3693C212.918 59.3693 213.489 59.5114 213.969 59.7955C214.452 60.0767 214.824 60.4716 215.086 60.9801C215.347 61.4858 215.478 62.0767 215.478 62.7528C215.478 63.4233 215.347 64.0128 215.086 64.5213C214.824 65.027 214.452 65.4219 213.969 65.706C213.489 65.9872 212.918 66.1278 212.256 66.1278ZM212.265 64.7216C212.566 64.7216 212.817 64.6364 213.019 64.4659C213.221 64.2926 213.373 64.0568 213.475 63.7585C213.58 63.4602 213.633 63.1207 213.633 62.7401C213.633 62.3594 213.58 62.0199 213.475 61.7216C213.373 61.4233 213.221 61.1875 213.019 61.0142C212.817 60.8409 212.566 60.7543 212.265 60.7543C211.961 60.7543 211.705 60.8409 211.498 61.0142C211.293 61.1875 211.138 61.4233 211.033 61.7216C210.931 62.0199 210.88 62.3594 210.88 62.7401C210.88 63.1207 210.931 63.4602 211.033 63.7585C211.138 64.0568 211.293 64.2926 211.498 64.4659C211.705 64.6364 211.961 64.7216 212.265 64.7216ZM218.234 62.2159V66H216.418V59.4545H218.148V60.6094H218.225C218.37 60.2287 218.613 59.9276 218.954 59.706C219.295 59.4815 219.708 59.3693 220.194 59.3693C220.648 59.3693 221.045 59.4688 221.383 59.6676C221.721 59.8665 221.984 60.1506 222.171 60.5199C222.359 60.8864 222.452 61.3239 222.452 61.8324V66H220.637V62.1562C220.64 61.7557 220.537 61.4432 220.33 61.2188C220.123 60.9915 219.837 60.8778 219.474 60.8778C219.229 60.8778 219.013 60.9304 218.826 61.0355C218.641 61.1406 218.496 61.294 218.391 61.4957C218.289 61.6946 218.236 61.9347 218.234 62.2159ZM227.125 59.4545V60.8182H223.183V59.4545H227.125ZM224.078 57.8864H225.893V63.9886C225.893 64.1562 225.919 64.2869 225.97 64.3807C226.021 64.4716 226.092 64.5355 226.183 64.5724C226.277 64.6094 226.385 64.6278 226.507 64.6278C226.592 64.6278 226.677 64.6207 226.762 64.6065C226.848 64.5895 226.913 64.5767 226.958 64.5682L227.244 65.919C227.153 65.9474 227.025 65.9801 226.86 66.017C226.696 66.0568 226.495 66.081 226.26 66.0895C225.822 66.1065 225.438 66.0483 225.109 65.9148C224.782 65.7812 224.528 65.5739 224.346 65.2926C224.164 65.0114 224.075 64.6562 224.078 64.2273V57.8864ZM229.934 66.1236C229.516 66.1236 229.144 66.0511 228.817 65.9062C228.49 65.7585 228.232 65.5412 228.042 65.2543C227.854 64.9645 227.76 64.6037 227.76 64.1719C227.76 63.8082 227.827 63.5028 227.961 63.2557C228.094 63.0085 228.276 62.8097 228.506 62.6591C228.736 62.5085 228.997 62.3949 229.29 62.3182C229.586 62.2415 229.895 62.1875 230.219 62.1562C230.6 62.1165 230.907 62.0795 231.14 62.0455C231.372 62.0085 231.542 61.9545 231.647 61.8835C231.752 61.8125 231.804 61.7074 231.804 61.5682V61.5426C231.804 61.2727 231.719 61.0639 231.549 60.9162C231.381 60.7685 231.142 60.6946 230.833 60.6946C230.506 60.6946 230.246 60.767 230.053 60.9119C229.86 61.054 229.732 61.233 229.669 61.4489L227.99 61.3125C228.076 60.9148 228.243 60.571 228.493 60.2812C228.743 59.9886 229.066 59.7642 229.461 59.608C229.858 59.4489 230.319 59.3693 230.841 59.3693C231.205 59.3693 231.553 59.4119 231.885 59.4972C232.221 59.5824 232.517 59.7145 232.776 59.8935C233.037 60.0724 233.243 60.3026 233.394 60.5838C233.544 60.8622 233.62 61.196 233.62 61.5852V66H231.898V65.0923H231.847C231.742 65.2969 231.601 65.4773 231.425 65.6335C231.249 65.7869 231.037 65.9077 230.79 65.9957C230.543 66.081 230.257 66.1236 229.934 66.1236ZM230.453 64.8707C230.721 64.8707 230.956 64.8182 231.161 64.7131C231.365 64.6051 231.526 64.4602 231.642 64.2784C231.759 64.0966 231.817 63.8906 231.817 63.6605V62.9659C231.76 63.0028 231.682 63.0369 231.583 63.0682C231.486 63.0966 231.377 63.1236 231.255 63.1491C231.132 63.1719 231.01 63.1932 230.888 63.2131C230.766 63.2301 230.655 63.2457 230.556 63.2599C230.343 63.2912 230.157 63.3409 229.997 63.4091C229.838 63.4773 229.715 63.5696 229.627 63.6861C229.539 63.7997 229.495 63.9418 229.495 64.1122C229.495 64.3594 229.584 64.5483 229.763 64.679C229.945 64.8068 230.175 64.8707 230.453 64.8707ZM234.788 66V59.4545H236.603V66H234.788ZM235.7 58.6108C235.43 58.6108 235.199 58.5213 235.005 58.3423C234.815 58.1605 234.72 57.9432 234.72 57.6903C234.72 57.4403 234.815 57.2259 235.005 57.0469C235.199 56.8651 235.43 56.7741 235.7 56.7741C235.97 56.7741 236.2 56.8651 236.39 57.0469C236.583 57.2259 236.68 57.4403 236.68 57.6903C236.68 57.9432 236.583 58.1605 236.39 58.3423C236.2 58.5213 235.97 58.6108 235.7 58.6108ZM239.633 62.2159V66H237.818V59.4545H239.548V60.6094H239.624C239.769 60.2287 240.012 59.9276 240.353 59.706C240.694 59.4815 241.107 59.3693 241.593 59.3693C242.048 59.3693 242.444 59.4688 242.782 59.6676C243.12 59.8665 243.383 60.1506 243.57 60.5199C243.758 60.8864 243.852 61.3239 243.852 61.8324V66H242.036V62.1562C242.039 61.7557 241.937 61.4432 241.729 61.2188C241.522 60.9915 241.237 60.8778 240.873 60.8778C240.629 60.8778 240.413 60.9304 240.225 61.0355C240.041 61.1406 239.896 61.294 239.791 61.4957C239.688 61.6946 239.636 61.9347 239.633 62.2159ZM248.025 66.1278C247.352 66.1278 246.773 65.9915 246.287 65.7188C245.804 65.4432 245.432 65.054 245.17 64.5511C244.909 64.0455 244.778 63.4474 244.778 62.7571C244.778 62.0838 244.909 61.4929 245.17 60.9844C245.432 60.4759 245.8 60.0795 246.274 59.7955C246.751 59.5114 247.311 59.3693 247.953 59.3693C248.385 59.3693 248.787 59.4389 249.159 59.5781C249.534 59.7145 249.861 59.9205 250.139 60.196C250.42 60.4716 250.639 60.8182 250.795 61.2358C250.951 61.6506 251.03 62.1364 251.03 62.6932V63.1918H245.503V62.0668H249.321C249.321 61.8054 249.264 61.5739 249.15 61.3722C249.037 61.1705 248.879 61.0128 248.677 60.8991C248.478 60.7827 248.247 60.7244 247.983 60.7244C247.707 60.7244 247.463 60.7884 247.25 60.9162C247.04 61.0412 246.875 61.2102 246.755 61.4233C246.636 61.6335 246.575 61.8679 246.572 62.1264V63.196C246.572 63.5199 246.632 63.7997 246.751 64.0355C246.873 64.2713 247.045 64.4531 247.267 64.581C247.488 64.7088 247.751 64.7727 248.055 64.7727C248.257 64.7727 248.442 64.7443 248.609 64.6875C248.777 64.6307 248.92 64.5455 249.04 64.4318C249.159 64.3182 249.25 64.179 249.312 64.0142L250.991 64.125C250.906 64.5284 250.731 64.8807 250.467 65.1818C250.206 65.4801 249.868 65.7131 249.453 65.8807C249.041 66.0455 248.565 66.1278 248.025 66.1278ZM251.974 66V59.4545H253.734V60.5966H253.802C253.922 60.1903 254.122 59.8835 254.403 59.6761C254.685 59.4659 255.008 59.3608 255.375 59.3608C255.466 59.3608 255.564 59.3665 255.669 59.3778C255.774 59.3892 255.866 59.4048 255.946 59.4247V61.0355C255.861 61.0099 255.743 60.9872 255.592 60.9673C255.442 60.9474 255.304 60.9375 255.179 60.9375C254.912 60.9375 254.673 60.9957 254.463 61.1122C254.256 61.2259 254.091 61.3849 253.969 61.5895C253.849 61.794 253.79 62.0298 253.79 62.2969V66H251.974Z" fill="#32CF2F"/>
<rect x="10" y="12" width="122" height="100" stroke="#32CF2F" stroke-width="2"/>
<rect x="18" y="12" width="106" height="300" stroke="#ED56C2" stroke-width="2"/>
<path d="M153.498 28.4545V29.8182H149.557V28.4545H153.498ZM150.452 26.8864H152.267V32.9886C152.267 33.1562 152.292 33.2869 152.344 33.3807C152.395 33.4716 152.466 33.5355 152.557 33.5724C152.65 33.6094 152.758 33.6278 152.881 33.6278C152.966 33.6278 153.051 33.6207 153.136 33.6065C153.221 33.5895 153.287 33.5767 153.332 33.5682L153.618 34.919C153.527 34.9474 153.399 34.9801 153.234 35.017C153.069 35.0568 152.869 35.081 152.633 35.0895C152.196 35.1065 151.812 35.0483 151.483 34.9148C151.156 34.7812 150.902 34.5739 150.72 34.2926C150.538 34.0114 150.449 33.6562 150.452 33.2273V26.8864ZM154.441 35V28.4545H156.201V29.5966H156.269C156.388 29.1903 156.589 28.8835 156.87 28.6761C157.151 28.4659 157.475 28.3608 157.842 28.3608C157.932 28.3608 158.03 28.3665 158.136 28.3778C158.241 28.3892 158.333 28.4048 158.413 28.4247V30.0355C158.327 30.0099 158.209 29.9872 158.059 29.9673C157.908 29.9474 157.771 29.9375 157.646 29.9375C157.378 29.9375 157.14 29.9957 156.93 30.1122C156.722 30.2259 156.557 30.3849 156.435 30.5895C156.316 30.794 156.256 31.0298 156.256 31.2969V35H154.441ZM160.79 35.1236C160.373 35.1236 160 35.0511 159.674 34.9062C159.347 34.7585 159.088 34.5412 158.898 34.2543C158.711 33.9645 158.617 33.6037 158.617 33.1719C158.617 32.8082 158.684 32.5028 158.817 32.2557C158.951 32.0085 159.132 31.8097 159.363 31.6591C159.593 31.5085 159.854 31.3949 160.147 31.3182C160.442 31.2415 160.752 31.1875 161.076 31.1562C161.456 31.1165 161.763 31.0795 161.996 31.0455C162.229 31.0085 162.398 30.9545 162.503 30.8835C162.608 30.8125 162.661 30.7074 162.661 30.5682V30.5426C162.661 30.2727 162.576 30.0639 162.405 29.9162C162.238 29.7685 161.999 29.6946 161.689 29.6946C161.363 29.6946 161.103 29.767 160.909 29.9119C160.716 30.054 160.588 30.233 160.526 30.4489L158.847 30.3125C158.932 29.9148 159.1 29.571 159.35 29.2812C159.6 28.9886 159.922 28.7642 160.317 28.608C160.715 28.4489 161.175 28.3693 161.698 28.3693C162.061 28.3693 162.409 28.4119 162.742 28.4972C163.077 28.5824 163.374 28.7145 163.632 28.8935C163.894 29.0724 164.1 29.3026 164.25 29.5838C164.401 29.8622 164.476 30.196 164.476 30.5852V35H162.755V34.0923H162.703C162.598 34.2969 162.458 34.4773 162.282 34.6335C162.105 34.7869 161.894 34.9077 161.647 34.9957C161.4 35.081 161.114 35.1236 160.79 35.1236ZM161.31 33.8707C161.577 33.8707 161.813 33.8182 162.017 33.7131C162.222 33.6051 162.382 33.4602 162.499 33.2784C162.615 33.0966 162.674 32.8906 162.674 32.6605V31.9659C162.617 32.0028 162.539 32.0369 162.439 32.0682C162.343 32.0966 162.233 32.1236 162.111 32.1491C161.989 32.1719 161.867 32.1932 161.745 32.2131C161.623 32.2301 161.512 32.2457 161.412 32.2599C161.199 32.2912 161.013 32.3409 160.854 32.4091C160.695 32.4773 160.571 32.5696 160.483 32.6861C160.395 32.7997 160.351 32.9418 160.351 33.1122C160.351 33.3594 160.441 33.5483 160.62 33.679C160.801 33.8068 161.032 33.8707 161.31 33.8707ZM168.602 35.1278C167.932 35.1278 167.355 34.9858 166.872 34.7017C166.392 34.4148 166.022 34.017 165.764 33.5085C165.508 33 165.38 32.4148 165.38 31.7528C165.38 31.0824 165.51 30.4943 165.768 29.9886C166.03 29.4801 166.4 29.0838 166.88 28.7997C167.36 28.5128 167.932 28.3693 168.593 28.3693C169.164 28.3693 169.664 28.473 170.093 28.6804C170.522 28.8878 170.862 29.179 171.112 29.554C171.362 29.929 171.5 30.3693 171.525 30.875H169.812C169.764 30.5483 169.636 30.2855 169.429 30.0866C169.224 29.8849 168.956 29.7841 168.623 29.7841C168.342 29.7841 168.096 29.8608 167.886 30.0142C167.679 30.1648 167.517 30.3849 167.4 30.6747C167.284 30.9645 167.226 31.3153 167.226 31.7273C167.226 32.1449 167.282 32.5 167.396 32.7926C167.512 33.0852 167.676 33.3082 167.886 33.4616C168.096 33.6151 168.342 33.6918 168.623 33.6918C168.831 33.6918 169.017 33.6491 169.182 33.5639C169.349 33.4787 169.487 33.3551 169.595 33.1932C169.706 33.0284 169.778 32.831 169.812 32.6009H171.525C171.497 33.1009 171.36 33.5412 171.116 33.9219C170.875 34.2997 170.541 34.5952 170.115 34.8082C169.689 35.0213 169.184 35.1278 168.602 35.1278ZM174.092 33.1165L174.097 30.9389H174.361L176.458 28.4545H178.541L175.725 31.7443H175.294L174.092 33.1165ZM172.448 35V26.2727H174.263V35H172.448ZM176.538 35L174.612 32.1491L175.823 30.8665L178.665 35H176.538Z" fill="#ED56C2"/>
<line x1="27" y1="11" x2="116" y2="11" stroke="#8E1DD8" stroke-opacity="0.15" stroke-width="2" stroke-dasharray="8 8"/>
<line x1="27" y1="44.3333" x2="116" y2="44.3333" stroke="#8E1DD8" stroke-opacity="0.15" stroke-width="2" stroke-dasharray="8 8"/>
<line x1="27" y1="77.6667" x2="116" y2="77.6667" stroke="#8E1DD8" stroke-opacity="0.15" stroke-width="2" stroke-dasharray="8 8"/>
<line x1="27" y1="111" x2="116" y2="111" stroke="#8E1DD8" stroke-opacity="0.15" stroke-width="2" stroke-dasharray="8 8"/>
<line x1="27" y1="144.333" x2="116" y2="144.333" stroke="#8E1DD8" stroke-opacity="0.15" stroke-width="2" stroke-dasharray="8 8"/>
<line x1="27" y1="177.667" x2="116" y2="177.667" stroke="#8E1DD8" stroke-opacity="0.15" stroke-width="2" stroke-dasharray="8 8"/>
<line x1="27" y1="211" x2="116" y2="211" stroke="#8E1DD8" stroke-opacity="0.15" stroke-width="2" stroke-dasharray="8 8"/>
<line x1="27" y1="244.333" x2="116" y2="244.333" stroke="#8E1DD8" stroke-opacity="0.15" stroke-width="2" stroke-dasharray="8 8"/>
<line x1="27" y1="277.667" x2="116" y2="277.667" stroke="#8E1DD8" stroke-opacity="0.15" stroke-width="2" stroke-dasharray="8 8"/>
<line x1="27" y1="311" x2="116" y2="311" stroke="#8E1DD8" stroke-opacity="0.15" stroke-width="2" stroke-dasharray="8 8"/>
<line x1="27" y1="344.333" x2="116" y2="344.333" stroke="#8E1DD8" stroke-opacity="0.15" stroke-width="2" stroke-dasharray="8 8"/>
<line x1="27" y1="377.667" x2="116" y2="377.667" stroke="#8E1DD8" stroke-opacity="0.15" stroke-width="2" stroke-dasharray="8 8"/>
<line x1="27" y1="411" x2="116" y2="411" stroke="#8E1DD8" stroke-opacity="0.15" stroke-width="2" stroke-dasharray="8 8"/>
<line x1="27" y1="444.333" x2="116" y2="444.333" stroke="#8E1DD8" stroke-opacity="0.15" stroke-width="2" stroke-dasharray="8 8"/>
<line x1="27" y1="477.667" x2="116" y2="477.667" stroke="#8E1DD8" stroke-opacity="0.15" stroke-width="2" stroke-dasharray="8 8"/>
<line x1="27" y1="511" x2="116" y2="511" stroke="#8E1DD8" stroke-opacity="0.15" stroke-width="2" stroke-dasharray="8 8"/>
<rect x="26" y="12" width="90" height="100" stroke="#8E1DD8" stroke-width="2"/>
<rect x="26" y="112" width="90" height="100" stroke="#8E1DD8" stroke-width="2"/>
<rect x="26" y="212" width="90" height="100" stroke="#8E1DD8" stroke-width="2"/>
<path d="M42.5775 61.321L40.9156 61.4233C40.8871 61.2812 40.8261 61.1534 40.7323 61.0398C40.6386 60.9233 40.515 60.831 40.3616 60.7628C40.211 60.6918 40.0306 60.6562 39.8204 60.6562C39.5391 60.6562 39.3019 60.7159 39.1087 60.8352C38.9156 60.9517 38.819 61.108 38.819 61.304C38.819 61.4602 38.8815 61.5923 39.0065 61.7003C39.1315 61.8082 39.346 61.8949 39.6499 61.9602L40.8346 62.1989C41.471 62.3295 41.9454 62.5398 42.2579 62.8295C42.5704 63.1193 42.7266 63.5 42.7266 63.9716C42.7266 64.4006 42.6002 64.777 42.3474 65.1009C42.0974 65.4247 41.7536 65.6776 41.3161 65.8594C40.8815 66.0384 40.38 66.1278 39.8119 66.1278C38.9454 66.1278 38.255 65.9474 37.7408 65.5866C37.2295 65.223 36.9298 64.7287 36.8417 64.1037L38.6272 64.0099C38.6812 64.2741 38.8119 64.4759 39.0192 64.6151C39.2266 64.7514 39.4923 64.8196 39.8161 64.8196C40.1343 64.8196 40.39 64.7585 40.5832 64.6364C40.7792 64.5114 40.8786 64.3509 40.8815 64.1548C40.8786 63.9901 40.809 63.8551 40.6727 63.75C40.5363 63.642 40.3261 63.5597 40.042 63.5028L38.9085 63.277C38.2692 63.1491 37.7934 62.9276 37.4809 62.6122C37.1712 62.2969 37.0164 61.8949 37.0164 61.4062C37.0164 60.9858 37.13 60.6236 37.3573 60.3196C37.5874 60.0156 37.9099 59.7812 38.3246 59.6165C38.7423 59.4517 39.2309 59.3693 39.7906 59.3693C40.6173 59.3693 41.2678 59.544 41.7423 59.8935C42.2195 60.2429 42.4979 60.7187 42.5775 61.321ZM47.8272 63.2131V59.4545H49.6425V66H47.8996V64.8111H47.8314C47.6837 65.1946 47.438 65.5028 47.0942 65.7358C46.7533 65.9687 46.3371 66.0852 45.8457 66.0852C45.4082 66.0852 45.0232 65.9858 44.6908 65.7869C44.3584 65.5881 44.0985 65.3054 43.911 64.9389C43.7263 64.5724 43.6326 64.1335 43.6297 63.6222V59.4545H45.4451V63.2983C45.4479 63.6847 45.5516 63.9901 45.7562 64.2145C45.9607 64.4389 46.2349 64.5511 46.5786 64.5511C46.7974 64.5511 47.0019 64.5014 47.1922 64.402C47.3826 64.2997 47.536 64.1491 47.6525 63.9503C47.7718 63.7514 47.83 63.5057 47.8272 63.2131ZM50.8887 66V57.2727H52.704V60.554H52.7594C52.839 60.3778 52.954 60.1989 53.1046 60.017C53.258 59.8324 53.4569 59.679 53.7012 59.5568C53.9483 59.4318 54.2552 59.3693 54.6216 59.3693C55.0989 59.3693 55.5392 59.4943 55.9427 59.7443C56.3461 59.9915 56.6685 60.3651 56.91 60.8651C57.1515 61.3622 57.2722 61.9858 57.2722 62.7358C57.2722 63.4659 57.1543 64.0824 56.9185 64.5852C56.6856 65.0852 56.3674 65.4645 55.964 65.723C55.5634 65.9787 55.1145 66.1065 54.6174 66.1065C54.2651 66.1065 53.9654 66.0483 53.7182 65.9318C53.4739 65.8153 53.2736 65.669 53.1174 65.4929C52.9611 65.3139 52.8418 65.1335 52.7594 64.9517H52.6785V66H50.8887ZM52.6657 62.7273C52.6657 63.1165 52.7196 63.456 52.8276 63.7457C52.9356 64.0355 53.0918 64.2614 53.2964 64.4233C53.5009 64.5824 53.7495 64.6619 54.0421 64.6619C54.3375 64.6619 54.5875 64.581 54.7921 64.419C54.9966 64.2543 55.1515 64.027 55.2566 63.7372C55.3645 63.4446 55.4185 63.108 55.4185 62.7273C55.4185 62.3494 55.366 62.017 55.2608 61.7301C55.1557 61.4432 55.0009 61.2187 54.7964 61.0568C54.5918 60.8949 54.3404 60.8139 54.0421 60.8139C53.7466 60.8139 53.4966 60.892 53.2921 61.0483C53.0904 61.2045 52.9356 61.4261 52.8276 61.7131C52.7196 62 52.6657 62.3381 52.6657 62.7273ZM62.3216 61.696V63.1364H58.3415V61.696H62.3216ZM67.11 59.4545V60.8182H63.1683V59.4545H67.11ZM64.0632 57.8864H65.8785V63.9886C65.8785 64.1562 65.9041 64.2869 65.9552 64.3807C66.0063 64.4716 66.0774 64.5355 66.1683 64.5724C66.262 64.6094 66.37 64.6278 66.4921 64.6278C66.5774 64.6278 66.6626 64.6207 66.7478 64.6065C66.833 64.5895 66.8984 64.5767 66.9438 64.5682L67.2293 65.919C67.1384 65.9474 67.0106 65.9801 66.8458 66.017C66.6811 66.0568 66.4808 66.081 66.245 66.0895C65.8075 66.1065 65.424 66.0483 65.0944 65.9148C64.7677 65.7812 64.5134 65.5739 64.3316 65.2926C64.1498 65.0114 64.0603 64.6562 64.0632 64.2273V57.8864ZM68.0526 66V59.4545H69.8125V60.5966H69.8807C70 60.1903 70.2003 59.8835 70.4815 59.6761C70.7628 59.4659 71.0866 59.3608 71.4531 59.3608C71.544 59.3608 71.642 59.3665 71.7472 59.3778C71.8523 59.3892 71.9446 59.4048 72.0241 59.4247V61.0355C71.9389 61.0099 71.821 60.9872 71.6705 60.9673C71.5199 60.9474 71.3821 60.9375 71.2571 60.9375C70.9901 60.9375 70.7514 60.9957 70.5412 61.1122C70.3338 61.2259 70.169 61.3849 70.0469 61.5895C69.9276 61.794 69.8679 62.0298 69.8679 62.2969V66H68.0526ZM74.4017 66.1236C73.9841 66.1236 73.6119 66.0511 73.2852 65.9062C72.9585 65.7585 72.7 65.5412 72.5096 65.2543C72.3221 64.9645 72.2284 64.6037 72.2284 64.1719C72.2284 63.8082 72.2952 63.5028 72.4287 63.2557C72.5622 63.0085 72.744 62.8097 72.9741 62.6591C73.2042 62.5085 73.4656 62.3949 73.7582 62.3182C74.0537 62.2415 74.3633 62.1875 74.6872 62.1562C75.0679 62.1165 75.3747 62.0795 75.6077 62.0455C75.8406 62.0085 76.0096 61.9545 76.1148 61.8835C76.2199 61.8125 76.2724 61.7074 76.2724 61.5682V61.5426C76.2724 61.2727 76.1872 61.0639 76.0167 60.9162C75.8491 60.7685 75.6105 60.6946 75.3008 60.6946C74.9741 60.6946 74.7142 60.767 74.521 60.9119C74.3278 61.054 74.2 61.233 74.1375 61.4489L72.4585 61.3125C72.5437 60.9148 72.7114 60.571 72.9614 60.2812C73.2114 59.9886 73.5338 59.7642 73.9287 59.608C74.3264 59.4489 74.7866 59.3693 75.3094 59.3693C75.673 59.3693 76.021 59.4119 76.3534 59.4972C76.6886 59.5824 76.9855 59.7145 77.244 59.8935C77.5054 60.0724 77.7114 60.3026 77.8619 60.5838C78.0125 60.8622 78.0878 61.196 78.0878 61.5852V66H76.3662V65.0923H76.315C76.2099 65.2969 76.0693 65.4773 75.8932 65.6335C75.717 65.7869 75.5054 65.9077 75.2582 65.9957C75.0111 66.081 74.7256 66.1236 74.4017 66.1236ZM74.9216 64.8707C75.1886 64.8707 75.4244 64.8182 75.629 64.7131C75.8335 64.6051 75.994 64.4602 76.1105 64.2784C76.227 64.0966 76.2852 63.8906 76.2852 63.6605V62.9659C76.2284 63.0028 76.1503 63.0369 76.0508 63.0682C75.9542 63.0966 75.8449 63.1236 75.7227 63.1491C75.6006 63.1719 75.4784 63.1932 75.3562 63.2131C75.2341 63.2301 75.1233 63.2457 75.0239 63.2599C74.8108 63.2912 74.6247 63.3409 74.4656 63.4091C74.3065 63.4773 74.1829 63.5696 74.0949 63.6861C74.0068 63.7997 73.9628 63.9418 73.9628 64.1122C73.9628 64.3594 74.0523 64.5483 74.2312 64.679C74.4131 64.8068 74.6432 64.8707 74.9216 64.8707ZM82.2135 66.1278C81.5431 66.1278 80.9664 65.9858 80.4834 65.7017C80.0033 65.4148 79.634 65.017 79.3755 64.5085C79.1198 64 78.9919 63.4148 78.9919 62.7528C78.9919 62.0824 79.1212 61.4943 79.3797 60.9886C79.6411 60.4801 80.0118 60.0838 80.4919 59.7997C80.9721 59.5128 81.5431 59.3693 82.205 59.3693C82.776 59.3693 83.276 59.473 83.705 59.6804C84.134 59.8878 84.4735 60.179 84.7235 60.554C84.9735 60.929 85.1113 61.3693 85.1368 61.875H83.4238C83.3755 61.5483 83.2476 61.2855 83.0402 61.0866C82.8357 60.8849 82.5672 60.7841 82.2348 60.7841C81.9536 60.7841 81.7079 60.8608 81.4976 61.0142C81.2902 61.1648 81.1283 61.3849 81.0118 61.6747C80.8954 61.9645 80.8371 62.3153 80.8371 62.7273C80.8371 63.1449 80.8939 63.5 81.0076 63.7926C81.124 64.0852 81.2874 64.3082 81.4976 64.4616C81.7079 64.6151 81.9536 64.6918 82.2348 64.6918C82.4422 64.6918 82.6283 64.6491 82.7931 64.5639C82.9607 64.4787 83.0985 64.3551 83.2064 64.1932C83.3172 64.0284 83.3897 63.831 83.4238 63.6009H85.1368C85.1084 64.1009 84.9721 64.5412 84.7277 64.9219C84.4863 65.2997 84.1525 65.5952 83.7263 65.8082C83.3002 66.0213 82.7959 66.1278 82.2135 66.1278ZM87.704 64.1165L87.7083 61.9389H87.9725L90.0691 59.4545H92.1529L89.3361 62.7443H88.9057L87.704 64.1165ZM86.0591 66V57.2727H87.8745V66H86.0591ZM90.15 66L88.2239 63.1491L89.4341 61.8665L92.2765 66H90.15ZM96.8792 66H94.9019L97.9147 57.2727H100.293L103.301 66H101.324L99.1377 59.267H99.0695L96.8792 66ZM96.7556 62.5696H101.426V64.0099H96.7556V62.5696Z" fill="#8E1DD8"/>
<path d="M44.599 161.321L42.937 161.423C42.9086 161.281 42.8476 161.153 42.7538 161.04C42.6601 160.923 42.5365 160.831 42.3831 160.763C42.2325 160.692 42.0521 160.656 41.8419 160.656C41.5606 160.656 41.3234 160.716 41.1302 160.835C40.937 160.952 40.8404 161.108 40.8404 161.304C40.8404 161.46 40.9029 161.592 41.0279 161.7C41.1529 161.808 41.3674 161.895 41.6714 161.96L42.8561 162.199C43.4924 162.33 43.9669 162.54 44.2794 162.83C44.5919 163.119 44.7481 163.5 44.7481 163.972C44.7481 164.401 44.6217 164.777 44.3689 165.101C44.1189 165.425 43.7751 165.678 43.3376 165.859C42.9029 166.038 42.4015 166.128 41.8333 166.128C40.9669 166.128 40.2765 165.947 39.7623 165.587C39.251 165.223 38.9512 164.729 38.8632 164.104L40.6487 164.01C40.7027 164.274 40.8333 164.476 41.0407 164.615C41.2481 164.751 41.5137 164.82 41.8376 164.82C42.1558 164.82 42.4115 164.759 42.6047 164.636C42.8007 164.511 42.9001 164.351 42.9029 164.155C42.9001 163.99 42.8305 163.855 42.6941 163.75C42.5578 163.642 42.3476 163.56 42.0635 163.503L40.9299 163.277C40.2907 163.149 39.8149 162.928 39.5024 162.612C39.1927 162.297 39.0379 161.895 39.0379 161.406C39.0379 160.986 39.1515 160.624 39.3788 160.32C39.6089 160.016 39.9314 159.781 40.3461 159.616C40.7637 159.452 41.2524 159.369 41.812 159.369C42.6387 159.369 43.2893 159.544 43.7637 159.893C44.241 160.243 44.5194 160.719 44.599 161.321ZM49.8487 163.213V159.455H51.664V166H49.9211V164.811H49.8529C49.7052 165.195 49.4595 165.503 49.1157 165.736C48.7748 165.969 48.3586 166.085 47.8671 166.085C47.4296 166.085 47.0447 165.986 46.7123 165.787C46.3799 165.588 46.12 165.305 45.9325 164.939C45.7478 164.572 45.6541 164.134 45.6512 163.622V159.455H47.4666V163.298C47.4694 163.685 47.5731 163.99 47.7777 164.214C47.9822 164.439 48.2563 164.551 48.6001 164.551C48.8188 164.551 49.0234 164.501 49.2137 164.402C49.4041 164.3 49.5575 164.149 49.674 163.95C49.7933 163.751 49.8515 163.506 49.8487 163.213ZM52.9102 166V157.273H54.7255V160.554H54.7809C54.8604 160.378 54.9755 160.199 55.1261 160.017C55.2795 159.832 55.4783 159.679 55.7227 159.557C55.9698 159.432 56.2766 159.369 56.6431 159.369C57.1204 159.369 57.5607 159.494 57.9641 159.744C58.3676 159.991 58.69 160.365 58.9315 160.865C59.1729 161.362 59.2937 161.986 59.2937 162.736C59.2937 163.466 59.1758 164.082 58.94 164.585C58.707 165.085 58.3889 165.464 57.9854 165.723C57.5849 165.979 57.136 166.107 56.6389 166.107C56.2866 166.107 55.9869 166.048 55.7397 165.932C55.4954 165.815 55.2951 165.669 55.1389 165.493C54.9826 165.314 54.8633 165.134 54.7809 164.952H54.6999V166H52.9102ZM54.6872 162.727C54.6872 163.116 54.7411 163.456 54.8491 163.746C54.957 164.036 55.1133 164.261 55.3178 164.423C55.5224 164.582 55.771 164.662 56.0636 164.662C56.359 164.662 56.609 164.581 56.8136 164.419C57.0181 164.254 57.1729 164.027 57.2781 163.737C57.386 163.445 57.44 163.108 57.44 162.727C57.44 162.349 57.3874 162.017 57.2823 161.73C57.1772 161.443 57.0224 161.219 56.8178 161.057C56.6133 160.895 56.3619 160.814 56.0636 160.814C55.7681 160.814 55.5181 160.892 55.3136 161.048C55.1119 161.205 54.957 161.426 54.8491 161.713C54.7411 162 54.6872 162.338 54.6872 162.727ZM64.3431 161.696V163.136H60.363V161.696H64.3431ZM69.1315 159.455V160.818H65.1898V159.455H69.1315ZM66.0846 157.886H67.9V163.989C67.9 164.156 67.9255 164.287 67.9767 164.381C68.0278 164.472 68.0988 164.536 68.1898 164.572C68.2835 164.609 68.3915 164.628 68.5136 164.628C68.5988 164.628 68.6841 164.621 68.7693 164.607C68.8545 164.589 68.9199 164.577 68.9653 164.568L69.2508 165.919C69.1599 165.947 69.0321 165.98 68.8673 166.017C68.7025 166.057 68.5023 166.081 68.2665 166.089C67.829 166.107 67.4454 166.048 67.1159 165.915C66.7892 165.781 66.5349 165.574 66.3531 165.293C66.1713 165.011 66.0818 164.656 66.0846 164.227V157.886ZM70.074 166V159.455H71.834V160.597H71.9022C72.0215 160.19 72.2218 159.884 72.503 159.676C72.7843 159.466 73.1081 159.361 73.4746 159.361C73.5655 159.361 73.6635 159.366 73.7686 159.378C73.8738 159.389 73.9661 159.405 74.0456 159.425V161.036C73.9604 161.01 73.8425 160.987 73.6919 160.967C73.5414 160.947 73.4036 160.938 73.2786 160.938C73.0115 160.938 72.7729 160.996 72.5627 161.112C72.3553 161.226 72.1905 161.385 72.0684 161.589C71.949 161.794 71.8894 162.03 71.8894 162.297V166H70.074ZM76.4232 166.124C76.0056 166.124 75.6334 166.051 75.3067 165.906C74.98 165.759 74.7215 165.541 74.5311 165.254C74.3436 164.964 74.2499 164.604 74.2499 164.172C74.2499 163.808 74.3166 163.503 74.4502 163.256C74.5837 163.009 74.7655 162.81 74.9956 162.659C75.2257 162.509 75.4871 162.395 75.7797 162.318C76.0752 162.241 76.3848 162.188 76.7087 162.156C77.0894 162.116 77.3962 162.08 77.6291 162.045C77.8621 162.009 78.0311 161.955 78.1362 161.884C78.2414 161.812 78.2939 161.707 78.2939 161.568V161.543C78.2939 161.273 78.2087 161.064 78.0382 160.916C77.8706 160.768 77.632 160.695 77.3223 160.695C76.9956 160.695 76.7357 160.767 76.5425 160.912C76.3493 161.054 76.2215 161.233 76.159 161.449L74.48 161.312C74.5652 160.915 74.7328 160.571 74.9828 160.281C75.2328 159.989 75.5553 159.764 75.9502 159.608C76.3479 159.449 76.8081 159.369 77.3308 159.369C77.6945 159.369 78.0425 159.412 78.3749 159.497C78.7101 159.582 79.007 159.714 79.2655 159.893C79.5269 160.072 79.7328 160.303 79.8834 160.584C80.034 160.862 80.1093 161.196 80.1093 161.585V166H78.3877V165.092H78.3365C78.2314 165.297 78.0908 165.477 77.9147 165.634C77.7385 165.787 77.5269 165.908 77.2797 165.996C77.0326 166.081 76.747 166.124 76.4232 166.124ZM76.9431 164.871C77.2101 164.871 77.4459 164.818 77.6504 164.713C77.855 164.605 78.0155 164.46 78.132 164.278C78.2485 164.097 78.3067 163.891 78.3067 163.661V162.966C78.2499 163.003 78.1718 163.037 78.0723 163.068C77.9757 163.097 77.8664 163.124 77.7442 163.149C77.622 163.172 77.4999 163.193 77.3777 163.213C77.2556 163.23 77.1448 163.246 77.0453 163.26C76.8323 163.291 76.6462 163.341 76.4871 163.409C76.328 163.477 76.2044 163.57 76.1164 163.686C76.0283 163.8 75.9843 163.942 75.9843 164.112C75.9843 164.359 76.0737 164.548 76.2527 164.679C76.4345 164.807 76.6647 164.871 76.9431 164.871ZM84.235 166.128C83.5646 166.128 82.9879 165.986 82.5049 165.702C82.0248 165.415 81.6555 165.017 81.397 164.509C81.1413 164 81.0134 163.415 81.0134 162.753C81.0134 162.082 81.1427 161.494 81.4012 160.989C81.6626 160.48 82.0333 160.084 82.5134 159.8C82.9935 159.513 83.5646 159.369 84.2265 159.369C84.7975 159.369 85.2975 159.473 85.7265 159.68C86.1555 159.888 86.495 160.179 86.745 160.554C86.995 160.929 87.1327 161.369 87.1583 161.875H85.4452C85.397 161.548 85.2691 161.286 85.0617 161.087C84.8572 160.885 84.5887 160.784 84.2563 160.784C83.9751 160.784 83.7293 160.861 83.5191 161.014C83.3117 161.165 83.1498 161.385 83.0333 161.675C82.9168 161.964 82.8586 162.315 82.8586 162.727C82.8586 163.145 82.9154 163.5 83.0291 163.793C83.1455 164.085 83.3089 164.308 83.5191 164.462C83.7293 164.615 83.9751 164.692 84.2563 164.692C84.4637 164.692 84.6498 164.649 84.8146 164.564C84.9822 164.479 85.12 164.355 85.2279 164.193C85.3387 164.028 85.4112 163.831 85.4452 163.601H87.1583C87.1299 164.101 86.9935 164.541 86.7492 164.922C86.5077 165.3 86.1739 165.595 85.7478 165.808C85.3217 166.021 84.8174 166.128 84.235 166.128ZM89.7255 164.116L89.7298 161.939H89.994L92.0905 159.455H94.1744L91.3576 162.744H90.9272L89.7255 164.116ZM88.0806 166V157.273H89.8959V166H88.0806ZM92.1715 166L90.2454 163.149L91.4556 161.866L94.2979 166H92.1715ZM97.3964 166V157.273H100.891C101.533 157.273 102.068 157.368 102.497 157.558C102.926 157.749 103.249 158.013 103.465 158.351C103.681 158.686 103.788 159.072 103.788 159.51C103.788 159.851 103.72 160.151 103.584 160.409C103.448 160.665 103.26 160.875 103.021 161.04C102.786 161.202 102.516 161.317 102.212 161.385V161.47C102.544 161.484 102.855 161.578 103.145 161.751C103.438 161.925 103.675 162.168 103.857 162.48C104.038 162.79 104.129 163.159 104.129 163.588C104.129 164.051 104.014 164.464 103.784 164.828C103.557 165.189 103.22 165.474 102.774 165.685C102.328 165.895 101.779 166 101.125 166H97.3964ZM99.2416 164.491H100.746C101.26 164.491 101.635 164.393 101.871 164.197C102.107 163.999 102.225 163.734 102.225 163.405C102.225 163.163 102.166 162.95 102.05 162.766C101.933 162.581 101.767 162.436 101.551 162.331C101.338 162.226 101.084 162.173 100.788 162.173H99.2416V164.491ZM99.2416 160.925H100.609C100.862 160.925 101.087 160.881 101.283 160.793C101.482 160.702 101.638 160.574 101.752 160.409C101.868 160.244 101.926 160.047 101.926 159.817C101.926 159.501 101.814 159.247 101.59 159.054C101.368 158.861 101.053 158.764 100.644 158.764H99.2416V160.925Z" fill="#8E1DD8"/>
<path d="M43.554 261.321L41.8921 261.423C41.8637 261.281 41.8026 261.153 41.7089 261.04C41.6151 260.923 41.4915 260.831 41.3381 260.763C41.1876 260.692 41.0072 260.656 40.7969 260.656C40.5157 260.656 40.2785 260.716 40.0853 260.835C39.8921 260.952 39.7955 261.108 39.7955 261.304C39.7955 261.46 39.858 261.592 39.983 261.7C40.108 261.808 40.3225 261.895 40.6265 261.96L41.8112 262.199C42.4475 262.33 42.9219 262.54 43.2344 262.83C43.5469 263.119 43.7032 263.5 43.7032 263.972C43.7032 264.401 43.5768 264.777 43.3239 265.101C43.0739 265.425 42.7302 265.678 42.2927 265.859C41.858 266.038 41.3566 266.128 40.7884 266.128C39.9219 266.128 39.2316 265.947 38.7174 265.587C38.206 265.223 37.9063 264.729 37.8183 264.104L39.6038 264.01C39.6577 264.274 39.7884 264.476 39.9958 264.615C40.2032 264.751 40.4688 264.82 40.7927 264.82C41.1109 264.82 41.3665 264.759 41.5597 264.636C41.7558 264.511 41.8552 264.351 41.858 264.155C41.8552 263.99 41.7856 263.855 41.6492 263.75C41.5129 263.642 41.3026 263.56 41.0185 263.503L39.885 263.277C39.2458 263.149 38.77 262.928 38.4575 262.612C38.1478 262.297 37.993 261.895 37.993 261.406C37.993 260.986 38.1066 260.624 38.3339 260.32C38.564 260.016 38.8864 259.781 39.3012 259.616C39.7188 259.452 40.2075 259.369 40.7671 259.369C41.5938 259.369 42.2444 259.544 42.7188 259.893C43.1961 260.243 43.4745 260.719 43.554 261.321ZM48.8038 263.213V259.455H50.6191V266H48.8762V264.811H48.808C48.6603 265.195 48.4145 265.503 48.0708 265.736C47.7299 265.969 47.3137 266.085 46.8222 266.085C46.3847 266.085 45.9998 265.986 45.6674 265.787C45.335 265.588 45.0751 265.305 44.8876 264.939C44.7029 264.572 44.6091 264.134 44.6063 263.622V259.455H46.4216V263.298C46.4245 263.685 46.5282 263.99 46.7327 264.214C46.9373 264.439 47.2114 264.551 47.5552 264.551C47.7739 264.551 47.9785 264.501 48.1688 264.402C48.3591 264.3 48.5126 264.149 48.629 263.95C48.7484 263.751 48.8066 263.506 48.8038 263.213ZM51.8652 266V257.273H53.6806V260.554H53.736C53.8155 260.378 53.9306 260.199 54.0812 260.017C54.2346 259.832 54.4334 259.679 54.6777 259.557C54.9249 259.432 55.2317 259.369 55.5982 259.369C56.0755 259.369 56.5158 259.494 56.9192 259.744C57.3226 259.991 57.6451 260.365 57.8865 260.865C58.128 261.362 58.2488 261.986 58.2488 262.736C58.2488 263.466 58.1309 264.082 57.8951 264.585C57.6621 265.085 57.3439 265.464 56.9405 265.723C56.54 265.979 56.0911 266.107 55.5939 266.107C55.2417 266.107 54.9419 266.048 54.6948 265.932C54.4505 265.815 54.2502 265.669 54.0939 265.493C53.9377 265.314 53.8184 265.134 53.736 264.952H53.655V266H51.8652ZM53.6422 262.727C53.6422 263.116 53.6962 263.456 53.8042 263.746C53.9121 264.036 54.0684 264.261 54.2729 264.423C54.4775 264.582 54.726 264.662 55.0187 264.662C55.3141 264.662 55.5641 264.581 55.7687 264.419C55.9732 264.254 56.128 264.027 56.2331 263.737C56.3411 263.445 56.3951 263.108 56.3951 262.727C56.3951 262.349 56.3425 262.017 56.2374 261.73C56.1323 261.443 55.9775 261.219 55.7729 261.057C55.5684 260.895 55.3169 260.814 55.0187 260.814C54.7232 260.814 54.4732 260.892 54.2687 261.048C54.0669 261.205 53.9121 261.426 53.8042 261.713C53.6962 262 53.6422 262.338 53.6422 262.727ZM63.2982 261.696V263.136H59.3181V261.696H63.2982ZM68.0866 259.455V260.818H64.1448V259.455H68.0866ZM65.0397 257.886H66.8551V263.989C66.8551 264.156 66.8806 264.287 66.9318 264.381C66.9829 264.472 67.0539 264.536 67.1448 264.572C67.2386 264.609 67.3465 264.628 67.4687 264.628C67.5539 264.628 67.6391 264.621 67.7244 264.607C67.8096 264.589 67.8749 264.577 67.9204 264.568L68.2059 265.919C68.115 265.947 67.9872 265.98 67.8224 266.017C67.6576 266.057 67.4573 266.081 67.2215 266.089C66.784 266.107 66.4005 266.048 66.071 265.915C65.7443 265.781 65.49 265.574 65.3082 265.293C65.1264 265.011 65.0369 264.656 65.0397 264.227V257.886ZM69.0291 266V259.455H70.7891V260.597H70.8572C70.9766 260.19 71.1768 259.884 71.4581 259.676C71.7393 259.466 72.0632 259.361 72.4297 259.361C72.5206 259.361 72.6186 259.366 72.7237 259.378C72.8288 259.389 72.9212 259.405 73.0007 259.425V261.036C72.9155 261.01 72.7976 260.987 72.647 260.967C72.4964 260.947 72.3587 260.938 72.2337 260.938C71.9666 260.938 71.728 260.996 71.5178 261.112C71.3104 261.226 71.1456 261.385 71.0234 261.589C70.9041 261.794 70.8445 262.03 70.8445 262.297V266H69.0291ZM75.3783 266.124C74.9606 266.124 74.5885 266.051 74.2618 265.906C73.9351 265.759 73.6766 265.541 73.4862 265.254C73.2987 264.964 73.205 264.604 73.205 264.172C73.205 263.808 73.2717 263.503 73.4052 263.256C73.5388 263.009 73.7206 262.81 73.9507 262.659C74.1808 262.509 74.4422 262.395 74.7348 262.318C75.0302 262.241 75.3399 262.188 75.6638 262.156C76.0444 262.116 76.3513 262.08 76.5842 262.045C76.8172 262.009 76.9862 261.955 77.0913 261.884C77.1964 261.812 77.249 261.707 77.249 261.568V261.543C77.249 261.273 77.1638 261.064 76.9933 260.916C76.8257 260.768 76.5871 260.695 76.2774 260.695C75.9507 260.695 75.6908 260.767 75.4976 260.912C75.3044 261.054 75.1766 261.233 75.1141 261.449L73.4351 261.312C73.5203 260.915 73.6879 260.571 73.9379 260.281C74.1879 259.989 74.5104 259.764 74.9052 259.608C75.303 259.449 75.7632 259.369 76.2859 259.369C76.6496 259.369 76.9976 259.412 77.33 259.497C77.6652 259.582 77.9621 259.714 78.2206 259.893C78.4819 260.072 78.6879 260.303 78.8385 260.584C78.9891 260.862 79.0643 261.196 79.0643 261.585V266H77.3427V265.092H77.2916C77.1865 265.297 77.0459 265.477 76.8697 265.634C76.6936 265.787 76.4819 265.908 76.2348 265.996C75.9876 266.081 75.7021 266.124 75.3783 266.124ZM75.8981 264.871C76.1652 264.871 76.401 264.818 76.6055 264.713C76.8101 264.605 76.9706 264.46 77.0871 264.278C77.2035 264.097 77.2618 263.891 77.2618 263.661V262.966C77.205 263.003 77.1268 263.037 77.0274 263.068C76.9308 263.097 76.8214 263.124 76.6993 263.149C76.5771 263.172 76.455 263.193 76.3328 263.213C76.2106 263.23 76.0998 263.246 76.0004 263.26C75.7873 263.291 75.6013 263.341 75.4422 263.409C75.2831 263.477 75.1595 263.57 75.0714 263.686C74.9834 263.8 74.9393 263.942 74.9393 264.112C74.9393 264.359 75.0288 264.548 75.2078 264.679C75.3896 264.807 75.6197 264.871 75.8981 264.871ZM83.1901 266.128C82.5196 266.128 81.9429 265.986 81.46 265.702C80.9799 265.415 80.6106 265.017 80.352 264.509C80.0963 264 79.9685 263.415 79.9685 262.753C79.9685 262.082 80.0978 261.494 80.3563 260.989C80.6177 260.48 80.9884 260.084 81.4685 259.8C81.9486 259.513 82.5196 259.369 83.1816 259.369C83.7526 259.369 84.2526 259.473 84.6816 259.68C85.1106 259.888 85.45 260.179 85.7 260.554C85.95 260.929 86.0878 261.369 86.1134 261.875H84.4003C84.352 261.548 84.2242 261.286 84.0168 261.087C83.8123 260.885 83.5438 260.784 83.2114 260.784C82.9302 260.784 82.6844 260.861 82.4742 261.014C82.2668 261.165 82.1049 261.385 81.9884 261.675C81.8719 261.964 81.8137 262.315 81.8137 262.727C81.8137 263.145 81.8705 263.5 81.9841 263.793C82.1006 264.085 82.264 264.308 82.4742 264.462C82.6844 264.615 82.9302 264.692 83.2114 264.692C83.4188 264.692 83.6049 264.649 83.7696 264.564C83.9373 264.479 84.075 264.355 84.183 264.193C84.2938 264.028 84.3662 263.831 84.4003 263.601H86.1134C86.085 264.101 85.9486 264.541 85.7043 264.922C85.4628 265.3 85.129 265.595 84.7029 265.808C84.2767 266.021 83.7725 266.128 83.1901 266.128ZM88.6806 264.116L88.6848 261.939H88.949L91.0456 259.455H93.1294L90.3127 262.744H89.8823L88.6806 264.116ZM87.0357 266V257.273H88.851V266H87.0357ZM91.1266 266L89.2005 263.149L90.4107 261.866L93.253 266H91.1266ZM104.052 260.328H102.185C102.151 260.087 102.082 259.872 101.976 259.685C101.871 259.494 101.736 259.332 101.572 259.199C101.407 259.065 101.217 258.963 101.001 258.892C100.788 258.821 100.556 258.786 100.306 258.786C99.8543 258.786 99.4609 258.898 99.1256 259.122C98.7904 259.344 98.5305 259.668 98.3458 260.094C98.1611 260.517 98.0688 261.031 98.0688 261.636C98.0688 262.259 98.1611 262.781 98.3458 263.205C98.5333 263.628 98.7947 263.947 99.1299 264.163C99.4651 264.379 99.8529 264.487 100.293 264.487C100.54 264.487 100.769 264.455 100.979 264.389C101.192 264.324 101.381 264.229 101.546 264.104C101.711 263.976 101.847 263.821 101.955 263.639C102.066 263.457 102.143 263.25 102.185 263.017L104.052 263.026C104.003 263.426 103.883 263.812 103.69 264.185C103.499 264.554 103.242 264.885 102.918 265.178C102.597 265.467 102.214 265.697 101.768 265.868C101.325 266.036 100.823 266.119 100.263 266.119C99.485 266.119 98.789 265.943 98.1754 265.591C97.5646 265.239 97.0816 264.729 96.7265 264.061C96.3742 263.393 96.1981 262.585 96.1981 261.636C96.1981 260.685 96.3771 259.875 96.735 259.207C97.093 258.54 97.5788 258.031 98.1924 257.682C98.806 257.33 99.4964 257.153 100.263 257.153C100.769 257.153 101.238 257.224 101.67 257.366C102.104 257.509 102.489 257.716 102.825 257.989C103.16 258.259 103.432 258.589 103.643 258.982C103.856 259.374 103.992 259.822 104.052 260.328Z" fill="#8E1DD8"/>
<rect x="26" y="312" width="90" height="100" stroke="#8E1DD8" stroke-width="2"/>
<rect x="26" y="412" width="90" height="100" stroke="#8E1DD8" stroke-width="2"/>
<path d="M42.5775 361.321L40.9156 361.423C40.8871 361.281 40.8261 361.153 40.7323 361.04C40.6386 360.923 40.515 360.831 40.3616 360.763C40.211 360.692 40.0306 360.656 39.8204 360.656C39.5391 360.656 39.3019 360.716 39.1087 360.835C38.9156 360.952 38.819 361.108 38.819 361.304C38.819 361.46 38.8815 361.592 39.0065 361.7C39.1315 361.808 39.346 361.895 39.6499 361.96L40.8346 362.199C41.471 362.33 41.9454 362.54 42.2579 362.83C42.5704 363.119 42.7266 363.5 42.7266 363.972C42.7266 364.401 42.6002 364.777 42.3474 365.101C42.0974 365.425 41.7536 365.678 41.3161 365.859C40.8815 366.038 40.38 366.128 39.8119 366.128C38.9454 366.128 38.255 365.947 37.7408 365.587C37.2295 365.223 36.9298 364.729 36.8417 364.104L38.6272 364.01C38.6812 364.274 38.8119 364.476 39.0192 364.615C39.2266 364.751 39.4923 364.82 39.8161 364.82C40.1343 364.82 40.39 364.759 40.5832 364.636C40.7792 364.511 40.8786 364.351 40.8815 364.155C40.8786 363.99 40.809 363.855 40.6727 363.75C40.5363 363.642 40.3261 363.56 40.042 363.503L38.9085 363.277C38.2692 363.149 37.7934 362.928 37.4809 362.612C37.1712 362.297 37.0164 361.895 37.0164 361.406C37.0164 360.986 37.13 360.624 37.3573 360.32C37.5874 360.016 37.9099 359.781 38.3246 359.616C38.7423 359.452 39.2309 359.369 39.7906 359.369C40.6173 359.369 41.2678 359.544 41.7423 359.893C42.2195 360.243 42.4979 360.719 42.5775 361.321ZM47.8272 363.213V359.455H49.6425V366H47.8996V364.811H47.8314C47.6837 365.195 47.438 365.503 47.0942 365.736C46.7533 365.969 46.3371 366.085 45.8457 366.085C45.4082 366.085 45.0232 365.986 44.6908 365.787C44.3584 365.588 44.0985 365.305 43.911 364.939C43.7263 364.572 43.6326 364.134 43.6297 363.622V359.455H45.4451V363.298C45.4479 363.685 45.5516 363.99 45.7562 364.214C45.9607 364.439 46.2349 364.551 46.5786 364.551C46.7974 364.551 47.0019 364.501 47.1922 364.402C47.3826 364.3 47.536 364.149 47.6525 363.95C47.7718 363.751 47.83 363.506 47.8272 363.213ZM50.8887 366V357.273H52.704V360.554H52.7594C52.839 360.378 52.954 360.199 53.1046 360.017C53.258 359.832 53.4569 359.679 53.7012 359.557C53.9483 359.432 54.2552 359.369 54.6216 359.369C55.0989 359.369 55.5392 359.494 55.9427 359.744C56.3461 359.991 56.6685 360.365 56.91 360.865C57.1515 361.362 57.2722 361.986 57.2722 362.736C57.2722 363.466 57.1543 364.082 56.9185 364.585C56.6856 365.085 56.3674 365.464 55.964 365.723C55.5634 365.979 55.1145 366.107 54.6174 366.107C54.2651 366.107 53.9654 366.048 53.7182 365.932C53.4739 365.815 53.2736 365.669 53.1174 365.493C52.9611 365.314 52.8418 365.134 52.7594 364.952H52.6785V366H50.8887ZM52.6657 362.727C52.6657 363.116 52.7196 363.456 52.8276 363.746C52.9356 364.036 53.0918 364.261 53.2964 364.423C53.5009 364.582 53.7495 364.662 54.0421 364.662C54.3375 364.662 54.5875 364.581 54.7921 364.419C54.9966 364.254 55.1515 364.027 55.2566 363.737C55.3645 363.445 55.4185 363.108 55.4185 362.727C55.4185 362.349 55.366 362.017 55.2608 361.73C55.1557 361.443 55.0009 361.219 54.7964 361.057C54.5918 360.895 54.3404 360.814 54.0421 360.814C53.7466 360.814 53.4966 360.892 53.2921 361.048C53.0904 361.205 52.9356 361.426 52.8276 361.713C52.7196 362 52.6657 362.338 52.6657 362.727ZM62.3216 361.696V363.136H58.3415V361.696H62.3216ZM67.11 359.455V360.818H63.1683V359.455H67.11ZM64.0632 357.886H65.8785V363.989C65.8785 364.156 65.9041 364.287 65.9552 364.381C66.0063 364.472 66.0774 364.536 66.1683 364.572C66.262 364.609 66.37 364.628 66.4921 364.628C66.5774 364.628 66.6626 364.621 66.7478 364.607C66.833 364.589 66.8984 364.577 66.9438 364.568L67.2293 365.919C67.1384 365.947 67.0106 365.98 66.8458 366.017C66.6811 366.057 66.4808 366.081 66.245 366.089C65.8075 366.107 65.424 366.048 65.0944 365.915C64.7677 365.781 64.5134 365.574 64.3316 365.293C64.1498 365.011 64.0603 364.656 64.0632 364.227V357.886ZM68.0526 366V359.455H69.8125V360.597H69.8807C70 360.19 70.2003 359.884 70.4815 359.676C70.7628 359.466 71.0866 359.361 71.4531 359.361C71.544 359.361 71.642 359.366 71.7472 359.378C71.8523 359.389 71.9446 359.405 72.0241 359.425V361.036C71.9389 361.01 71.821 360.987 71.6705 360.967C71.5199 360.947 71.3821 360.938 71.2571 360.938C70.9901 360.938 70.7514 360.996 70.5412 361.112C70.3338 361.226 70.169 361.385 70.0469 361.589C69.9276 361.794 69.8679 362.03 69.8679 362.297V366H68.0526ZM74.4017 366.124C73.9841 366.124 73.6119 366.051 73.2852 365.906C72.9585 365.759 72.7 365.541 72.5096 365.254C72.3221 364.964 72.2284 364.604 72.2284 364.172C72.2284 363.808 72.2952 363.503 72.4287 363.256C72.5622 363.009 72.744 362.81 72.9741 362.659C73.2042 362.509 73.4656 362.395 73.7582 362.318C74.0537 362.241 74.3633 362.188 74.6872 362.156C75.0679 362.116 75.3747 362.08 75.6077 362.045C75.8406 362.009 76.0096 361.955 76.1148 361.884C76.2199 361.812 76.2724 361.707 76.2724 361.568V361.543C76.2724 361.273 76.1872 361.064 76.0167 360.916C75.8491 360.768 75.6105 360.695 75.3008 360.695C74.9741 360.695 74.7142 360.767 74.521 360.912C74.3278 361.054 74.2 361.233 74.1375 361.449L72.4585 361.312C72.5437 360.915 72.7114 360.571 72.9614 360.281C73.2114 359.989 73.5338 359.764 73.9287 359.608C74.3264 359.449 74.7866 359.369 75.3094 359.369C75.673 359.369 76.021 359.412 76.3534 359.497C76.6886 359.582 76.9855 359.714 77.244 359.893C77.5054 360.072 77.7114 360.303 77.8619 360.584C78.0125 360.862 78.0878 361.196 78.0878 361.585V366H76.3662V365.092H76.315C76.2099 365.297 76.0693 365.477 75.8932 365.634C75.717 365.787 75.5054 365.908 75.2582 365.996C75.0111 366.081 74.7256 366.124 74.4017 366.124ZM74.9216 364.871C75.1886 364.871 75.4244 364.818 75.629 364.713C75.8335 364.605 75.994 364.46 76.1105 364.278C76.227 364.097 76.2852 363.891 76.2852 363.661V362.966C76.2284 363.003 76.1503 363.037 76.0508 363.068C75.9542 363.097 75.8449 363.124 75.7227 363.149C75.6006 363.172 75.4784 363.193 75.3562 363.213C75.2341 363.23 75.1233 363.246 75.0239 363.26C74.8108 363.291 74.6247 363.341 74.4656 363.409C74.3065 363.477 74.1829 363.57 74.0949 363.686C74.0068 363.8 73.9628 363.942 73.9628 364.112C73.9628 364.359 74.0523 364.548 74.2312 364.679C74.4131 364.807 74.6432 364.871 74.9216 364.871ZM82.2135 366.128C81.5431 366.128 80.9664 365.986 80.4834 365.702C80.0033 365.415 79.634 365.017 79.3755 364.509C79.1198 364 78.9919 363.415 78.9919 362.753C78.9919 362.082 79.1212 361.494 79.3797 360.989C79.6411 360.48 80.0118 360.084 80.4919 359.8C80.9721 359.513 81.5431 359.369 82.205 359.369C82.776 359.369 83.276 359.473 83.705 359.68C84.134 359.888 84.4735 360.179 84.7235 360.554C84.9735 360.929 85.1113 361.369 85.1368 361.875H83.4238C83.3755 361.548 83.2476 361.286 83.0402 361.087C82.8357 360.885 82.5672 360.784 82.2348 360.784C81.9536 360.784 81.7079 360.861 81.4976 361.014C81.2902 361.165 81.1283 361.385 81.0118 361.675C80.8954 361.964 80.8371 362.315 80.8371 362.727C80.8371 363.145 80.8939 363.5 81.0076 363.793C81.124 364.085 81.2874 364.308 81.4976 364.462C81.7079 364.615 81.9536 364.692 82.2348 364.692C82.4422 364.692 82.6283 364.649 82.7931 364.564C82.9607 364.479 83.0985 364.355 83.2064 364.193C83.3172 364.028 83.3897 363.831 83.4238 363.601H85.1368C85.1084 364.101 84.9721 364.541 84.7277 364.922C84.4863 365.3 84.1525 365.595 83.7263 365.808C83.3002 366.021 82.7959 366.128 82.2135 366.128ZM87.704 364.116L87.7083 361.939H87.9725L90.0691 359.455H92.1529L89.3361 362.744H88.9057L87.704 364.116ZM86.0591 366V357.273H87.8745V366H86.0591ZM90.15 366L88.2239 363.149L89.4341 361.866L92.2765 366H90.15ZM96.8792 366H94.9019L97.9147 357.273H100.293L103.301 366H101.324L99.1377 359.267H99.0695L96.8792 366ZM96.7556 362.57H101.426V364.01H96.7556V362.57Z" fill="#8E1DD8"/>
<path d="M44.599 461.321L42.937 461.423C42.9086 461.281 42.8476 461.153 42.7538 461.04C42.6601 460.923 42.5365 460.831 42.3831 460.763C42.2325 460.692 42.0521 460.656 41.8419 460.656C41.5606 460.656 41.3234 460.716 41.1302 460.835C40.937 460.952 40.8404 461.108 40.8404 461.304C40.8404 461.46 40.9029 461.592 41.0279 461.7C41.1529 461.808 41.3674 461.895 41.6714 461.96L42.8561 462.199C43.4924 462.33 43.9669 462.54 44.2794 462.83C44.5919 463.119 44.7481 463.5 44.7481 463.972C44.7481 464.401 44.6217 464.777 44.3689 465.101C44.1189 465.425 43.7751 465.678 43.3376 465.859C42.9029 466.038 42.4015 466.128 41.8333 466.128C40.9669 466.128 40.2765 465.947 39.7623 465.587C39.251 465.223 38.9512 464.729 38.8632 464.104L40.6487 464.01C40.7027 464.274 40.8333 464.476 41.0407 464.615C41.2481 464.751 41.5137 464.82 41.8376 464.82C42.1558 464.82 42.4115 464.759 42.6047 464.636C42.8007 464.511 42.9001 464.351 42.9029 464.155C42.9001 463.99 42.8305 463.855 42.6941 463.75C42.5578 463.642 42.3476 463.56 42.0635 463.503L40.9299 463.277C40.2907 463.149 39.8149 462.928 39.5024 462.612C39.1927 462.297 39.0379 461.895 39.0379 461.406C39.0379 460.986 39.1515 460.624 39.3788 460.32C39.6089 460.016 39.9314 459.781 40.3461 459.616C40.7637 459.452 41.2524 459.369 41.812 459.369C42.6387 459.369 43.2893 459.544 43.7637 459.893C44.241 460.243 44.5194 460.719 44.599 461.321ZM49.8487 463.213V459.455H51.664V466H49.9211V464.811H49.8529C49.7052 465.195 49.4595 465.503 49.1157 465.736C48.7748 465.969 48.3586 466.085 47.8671 466.085C47.4296 466.085 47.0447 465.986 46.7123 465.787C46.3799 465.588 46.12 465.305 45.9325 464.939C45.7478 464.572 45.6541 464.134 45.6512 463.622V459.455H47.4666V463.298C47.4694 463.685 47.5731 463.99 47.7777 464.214C47.9822 464.439 48.2563 464.551 48.6001 464.551C48.8188 464.551 49.0234 464.501 49.2137 464.402C49.4041 464.3 49.5575 464.149 49.674 463.95C49.7933 463.751 49.8515 463.506 49.8487 463.213ZM52.9102 466V457.273H54.7255V460.554H54.7809C54.8604 460.378 54.9755 460.199 55.1261 460.017C55.2795 459.832 55.4783 459.679 55.7227 459.557C55.9698 459.432 56.2766 459.369 56.6431 459.369C57.1204 459.369 57.5607 459.494 57.9641 459.744C58.3676 459.991 58.69 460.365 58.9315 460.865C59.1729 461.362 59.2937 461.986 59.2937 462.736C59.2937 463.466 59.1758 464.082 58.94 464.585C58.707 465.085 58.3889 465.464 57.9854 465.723C57.5849 465.979 57.136 466.107 56.6389 466.107C56.2866 466.107 55.9869 466.048 55.7397 465.932C55.4954 465.815 55.2951 465.669 55.1389 465.493C54.9826 465.314 54.8633 465.134 54.7809 464.952H54.6999V466H52.9102ZM54.6872 462.727C54.6872 463.116 54.7411 463.456 54.8491 463.746C54.957 464.036 55.1133 464.261 55.3178 464.423C55.5224 464.582 55.771 464.662 56.0636 464.662C56.359 464.662 56.609 464.581 56.8136 464.419C57.0181 464.254 57.1729 464.027 57.2781 463.737C57.386 463.445 57.44 463.108 57.44 462.727C57.44 462.349 57.3874 462.017 57.2823 461.73C57.1772 461.443 57.0224 461.219 56.8178 461.057C56.6133 460.895 56.3619 460.814 56.0636 460.814C55.7681 460.814 55.5181 460.892 55.3136 461.048C55.1119 461.205 54.957 461.426 54.8491 461.713C54.7411 462 54.6872 462.338 54.6872 462.727ZM64.3431 461.696V463.136H60.363V461.696H64.3431ZM69.1315 459.455V460.818H65.1898V459.455H69.1315ZM66.0846 457.886H67.9V463.989C67.9 464.156 67.9255 464.287 67.9767 464.381C68.0278 464.472 68.0988 464.536 68.1898 464.572C68.2835 464.609 68.3915 464.628 68.5136 464.628C68.5988 464.628 68.6841 464.621 68.7693 464.607C68.8545 464.589 68.9199 464.577 68.9653 464.568L69.2508 465.919C69.1599 465.947 69.0321 465.98 68.8673 466.017C68.7025 466.057 68.5023 466.081 68.2665 466.089C67.829 466.107 67.4454 466.048 67.1159 465.915C66.7892 465.781 66.5349 465.574 66.3531 465.293C66.1713 465.011 66.0818 464.656 66.0846 464.227V457.886ZM70.074 466V459.455H71.834V460.597H71.9022C72.0215 460.19 72.2218 459.884 72.503 459.676C72.7843 459.466 73.1081 459.361 73.4746 459.361C73.5655 459.361 73.6635 459.366 73.7686 459.378C73.8738 459.389 73.9661 459.405 74.0456 459.425V461.036C73.9604 461.01 73.8425 460.987 73.6919 460.967C73.5414 460.947 73.4036 460.938 73.2786 460.938C73.0115 460.938 72.7729 460.996 72.5627 461.112C72.3553 461.226 72.1905 461.385 72.0684 461.589C71.949 461.794 71.8894 462.03 71.8894 462.297V466H70.074ZM76.4232 466.124C76.0056 466.124 75.6334 466.051 75.3067 465.906C74.98 465.759 74.7215 465.541 74.5311 465.254C74.3436 464.964 74.2499 464.604 74.2499 464.172C74.2499 463.808 74.3166 463.503 74.4502 463.256C74.5837 463.009 74.7655 462.81 74.9956 462.659C75.2257 462.509 75.4871 462.395 75.7797 462.318C76.0752 462.241 76.3848 462.188 76.7087 462.156C77.0894 462.116 77.3962 462.08 77.6291 462.045C77.8621 462.009 78.0311 461.955 78.1362 461.884C78.2414 461.812 78.2939 461.707 78.2939 461.568V461.543C78.2939 461.273 78.2087 461.064 78.0382 460.916C77.8706 460.768 77.632 460.695 77.3223 460.695C76.9956 460.695 76.7357 460.767 76.5425 460.912C76.3493 461.054 76.2215 461.233 76.159 461.449L74.48 461.312C74.5652 460.915 74.7328 460.571 74.9828 460.281C75.2328 459.989 75.5553 459.764 75.9502 459.608C76.3479 459.449 76.8081 459.369 77.3308 459.369C77.6945 459.369 78.0425 459.412 78.3749 459.497C78.7101 459.582 79.007 459.714 79.2655 459.893C79.5269 460.072 79.7328 460.303 79.8834 460.584C80.034 460.862 80.1093 461.196 80.1093 461.585V466H78.3877V465.092H78.3365C78.2314 465.297 78.0908 465.477 77.9147 465.634C77.7385 465.787 77.5269 465.908 77.2797 465.996C77.0326 466.081 76.747 466.124 76.4232 466.124ZM76.9431 464.871C77.2101 464.871 77.4459 464.818 77.6504 464.713C77.855 464.605 78.0155 464.46 78.132 464.278C78.2485 464.097 78.3067 463.891 78.3067 463.661V462.966C78.2499 463.003 78.1718 463.037 78.0723 463.068C77.9757 463.097 77.8664 463.124 77.7442 463.149C77.622 463.172 77.4999 463.193 77.3777 463.213C77.2556 463.23 77.1448 463.246 77.0453 463.26C76.8323 463.291 76.6462 463.341 76.4871 463.409C76.328 463.477 76.2044 463.57 76.1164 463.686C76.0283 463.8 75.9843 463.942 75.9843 464.112C75.9843 464.359 76.0737 464.548 76.2527 464.679C76.4345 464.807 76.6647 464.871 76.9431 464.871ZM84.235 466.128C83.5646 466.128 82.9879 465.986 82.5049 465.702C82.0248 465.415 81.6555 465.017 81.397 464.509C81.1413 464 81.0134 463.415 81.0134 462.753C81.0134 462.082 81.1427 461.494 81.4012 460.989C81.6626 460.48 82.0333 460.084 82.5134 459.8C82.9935 459.513 83.5646 459.369 84.2265 459.369C84.7975 459.369 85.2975 459.473 85.7265 459.68C86.1555 459.888 86.495 460.179 86.745 460.554C86.995 460.929 87.1327 461.369 87.1583 461.875H85.4452C85.397 461.548 85.2691 461.286 85.0617 461.087C84.8572 460.885 84.5887 460.784 84.2563 460.784C83.9751 460.784 83.7293 460.861 83.5191 461.014C83.3117 461.165 83.1498 461.385 83.0333 461.675C82.9168 461.964 82.8586 462.315 82.8586 462.727C82.8586 463.145 82.9154 463.5 83.0291 463.793C83.1455 464.085 83.3089 464.308 83.5191 464.462C83.7293 464.615 83.9751 464.692 84.2563 464.692C84.4637 464.692 84.6498 464.649 84.8146 464.564C84.9822 464.479 85.12 464.355 85.2279 464.193C85.3387 464.028 85.4112 463.831 85.4452 463.601H87.1583C87.1299 464.101 86.9935 464.541 86.7492 464.922C86.5077 465.3 86.1739 465.595 85.7478 465.808C85.3217 466.021 84.8174 466.128 84.235 466.128ZM89.7255 464.116L89.7298 461.939H89.994L92.0905 459.455H94.1744L91.3576 462.744H90.9272L89.7255 464.116ZM88.0806 466V457.273H89.8959V466H88.0806ZM92.1715 466L90.2454 463.149L91.4556 461.866L94.2979 466H92.1715ZM97.3964 466V457.273H100.891C101.533 457.273 102.068 457.368 102.497 457.558C102.926 457.749 103.249 458.013 103.465 458.351C103.681 458.686 103.788 459.072 103.788 459.51C103.788 459.851 103.72 460.151 103.584 460.409C103.448 460.665 103.26 460.875 103.021 461.04C102.786 461.202 102.516 461.317 102.212 461.385V461.47C102.544 461.484 102.855 461.578 103.145 461.751C103.438 461.925 103.675 462.168 103.857 462.48C104.038 462.79 104.129 463.159 104.129 463.588C104.129 464.051 104.014 464.464 103.784 464.828C103.557 465.189 103.22 465.474 102.774 465.685C102.328 465.895 101.779 466 101.125 466H97.3964ZM99.2416 464.491H100.746C101.26 464.491 101.635 464.393 101.871 464.197C102.107 463.999 102.225 463.734 102.225 463.405C102.225 463.163 102.166 462.95 102.05 462.766C101.933 462.581 101.767 462.436 101.551 462.331C101.338 462.226 101.084 462.173 100.788 462.173H99.2416V464.491ZM99.2416 460.925H100.609C100.862 460.925 101.087 460.881 101.283 460.793C101.482 460.702 101.638 460.574 101.752 460.409C101.868 460.244 101.926 460.047 101.926 459.817C101.926 459.501 101.814 459.247 101.59 459.054C101.368 458.861 101.053 458.764 100.644 458.764H99.2416V460.925Z" fill="#8E1DD8"/>
</svg>
