<svg width="140" height="20" viewBox="0 0 140 20" fill="none" xmlns="http://www.w3.org/2000/svg">
<g clip-path="url(#clip0_4_21)">
<path d="M7.1306 17.85H6.41754V18.5643H7.1306V17.85Z" fill="#132F6D"/>
<path d="M21.3846 15.7143H20.6716V16.4286H21.3846V15.7143Z" fill="#132F6D"/>
<path d="M21.3846 15H20.6716V15.7143H21.3846V15Z" fill="#132F6D"/>
<path d="M21.3846 14.2857H20.6716V15H21.3846V14.2857Z" fill="#132F6D"/>
<path d="M21.3846 13.5714H20.6716V14.2857H21.3846V13.5714Z" fill="#132F6D"/>
<path d="M21.3846 12.8571H20.6716V13.5714H21.3846V12.8571Z" fill="#132F6D"/>
<path d="M21.3846 12.1429H20.6716V12.8571H21.3846V12.1429Z" fill="#132F6D"/>
<path d="M21.3846 11.4286H20.6716V12.1428H21.3846V11.4286Z" fill="#132F6D"/>
<path d="M20.6716 17.1429H19.9585V17.8571H20.6716V17.1429Z" fill="#132F6D"/>
<path d="M20.6716 16.4286H19.9585V17.1428H20.6716V16.4286Z" fill="#132F6D"/>
<path d="M20.6716 15.7143H19.9585V16.4286H20.6716V15.7143Z" fill="#ED56C2"/>
<path d="M20.6716 15H19.9585V15.7143H20.6716V15Z" fill="#ED56C2"/>
<path d="M20.6716 14.2857H19.9585V15H20.6716V14.2857Z" fill="#ED56C2"/>
<path d="M20.6716 13.5714H19.9585V14.2857H20.6716V13.5714Z" fill="#ED56C2"/>
<path d="M20.6716 12.8571H19.9585V13.5714H20.6716V12.8571Z" fill="#ED56C2"/>
<path d="M20.6716 12.1429H19.9585V12.8571H20.6716V12.1429Z" fill="#ED56C2"/>
<path d="M20.6716 11.4286H19.9585V12.1428H20.6716V11.4286Z" fill="#ED56C2"/>
<path d="M20.6716 10.7143H19.9585V11.4286H20.6716V10.7143Z" fill="#132F6D"/>
<path d="M19.9656 17.8571H19.2526V18.5714H19.9656V17.8571Z" fill="#132F6D"/>
<path d="M19.9656 17.1429H19.2526V17.8571H19.9656V17.1429Z" fill="#ED56C2"/>
<path d="M19.9656 16.4286H19.2526V17.1428H19.9656V16.4286Z" fill="#ED56C2"/>
<path d="M19.9656 15.7143H19.2526V16.4286H19.9656V15.7143Z" fill="#ED56C2"/>
<path d="M19.9656 15H19.2526V15.7143H19.9656V15Z" fill="#ED56C2"/>
<path d="M19.9656 14.2857H19.2526V15H19.9656V14.2857Z" fill="#ED56C2"/>
<path d="M19.9656 13.5714H19.2526V14.2857H19.9656V13.5714Z" fill="#ED56C2"/>
<path d="M19.9656 12.8571H19.2526V13.5714H19.9656V12.8571Z" fill="#ED56C2"/>
<path d="M19.9656 12.1429H19.2526V12.8571H19.9656V12.1429Z" fill="#ED56C2"/>
<path d="M19.9656 11.4286H19.2526V12.1428H19.9656V11.4286Z" fill="#ED56C2"/>
<path d="M19.9656 10.7143H19.2526V11.4286H19.9656V10.7143Z" fill="#ED56C2"/>
<path d="M19.9656 10H19.2526V10.7143H19.9656V10Z" fill="#132F6D"/>
<path d="M19.2525 18.5714H18.5395V19.2857H19.2525V18.5714Z" fill="#132F6D"/>
<path d="M19.2525 17.8571H18.5395V18.5714H19.2525V17.8571Z" fill="#ED56C2"/>
<path d="M19.2525 17.1429H18.5395V17.8571H19.2525V17.1429Z" fill="#ED56C2"/>
<path d="M19.2525 16.4286H18.5395V17.1428H19.2525V16.4286Z" fill="#ED56C2"/>
<path d="M19.2525 15.7143H18.5395V16.4286H19.2525V15.7143Z" fill="#ED56C2"/>
<path d="M19.2525 15H18.5395V15.7143H19.2525V15Z" fill="#ED56C2"/>
<path d="M19.2525 14.2857H18.5395V15H19.2525V14.2857Z" fill="#ED56C2"/>
<path d="M19.2525 13.5714H18.5395V14.2857H19.2525V13.5714Z" fill="#ED56C2"/>
<path d="M19.2525 12.8571H18.5395V13.5714H19.2525V12.8571Z" fill="#ED56C2"/>
<path d="M19.2525 12.1429H18.5395V12.8571H19.2525V12.1429Z" fill="#ED56C2"/>
<path d="M19.2525 11.4286H18.5395V12.1428H19.2525V11.4286Z" fill="#ED56C2"/>
<path d="M19.2525 10.7143H18.5395V11.4286H19.2525V10.7143Z" fill="#ED56C2"/>
<path d="M19.2525 10H18.5395V10.7143H19.2525V10Z" fill="#132F6D"/>
<path d="M18.5395 17.8571H17.8265V18.5714H18.5395V17.8571Z" fill="#132F6D"/>
<path d="M18.5395 17.1429H17.8265V17.8571H18.5395V17.1429Z" fill="#132F6D"/>
<path d="M18.5395 16.4286H17.8265V17.1428H18.5395V16.4286Z" fill="#132F6D"/>
<path d="M18.5395 15.7143H17.8265V16.4286H18.5395V15.7143Z" fill="#ED56C2"/>
<path d="M18.5395 15H17.8265V15.7143H18.5395V15Z" fill="#ED56C2"/>
<path d="M18.5395 14.2857H17.8265V15H18.5395V14.2857Z" fill="#ED56C2"/>
<path d="M18.5395 13.5714H17.8265V14.2857H18.5395V13.5714Z" fill="#ED56C2"/>
<path d="M18.5395 12.8571H17.8265V13.5714H18.5395V12.8571Z" fill="#8E1DD8"/>
<path d="M18.5395 12.1429H17.8265V12.8571H18.5395V12.1429Z" fill="#8E1DD8"/>
<path d="M18.5395 11.4286H17.8265V12.1428H18.5395V11.4286Z" fill="#ED56C2"/>
<path d="M18.5395 10.7143H17.8265V11.4286H18.5395V10.7143Z" fill="#ED56C2"/>
<path d="M18.5395 10H17.8265V10.7143H18.5395V10Z" fill="#ED56C2"/>
<path d="M18.5395 9.28571H17.8265V9.99999H18.5395V9.28571Z" fill="#132F6D"/>
<path d="M17.8265 17.8571H17.1134V18.5714H17.8265V17.8571Z" fill="#132F6D"/>
<path d="M17.8265 17.1429H17.1134V17.8571H17.8265V17.1429Z" fill="#C6F7FF"/>
<path d="M17.8265 16.4286H17.1134V17.1428H17.8265V16.4286Z" fill="#C6F7FF"/>
<path d="M17.8265 15.7143H17.1134V16.4286H17.8265V15.7143Z" fill="#132F6D"/>
<path d="M17.8265 15H17.1134V15.7143H17.8265V15Z" fill="#ED56C2"/>
<path d="M17.8265 14.2857H17.1134V15H17.8265V14.2857Z" fill="#ED56C2"/>
<path d="M17.8265 13.5714H17.1134V14.2857H17.8265V13.5714Z" fill="#ED56C2"/>
<path d="M17.8265 12.8571H17.1134V13.5714H17.8265V12.8571Z" fill="#ED56C2"/>
<path d="M17.8265 12.1429H17.1134V12.8571H17.8265V12.1429Z" fill="#ED56C2"/>
<path d="M17.8265 11.4286H17.1134V12.1428H17.8265V11.4286Z" fill="#ED56C2"/>
<path d="M17.8265 10.7143H17.1134V11.4286H17.8265V10.7143Z" fill="#FF7BD3"/>
<path d="M17.8265 10H17.1134V10.7143H17.8265V10Z" fill="#FF7BD3"/>
<path d="M17.8265 9.28571H17.1134V9.99999H17.8265V9.28571Z" fill="#FF7BD3"/>
<path d="M17.8265 8.57144H17.1134V9.28573H17.8265V8.57144Z" fill="#132F6D"/>
<path d="M17.8265 7.85715H17.1134V8.57143H17.8265V7.85715Z" fill="#132F6D"/>
<path d="M17.8265 4.28571H17.1134V4.99999H17.8265V4.28571Z" fill="#132F6D"/>
<path d="M17.8265 3.57144H17.1134V4.28573H17.8265V3.57144Z" fill="#132F6D"/>
<path d="M17.1134 17.8571H16.4003V18.5714H17.1134V17.8571Z" fill="#132F6D"/>
<path d="M17.1134 17.1429H16.4003V17.8571H17.1134V17.1429Z" fill="#C6F7FF"/>
<path d="M17.1134 16.4286H16.4003V17.1428H17.1134V16.4286Z" fill="#81E0EA"/>
<path d="M17.1134 15.7143H16.4003V16.4286H17.1134V15.7143Z" fill="#132F6D"/>
<path d="M17.1134 15H16.4003V15.7143H17.1134V15Z" fill="#132F6D"/>
<path d="M17.1134 14.2857H16.4003V15H17.1134V14.2857Z" fill="#ED56C2"/>
<path d="M17.1134 13.5714H16.4003V14.2857H17.1134V13.5714Z" fill="#ED56C2"/>
<path d="M17.1134 12.8571H16.4003V13.5714H17.1134V12.8571Z" fill="#ED56C2"/>
<path d="M17.1134 12.1429H16.4003V12.8571H17.1134V12.1429Z" fill="#FF7BD3"/>
<path d="M17.1134 11.4286H16.4003V12.1428H17.1134V11.4286Z" fill="#FF7BD3"/>
<path d="M17.1134 10.7143H16.4003V11.4286H17.1134V10.7143Z" fill="#FF7BD3"/>
<path d="M17.1134 10H16.4003V10.7143H17.1134V10Z" fill="#FF7BD3"/>
<path d="M17.1134 9.28571H16.4003V9.99999H17.1134V9.28571Z" fill="#FF7BD3"/>
<path d="M17.1134 8.57144H16.4003V9.28573H17.1134V8.57144Z" fill="#FF7BD3"/>
<path d="M17.1134 7.85715H16.4003V8.57143H17.1134V7.85715Z" fill="#FFBBEC"/>
<path d="M17.1134 7.14285H16.4003V7.85714H17.1134V7.14285Z" fill="#132F6D"/>
<path d="M17.1134 6.42856H16.4003V7.14284H17.1134V6.42856Z" fill="#132F6D"/>
<path d="M17.1134 5.71429H16.4003V6.42858H17.1134V5.71429Z" fill="#132F6D"/>
<path d="M17.1134 5H16.4003V5.71429H17.1134V5Z" fill="#132F6D"/>
<path d="M17.1134 4.28571H16.4003V4.99999H17.1134V4.28571Z" fill="#FF7BD3"/>
<path d="M17.1134 3.57144H16.4003V4.28573H17.1134V3.57144Z" fill="#FF7BD3"/>
<path d="M17.1134 2.85715H16.4003V3.57143H17.1134V2.85715Z" fill="#132F6D"/>
<path d="M16.4003 18.5714H15.6873V19.2857H16.4003V18.5714Z" fill="#132F6D"/>
<path d="M16.4003 17.8571H15.6873V18.5714H16.4003V17.8571Z" fill="#C6F7FF"/>
<path d="M16.4003 17.1429H15.6873V17.8571H16.4003V17.1429Z" fill="#C6F7FF"/>
<path d="M16.4003 16.4286H15.6873V17.1428H16.4003V16.4286Z" fill="#132F6D"/>
<path d="M16.4003 15.7143H15.6873V16.4286H16.4003V15.7143Z" fill="#ED56C2"/>
<path d="M16.4003 15H15.6873V15.7143H16.4003V15Z" fill="#ED56C2"/>
<path d="M16.4003 14.2857H15.6873V15H16.4003V14.2857Z" fill="#ED56C2"/>
<path d="M16.4003 13.5714H15.6873V14.2857H16.4003V13.5714Z" fill="#ED56C2"/>
<path d="M16.4003 12.8571H15.6873V13.5714H16.4003V12.8571Z" fill="#FF7BD3"/>
<path d="M16.4003 12.1429H15.6873V12.8571H16.4003V12.1429Z" fill="#FF7BD3"/>
<path d="M16.4003 11.4286H15.6873V12.1428H16.4003V11.4286Z" fill="#FF7BD3"/>
<path d="M16.4003 10.7143H15.6873V11.4286H16.4003V10.7143Z" fill="#8E1DD8"/>
<path d="M16.4003 10H15.6873V10.7143H16.4003V10Z" fill="#FF7BD3"/>
<path d="M16.4003 9.28571H15.6873V9.99999H16.4003V9.28571Z" fill="#FF7BD3"/>
<path d="M16.4003 8.57144H15.6873V9.28573H16.4003V8.57144Z" fill="#FF7BD3"/>
<path d="M16.4003 7.85715H15.6873V8.57143H16.4003V7.85715Z" fill="#FF7BD3"/>
<path d="M16.4003 7.14285H15.6873V7.85714H16.4003V7.14285Z" fill="#FFBBEC"/>
<path d="M16.4003 6.42856H15.6873V7.14284H16.4003V6.42856Z" fill="#FFBBEC"/>
<path d="M16.4003 5.71429H15.6873V6.42858H16.4003V5.71429Z" fill="#FFBBEC"/>
<path d="M16.4003 5H15.6873V5.71429H16.4003V5Z" fill="#FFBBEC"/>
<path d="M16.4003 4.28571H15.6873V4.99999H16.4003V4.28571Z" fill="#FF7BD3"/>
<path d="M16.4003 3.57144H15.6873V4.28573H16.4003V3.57144Z" fill="#FF7BD3"/>
<path d="M16.4003 2.85715H15.6873V3.57143H16.4003V2.85715Z" fill="#FF7BD3"/>
<path d="M16.4003 2.14285H15.6873V2.85714H16.4003V2.14285Z" fill="#132F6D"/>
<path d="M15.6873 18.5714H14.9742V19.2857H15.6873V18.5714Z" fill="#132F6D"/>
<path d="M15.6873 17.8571H14.9742V18.5714H15.6873V17.8571Z" fill="#C6F7FF"/>
<path d="M15.6873 17.1429H14.9742V17.8571H15.6873V17.1429Z" fill="#132F6D"/>
<path d="M15.6873 16.4286H14.9742V17.1428H15.6873V16.4286Z" fill="#ED56C2"/>
<path d="M15.6873 15.7143H14.9742V16.4286H15.6873V15.7143Z" fill="#ED56C2"/>
<path d="M15.6873 15H14.9742V15.7143H15.6873V15Z" fill="#ED56C2"/>
<path d="M15.6873 14.2857H14.9742V15H15.6873V14.2857Z" fill="#ED56C2"/>
<path d="M15.6873 13.5714H14.9742V14.2857H15.6873V13.5714Z" fill="#FF7BD3"/>
<path d="M15.6873 12.8571H14.9742V13.5714H15.6873V12.8571Z" fill="#FF7BD3"/>
<path d="M15.6873 12.1429H14.9742V12.8571H15.6873V12.1429Z" fill="#FFBBEC"/>
<path d="M15.6873 11.4286H14.9742V12.1428H15.6873V11.4286Z" fill="#FF7BD3"/>
<path d="M15.6873 10.7143H14.9742V11.4286H15.6873V10.7143Z" fill="#FF7BD3"/>
<path d="M15.6873 10H14.9742V10.7143H15.6873V10Z" fill="#FF7BD3"/>
<path d="M15.6873 9.28571H14.9742V9.99999H15.6873V9.28571Z" fill="#132F6D"/>
<path d="M15.6873 8.57144H14.9742V9.28573H15.6873V8.57144Z" fill="#132F6D"/>
<path d="M15.6873 7.85715H14.9742V8.57143H15.6873V7.85715Z" fill="#FF7BD3"/>
<path d="M15.6873 7.14285H14.9742V7.85714H15.6873V7.14285Z" fill="#FF7BD3"/>
<path d="M15.6873 6.42856H14.9742V7.14284H15.6873V6.42856Z" fill="#FF7BD3"/>
<path d="M15.6873 5.71429H14.9742V6.42858H15.6873V5.71429Z" fill="#FFBBEC"/>
<path d="M15.6873 5H14.9742V5.71429H15.6873V5Z" fill="#FFBBEC"/>
<path d="M15.6873 4.28571H14.9742V4.99999H15.6873V4.28571Z" fill="#8E1DD8"/>
<path d="M15.6873 3.57144H14.9742V4.28573H15.6873V3.57144Z" fill="#8E1DD8"/>
<path d="M15.6873 2.85715H14.9742V3.57143H15.6873V2.85715Z" fill="#FF7BD3"/>
<path d="M15.6873 2.14285H14.9742V2.85714H15.6873V2.14285Z" fill="#132F6D"/>
<path d="M14.9742 19.2857H14.2612V20H14.9742V19.2857Z" fill="#132F6D"/>
<path d="M14.9742 18.5714H14.2612V19.2857H14.9742V18.5714Z" fill="#C6F7FF"/>
<path d="M14.9742 17.8571H14.2612V18.5714H14.9742V17.8571Z" fill="#132F6D"/>
<path d="M14.9742 17.1429H14.2612V17.8571H14.9742V17.1429Z" fill="#ED56C2"/>
<path d="M14.9742 16.4286H14.2612V17.1428H14.9742V16.4286Z" fill="#ED56C2"/>
<path d="M14.9742 15.7143H14.2612V16.4286H14.9742V15.7143Z" fill="#ED56C2"/>
<path d="M14.9742 15H14.2612V15.7143H14.9742V15Z" fill="#ED56C2"/>
<path d="M14.9742 14.2857H14.2612V15H14.9742V14.2857Z" fill="#ED56C2"/>
<path d="M14.9742 13.5714H14.2612V14.2857H14.9742V13.5714Z" fill="#FF7BD3"/>
<path d="M14.9742 12.8571H14.2612V13.5714H14.9742V12.8571Z" fill="#FF7BD3"/>
<path d="M14.9742 12.1429H14.2612V12.8571H14.9742V12.1429Z" fill="#FFBBEC"/>
<path d="M14.9742 11.4286H14.2612V12.1428H14.9742V11.4286Z" fill="#FF7BD3"/>
<path d="M14.9742 10.7143H14.2612V11.4286H14.9742V10.7143Z" fill="#FF7BD3"/>
<path d="M14.9742 10H14.2612V10.7143H14.9742V10Z" fill="#132F6D"/>
<path d="M14.9742 9.28571H14.2612V9.99999H14.9742V9.28571Z" fill="#81E0EA"/>
<path d="M14.9742 8.57144H14.2612V9.28573H14.9742V8.57144Z" fill="#81E0EA"/>
<path d="M14.9742 7.85715H14.2612V8.57143H14.9742V7.85715Z" fill="#132F6D"/>
<path d="M14.9742 7.14285H14.2612V7.85714H14.9742V7.14285Z" fill="#132F6D"/>
<path d="M14.9742 6.42856H14.2612V7.14284H14.9742V6.42856Z" fill="#FF7BD3"/>
<path d="M14.9742 5.71429H14.2612V6.42858H14.9742V5.71429Z" fill="#FF7BD3"/>
<path d="M14.9742 5H14.2612V5.71429H14.9742V5Z" fill="#FFBBEC"/>
<path d="M14.9742 4.28571H14.2612V4.99999H14.9742V4.28571Z" fill="#FFBBEC"/>
<path d="M14.9742 3.57144H14.2612V4.28573H14.9742V3.57144Z" fill="#FF7BD3"/>
<path d="M14.9742 2.85715H14.2612V3.57143H14.9742V2.85715Z" fill="#FF7BD3"/>
<path d="M14.9742 2.14285H14.2612V2.85714H14.9742V2.14285Z" fill="#FF7BD3"/>
<path d="M14.9742 1.42856H14.2612V2.14284H14.9742V1.42856Z" fill="#132F6D"/>
<path d="M14.2612 19.2857H13.5481V20H14.2612V19.2857Z" fill="#132F6D"/>
<path d="M14.2612 18.5714H13.5481V19.2857H14.2612V18.5714Z" fill="#C6F7FF"/>
<path d="M14.2612 17.8571H13.5481V18.5714H14.2612V17.8571Z" fill="#132F6D"/>
<path d="M14.2612 17.1429H13.5481V17.8571H14.2612V17.1429Z" fill="#ED56C2"/>
<path d="M14.2612 16.4286H13.5481V17.1428H14.2612V16.4286Z" fill="#ED56C2"/>
<path d="M14.2612 15.7143H13.5481V16.4286H14.2612V15.7143Z" fill="#ED56C2"/>
<path d="M14.2612 15H13.5481V15.7143H14.2612V15Z" fill="#ED56C2"/>
<path d="M14.2612 14.2857H13.5481V15H14.2612V14.2857Z" fill="#8E1DD8"/>
<path d="M14.2612 13.5714H13.5481V14.2857H14.2612V13.5714Z" fill="#FF7BD3"/>
<path d="M14.2612 12.8571H13.5481V13.5714H14.2612V12.8571Z" fill="#FFBBEC"/>
<path d="M14.2612 12.1429H13.5481V12.8571H14.2612V12.1429Z" fill="#FF7BD3"/>
<path d="M14.2612 11.4286H13.5481V12.1428H14.2612V11.4286Z" fill="#FF7BD3"/>
<path d="M14.2612 10.7143H13.5481V11.4286H14.2612V10.7143Z" fill="#132F6D"/>
<path d="M14.2612 10H13.5481V10.7143H14.2612V10Z" fill="#C6F7FF"/>
<path d="M14.2612 9.28571H13.5481V9.99999H14.2612V9.28571Z" fill="#C6F7FF"/>
<path d="M14.2612 8.57144H13.5481V9.28573H14.2612V8.57144Z" fill="#81E0EA"/>
<path d="M14.2612 7.85715H13.5481V8.57143H14.2612V7.85715Z" fill="#81E0EA"/>
<path d="M14.2612 7.14285H13.5481V7.85714H14.2612V7.14285Z" fill="#81E0EA"/>
<path d="M14.2612 6.42856H13.5481V7.14284H14.2612V6.42856Z" fill="#132F6D"/>
<path d="M14.2612 5.71429H13.5481V6.42858H14.2612V5.71429Z" fill="#FF7BD3"/>
<path d="M14.2612 5H13.5481V5.71429H14.2612V5Z" fill="#FF7BD3"/>
<path d="M14.2612 4.28571H13.5481V4.99999H14.2612V4.28571Z" fill="#FF7BD3"/>
<path d="M14.2612 3.57144H13.5481V4.28573H14.2612V3.57144Z" fill="#FFBBEC"/>
<path d="M14.2612 2.85715H13.5481V3.57143H14.2612V2.85715Z" fill="#FF7BD3"/>
<path d="M14.2612 2.14285H13.5481V2.85714H14.2612V2.14285Z" fill="#FF7BD3"/>
<path d="M14.2612 1.42856H13.5481V2.14284H14.2612V1.42856Z" fill="#132F6D"/>
<path d="M13.5481 19.2857H12.835V20H13.5481V19.2857Z" fill="#132F6D"/>
<path d="M13.5481 18.5714H12.835V19.2857H13.5481V18.5714Z" fill="#C6F7FF"/>
<path d="M13.5481 17.8571H12.835V18.5714H13.5481V17.8571Z" fill="#132F6D"/>
<path d="M13.5481 17.1429H12.835V17.8571H13.5481V17.1429Z" fill="#ED56C2"/>
<path d="M13.5481 16.4286H12.835V17.1428H13.5481V16.4286Z" fill="#ED56C2"/>
<path d="M13.5481 15.7143H12.835V16.4286H13.5481V15.7143Z" fill="#ED56C2"/>
<path d="M13.5481 15H12.835V15.7143H13.5481V15Z" fill="#ED56C2"/>
<path d="M13.5481 14.2857H12.835V15H13.5481V14.2857Z" fill="#8E1DD8"/>
<path d="M13.5481 13.5714H12.835V14.2857H13.5481V13.5714Z" fill="#FF7BD3"/>
<path d="M13.5481 12.8571H12.835V13.5714H13.5481V12.8571Z" fill="#FFBBEC"/>
<path d="M13.5481 12.1429H12.835V12.8571H13.5481V12.1429Z" fill="#FF7BD3"/>
<path d="M13.5481 11.4286H12.835V12.1428H13.5481V11.4286Z" fill="#FF7BD3"/>
<path d="M13.5481 10.7143H12.835V11.4286H13.5481V10.7143Z" fill="#132F6D"/>
<path d="M13.5481 10H12.835V10.7143H13.5481V10Z" fill="#132F6D"/>
<path d="M13.5481 9.28571H12.835V9.99999H13.5481V9.28571Z" fill="#C6F7FF"/>
<path d="M13.5481 8.57144H12.835V9.28573H13.5481V8.57144Z" fill="#C6F7FF"/>
<path d="M13.5481 7.85715H12.835V8.57143H13.5481V7.85715Z" fill="#81E0EA"/>
<path d="M13.5481 7.14285H12.835V7.85714H13.5481V7.14285Z" fill="#81E0EA"/>
<path d="M13.5481 6.42856H12.835V7.14284H13.5481V6.42856Z" fill="#81E0EA"/>
<path d="M13.5481 5.71429H12.835V6.42858H13.5481V5.71429Z" fill="#132F6D"/>
<path d="M13.5481 5H12.835V5.71429H13.5481V5Z" fill="#FF7BD3"/>
<path d="M13.5481 4.28571H12.835V4.99999H13.5481V4.28571Z" fill="#FF7BD3"/>
<path d="M13.5481 3.57144H12.835V4.28573H13.5481V3.57144Z" fill="#FF7BD3"/>
<path d="M13.5481 2.85715H12.835V3.57143H13.5481V2.85715Z" fill="#FF7BD3"/>
<path d="M13.5481 2.14285H12.835V2.85714H13.5481V2.14285Z" fill="#FF7BD3"/>
<path d="M13.5481 1.42856H12.835V2.14284H13.5481V1.42856Z" fill="#FF7BD3"/>
<path d="M13.5481 0.714294H12.835V1.42858H13.5481V0.714294Z" fill="#132F6D"/>
<path d="M12.8351 19.2857H12.122V20H12.8351V19.2857Z" fill="#132F6D"/>
<path d="M12.8351 18.5714H12.122V19.2857H12.8351V18.5714Z" fill="#C6F7FF"/>
<path d="M12.8351 17.8571H12.122V18.5714H12.8351V17.8571Z" fill="#132F6D"/>
<path d="M12.8351 17.1429H12.122V17.8571H12.8351V17.1429Z" fill="#ED56C2"/>
<path d="M12.8351 16.4286H12.122V17.1428H12.8351V16.4286Z" fill="#ED56C2"/>
<path d="M12.8351 15.7143H12.122V16.4286H12.8351V15.7143Z" fill="#ED56C2"/>
<path d="M12.8351 15H12.122V15.7143H12.8351V15Z" fill="#ED56C2"/>
<path d="M12.8351 14.2857H12.122V15H12.8351V14.2857Z" fill="#ED56C2"/>
<path d="M12.8351 13.5714H12.122V14.2857H12.8351V13.5714Z" fill="#FF7BD3"/>
<path d="M12.8351 12.8571H12.122V13.5714H12.8351V12.8571Z" fill="#FFBBEC"/>
<path d="M12.8351 12.1429H12.122V12.8571H12.8351V12.1429Z" fill="#FF7BD3"/>
<path d="M12.8351 11.4286H12.122V12.1428H12.8351V11.4286Z" fill="#FF7BD3"/>
<path d="M12.8351 10.7143H12.122V11.4286H12.8351V10.7143Z" fill="#132F6D"/>
<path d="M12.8351 9.28571H12.122V9.99999H12.8351V9.28571Z" fill="#132F6D"/>
<path d="M12.8351 8.57144H12.122V9.28573H12.8351V8.57144Z" fill="#C6F7FF"/>
<path d="M12.8351 7.85715H12.122V8.57143H12.8351V7.85715Z" fill="#C6F7FF"/>
<path d="M12.8351 7.14285H12.122V7.85714H12.8351V7.14285Z" fill="#81E0EA"/>
<path d="M12.8351 6.42856H12.122V7.14284H12.8351V6.42856Z" fill="#81E0EA"/>
<path d="M12.8351 5.71429H12.122V6.42858H12.8351V5.71429Z" fill="#132F6D"/>
<path d="M12.8351 5H12.122V5.71429H12.8351V5Z" fill="#FF7BD3"/>
<path d="M12.8351 4.28571H12.122V4.99999H12.8351V4.28571Z" fill="#FF7BD3"/>
<path d="M12.8351 3.57144H12.122V4.28573H12.8351V3.57144Z" fill="#FF7BD3"/>
<path d="M12.8351 2.85715H12.122V3.57143H12.8351V2.85715Z" fill="#FF7BD3"/>
<path d="M12.8351 2.14285H12.122V2.85714H12.8351V2.14285Z" fill="#8E1DD8"/>
<path d="M12.8351 1.42856H12.122V2.14284H12.8351V1.42856Z" fill="#FF7BD3"/>
<path d="M12.8351 0.714294H12.122V1.42858H12.8351V0.714294Z" fill="#132F6D"/>
<path d="M12.122 19.2857H11.4089V20H12.122V19.2857Z" fill="#132F6D"/>
<path d="M12.122 18.5714H11.4089V19.2857H12.122V18.5714Z" fill="#C6F7FF"/>
<path d="M12.122 17.8571H11.4089V18.5714H12.122V17.8571Z" fill="#132F6D"/>
<path d="M12.122 17.1429H11.4089V17.8571H12.122V17.1429Z" fill="#ED56C2"/>
<path d="M12.122 16.4286H11.4089V17.1428H12.122V16.4286Z" fill="#ED56C2"/>
<path d="M12.122 15.7143H11.4089V16.4286H12.122V15.7143Z" fill="#ED56C2"/>
<path d="M12.122 15H11.4089V15.7143H12.122V15Z" fill="#ED56C2"/>
<path d="M12.122 14.2857H11.4089V15H12.122V14.2857Z" fill="#ED56C2"/>
<path d="M12.122 13.5714H11.4089V14.2857H12.122V13.5714Z" fill="#FF7BD3"/>
<path d="M12.122 12.8571H11.4089V13.5714H12.122V12.8571Z" fill="#FFBBEC"/>
<path d="M12.122 12.1429H11.4089V12.8571H12.122V12.1429Z" fill="#FF7BD3"/>
<path d="M12.122 11.4286H11.4089V12.1428H12.122V11.4286Z" fill="#FF7BD3"/>
<path d="M12.122 10.7143H11.4089V11.4286H12.122V10.7143Z" fill="#132F6D"/>
<path d="M12.122 8.57144H11.4089V9.28573H12.122V8.57144Z" fill="#132F6D"/>
<path d="M12.122 7.85715H11.4089V8.57143H12.122V7.85715Z" fill="#C6F7FF"/>
<path d="M12.122 7.14285H11.4089V7.85714H12.122V7.14285Z" fill="#C6F7FF"/>
<path d="M12.122 6.42856H11.4089V7.14284H12.122V6.42856Z" fill="#81E0EA"/>
<path d="M12.122 5.71429H11.4089V6.42858H12.122V5.71429Z" fill="#81E0EA"/>
<path d="M12.122 5H11.4089V5.71429H12.122V5Z" fill="#132F6D"/>
<path d="M12.122 4.28571H11.4089V4.99999H12.122V4.28571Z" fill="#FF7BD3"/>
<path d="M12.122 3.57144H11.4089V4.28573H12.122V3.57144Z" fill="#FF7BD3"/>
<path d="M12.122 2.85715H11.4089V3.57143H12.122V2.85715Z" fill="#FFBBEC"/>
<path d="M12.122 2.14285H11.4089V2.85714H12.122V2.14285Z" fill="#8E1DD8"/>
<path d="M12.122 1.42856H11.4089V2.14284H12.122V1.42856Z" fill="#FF7BD3"/>
<path d="M12.122 0.714294H11.4089V1.42858H12.122V0.714294Z" fill="#FF7BD3"/>
<path d="M12.122 0H11.4089V0.714286H12.122V0Z" fill="#132F6D"/>
<path d="M11.4089 19.2857H10.6959V20H11.4089V19.2857Z" fill="#132F6D"/>
<path d="M11.4089 18.5714H10.6959V19.2857H11.4089V18.5714Z" fill="#C6F7FF"/>
<path d="M11.4089 17.8571H10.6959V18.5714H11.4089V17.8571Z" fill="#81E0EA"/>
<path d="M11.4089 17.1429H10.6959V17.8571H11.4089V17.1429Z" fill="#132F6D"/>
<path d="M11.4089 16.4286H10.6959V17.1428H11.4089V16.4286Z" fill="#ED56C2"/>
<path d="M11.4089 15.7143H10.6959V16.4286H11.4089V15.7143Z" fill="#ED56C2"/>
<path d="M11.4089 15H10.6959V15.7143H11.4089V15Z" fill="#ED56C2"/>
<path d="M11.4089 14.2857H10.6959V15H11.4089V14.2857Z" fill="#8E1DD8"/>
<path d="M11.4089 13.5714H10.6959V14.2857H11.4089V13.5714Z" fill="#8E1DD8"/>
<path d="M11.4089 12.8571H10.6959V13.5714H11.4089V12.8571Z" fill="#FFBBEC"/>
<path d="M11.4089 12.1429H10.6959V12.8571H11.4089V12.1429Z" fill="#FF7BD3"/>
<path d="M11.4089 11.4286H10.6959V12.1428H11.4089V11.4286Z" fill="#FF7BD3"/>
<path d="M11.4089 10.7143H10.6959V11.4286H11.4089V10.7143Z" fill="#FF7BD3"/>
<path d="M11.4089 10H10.6959V10.7143H11.4089V10Z" fill="#132F6D"/>
<path d="M11.4089 7.85715H10.6959V8.57143H11.4089V7.85715Z" fill="#132F6D"/>
<path d="M11.4089 7.14285H10.6959V7.85714H11.4089V7.14285Z" fill="#C6F7FF"/>
<path d="M11.4089 6.42856H10.6959V7.14284H11.4089V6.42856Z" fill="#C6F7FF"/>
<path d="M11.4089 5.71429H10.6959V6.42858H11.4089V5.71429Z" fill="#81E0EA"/>
<path d="M11.4089 5H10.6959V5.71429H11.4089V5Z" fill="#132F6D"/>
<path d="M11.4089 4.28571H10.6959V4.99999H11.4089V4.28571Z" fill="#FF7BD3"/>
<path d="M11.4089 3.57144H10.6959V4.28573H11.4089V3.57144Z" fill="#FF7BD3"/>
<path d="M11.4089 2.85715H10.6959V3.57143H11.4089V2.85715Z" fill="#FFBBEC"/>
<path d="M11.4089 2.14285H10.6959V2.85714H11.4089V2.14285Z" fill="#FFBBEC"/>
<path d="M11.4089 1.42856H10.6959V2.14284H11.4089V1.42856Z" fill="#FF7BD3"/>
<path d="M11.4089 0.714294H10.6959V1.42858H11.4089V0.714294Z" fill="#FF7BD3"/>
<path d="M11.4089 0H10.6959V0.714286H11.4089V0Z" fill="#132F6D"/>
<path d="M10.6958 19.2857H9.98279V20H10.6958V19.2857Z" fill="#132F6D"/>
<path d="M10.6958 18.5714H9.98279V19.2857H10.6958V18.5714Z" fill="#C6F7FF"/>
<path d="M10.6958 17.8571H9.98279V18.5714H10.6958V17.8571Z" fill="#81E0EA"/>
<path d="M10.6958 17.1429H9.98279V17.8571H10.6958V17.1429Z" fill="#132F6D"/>
<path d="M10.6958 16.4286H9.98279V17.1428H10.6958V16.4286Z" fill="#ED56C2"/>
<path d="M10.6958 15.7143H9.98279V16.4286H10.6958V15.7143Z" fill="#ED56C2"/>
<path d="M10.6958 15H9.98279V15.7143H10.6958V15Z" fill="#ED56C2"/>
<path d="M10.6958 14.2857H9.98279V15H10.6958V14.2857Z" fill="#ED56C2"/>
<path d="M10.6958 13.5714H9.98279V14.2857H10.6958V13.5714Z" fill="#FF7BD3"/>
<path d="M10.6958 12.8571H9.98279V13.5714H10.6958V12.8571Z" fill="#FF7BD3"/>
<path d="M10.6958 12.1429H9.98279V12.8571H10.6958V12.1429Z" fill="#FFBBEC"/>
<path d="M10.6958 11.4286H9.98279V12.1428H10.6958V11.4286Z" fill="#FF7BD3"/>
<path d="M10.6958 10.7143H9.98279V11.4286H10.6958V10.7143Z" fill="#FF7BD3"/>
<path d="M10.6958 10H9.98279V10.7143H10.6958V10Z" fill="#132F6D"/>
<path d="M10.6958 7.14285H9.98279V7.85714H10.6958V7.14285Z" fill="#132F6D"/>
<path d="M10.6958 6.42856H9.98279V7.14284H10.6958V6.42856Z" fill="#C6F7FF"/>
<path d="M10.6958 5.71429H9.98279V6.42858H10.6958V5.71429Z" fill="#81E0EA"/>
<path d="M10.6958 5H9.98279V5.71429H10.6958V5Z" fill="#132F6D"/>
<path d="M10.6958 4.28571H9.98279V4.99999H10.6958V4.28571Z" fill="#FF7BD3"/>
<path d="M10.6958 3.57144H9.98279V4.28573H10.6958V3.57144Z" fill="#FF7BD3"/>
<path d="M10.6958 2.85715H9.98279V3.57143H10.6958V2.85715Z" fill="#FFBBEC"/>
<path d="M10.6958 2.14285H9.98279V2.85714H10.6958V2.14285Z" fill="#FFBBEC"/>
<path d="M10.6958 1.42856H9.98279V2.14284H10.6958V1.42856Z" fill="#FF7BD3"/>
<path d="M10.6958 0.714294H9.98279V1.42858H10.6958V0.714294Z" fill="#FF7BD3"/>
<path d="M10.6958 0H9.98279V0.714286H10.6958V0Z" fill="#132F6D"/>
<path d="M9.98283 18.5714H9.26978V19.2857H9.98283V18.5714Z" fill="#C6F7FF"/>
<path d="M9.98283 17.8571H9.26978V18.5714H9.98283V17.8571Z" fill="#81E0EA"/>
<path d="M9.98283 17.1429H9.26978V17.8571H9.98283V17.1429Z" fill="#132F6D"/>
<path d="M9.98283 16.4286H9.26978V17.1428H9.98283V16.4286Z" fill="#ED56C2"/>
<path d="M9.98283 15.7143H9.26978V16.4286H9.98283V15.7143Z" fill="#ED56C2"/>
<path d="M9.98283 15H9.26978V15.7143H9.98283V15Z" fill="#ED56C2"/>
<path d="M9.98283 14.2857H9.26978V15H9.98283V14.2857Z" fill="#FF7BD3"/>
<path d="M9.98283 13.5714H9.26978V14.2857H9.98283V13.5714Z" fill="#FF7BD3"/>
<path d="M9.98283 12.8571H9.26978V13.5714H9.98283V12.8571Z" fill="#FF7BD3"/>
<path d="M9.98283 12.1429H9.26978V12.8571H9.98283V12.1429Z" fill="#8E1DD8"/>
<path d="M9.98283 11.4286H9.26978V12.1428H9.98283V11.4286Z" fill="#FFBBEC"/>
<path d="M9.98283 10.7143H9.26978V11.4286H9.98283V10.7143Z" fill="#FF7BD3"/>
<path d="M9.98283 10H9.26978V10.7143H9.98283V10Z" fill="#FF7BD3"/>
<path d="M9.98283 9.28571H9.26978V9.99999H9.98283V9.28571Z" fill="#132F6D"/>
<path d="M9.98283 7.14285H9.26978V7.85714H9.98283V7.14285Z" fill="#132F6D"/>
<path d="M9.98283 6.42856H9.26978V7.14284H9.98283V6.42856Z" fill="#C6F7FF"/>
<path d="M9.98283 5.71429H9.26978V6.42858H9.98283V5.71429Z" fill="#81E0EA"/>
<path d="M9.98283 5H9.26978V5.71429H9.98283V5Z" fill="#132F6D"/>
<path d="M9.98283 4.28571H9.26978V4.99999H9.98283V4.28571Z" fill="#FF7BD3"/>
<path d="M9.98283 3.57144H9.26978V4.28573H9.98283V3.57144Z" fill="#FF7BD3"/>
<path d="M9.98283 2.85715H9.26978V3.57143H9.98283V2.85715Z" fill="#FFBBEC"/>
<path d="M9.98283 2.14285H9.26978V2.85714H9.98283V2.14285Z" fill="#FFBBEC"/>
<path d="M9.98283 1.42856H9.26978V2.14284H9.98283V1.42856Z" fill="#FF7BD3"/>
<path d="M9.98283 0.714294H9.26978V1.42858H9.98283V0.714294Z" fill="#FF7BD3"/>
<path d="M9.98283 0H9.26978V0.714286H9.98283V0Z" fill="#132F6D"/>
<path d="M9.26976 17.8571H8.5567V18.5714H9.26976V17.8571Z" fill="#81E0EA"/>
<path d="M9.26976 17.1429H8.5567V17.8571H9.26976V17.1429Z" fill="#132F6D"/>
<path d="M9.26976 16.4286H8.5567V17.1428H9.26976V16.4286Z" fill="#ED56C2"/>
<path d="M9.26976 15.7143H8.5567V16.4286H9.26976V15.7143Z" fill="#ED56C2"/>
<path d="M9.26976 15H8.5567V15.7143H9.26976V15Z" fill="#ED56C2"/>
<path d="M9.26976 14.2857H8.5567V15H9.26976V14.2857Z" fill="#ED56C2"/>
<path d="M9.26976 13.5714H8.5567V14.2857H9.26976V13.5714Z" fill="#ED56C2"/>
<path d="M9.26976 12.8571H8.5567V13.5714H9.26976V12.8571Z" fill="#FF7BD3"/>
<path d="M9.26976 12.1429H8.5567V12.8571H9.26976V12.1429Z" fill="#8E1DD8"/>
<path d="M9.26976 11.4286H8.5567V12.1428H9.26976V11.4286Z" fill="#FF7BD3"/>
<path d="M9.26976 10.7143H8.5567V11.4286H9.26976V10.7143Z" fill="#FF7BD3"/>
<path d="M9.26976 10H8.5567V10.7143H9.26976V10Z" fill="#FF7BD3"/>
<path d="M9.26976 9.28571H8.5567V9.99999H9.26976V9.28571Z" fill="#FF7BD3"/>
<path d="M9.26976 8.57144H8.5567V9.28573H9.26976V8.57144Z" fill="#132F6D"/>
<path d="M9.26976 7.14285H8.5567V7.85714H9.26976V7.14285Z" fill="#132F6D"/>
<path d="M9.26976 6.42856H8.5567V7.14284H9.26976V6.42856Z" fill="#C6F7FF"/>
<path d="M9.26976 5.71429H8.5567V6.42858H9.26976V5.71429Z" fill="#81E0EA"/>
<path d="M9.26976 5H8.5567V5.71429H9.26976V5Z" fill="#132F6D"/>
<path d="M9.26976 4.28571H8.5567V4.99999H9.26976V4.28571Z" fill="#FF7BD3"/>
<path d="M9.26976 3.57144H8.5567V4.28573H9.26976V3.57144Z" fill="#FF7BD3"/>
<path d="M9.26976 2.85715H8.5567V3.57143H9.26976V2.85715Z" fill="#FFBBEC"/>
<path d="M9.26976 2.14285H8.5567V2.85714H9.26976V2.14285Z" fill="#8E1DD8"/>
<path d="M9.26976 1.42856H8.5567V2.14284H9.26976V1.42856Z" fill="#8E1DD8"/>
<path d="M9.26976 0.714294H8.5567V1.42858H9.26976V0.714294Z" fill="#FF7BD3"/>
<path d="M9.26976 0H8.5567V0.714286H9.26976V0Z" fill="#132F6D"/>
<path d="M8.55669 17.8571H7.84363V18.5714H8.55669V17.8571Z" fill="#C6F7FF"/>
<path d="M8.55669 17.1429H7.84363V17.8571H8.55669V17.1429Z" fill="#81E0EA"/>
<path d="M8.55669 16.4286H7.84363V17.1428H8.55669V16.4286Z" fill="#132F6D"/>
<path d="M8.55669 15.7143H7.84363V16.4286H8.55669V15.7143Z" fill="#ED56C2"/>
<path d="M8.55669 15H7.84363V15.7143H8.55669V15Z" fill="#ED56C2"/>
<path d="M8.55669 14.2857H7.84363V15H8.55669V14.2857Z" fill="#ED56C2"/>
<path d="M8.55669 13.5714H7.84363V14.2857H8.55669V13.5714Z" fill="#ED56C2"/>
<path d="M8.55669 12.8571H7.84363V13.5714H8.55669V12.8571Z" fill="#ED56C2"/>
<path d="M8.55669 12.1429H7.84363V12.8571H8.55669V12.1429Z" fill="#FF7BD3"/>
<path d="M8.55669 11.4286H7.84363V12.1428H8.55669V11.4286Z" fill="#FF7BD3"/>
<path d="M8.55669 10.7143H7.84363V11.4286H8.55669V10.7143Z" fill="#FF7BD3"/>
<path d="M8.55669 10H7.84363V10.7143H8.55669V10Z" fill="#FF7BD3"/>
<path d="M8.55669 9.28571H7.84363V9.99999H8.55669V9.28571Z" fill="#FF7BD3"/>
<path d="M8.55669 8.57144H7.84363V9.28573H8.55669V8.57144Z" fill="#FF7BD3"/>
<path d="M8.55669 7.85715H7.84363V8.57143H8.55669V7.85715Z" fill="#132F6D"/>
<path d="M8.55669 7.14285H7.84363V7.85714H8.55669V7.14285Z" fill="#132F6D"/>
<path d="M8.55669 6.42856H7.84363V7.14284H8.55669V6.42856Z" fill="#132F6D"/>
<path d="M8.55669 5.71429H7.84363V6.42858H8.55669V5.71429Z" fill="#132F6D"/>
<path d="M8.55669 5H7.84363V5.71429H8.55669V5Z" fill="#FF7BD3"/>
<path d="M8.55669 4.28571H7.84363V4.99999H8.55669V4.28571Z" fill="#FF7BD3"/>
<path d="M8.55669 3.57144H7.84363V4.28573H8.55669V3.57144Z" fill="#FF7BD3"/>
<path d="M8.55669 2.85715H7.84363V3.57143H8.55669V2.85715Z" fill="#FFBBEC"/>
<path d="M8.55669 2.14285H7.84363V2.85714H8.55669V2.14285Z" fill="#FFBBEC"/>
<path d="M8.55669 1.42856H7.84363V2.14284H8.55669V1.42856Z" fill="#FF7BD3"/>
<path d="M8.55669 0.714294H7.84363V1.42858H8.55669V0.714294Z" fill="#FF7BD3"/>
<path d="M8.55669 0H7.84363V0.714286H8.55669V0Z" fill="#132F6D"/>
<path d="M7.84361 17.8571H7.13055V18.5714H7.84361V17.8571Z" fill="#C6F7FF"/>
<path d="M9.26976 18.5714H8.5567V19.2857H9.26976V18.5714Z" fill="#C6F7FF"/>
<path d="M8.55669 18.5714H7.84363V19.2857H8.55669V18.5714Z" fill="#132F6D"/>
<path d="M7.84361 18.5714H7.13055V19.2857H7.84361V18.5714Z" fill="#132F6D"/>
<path d="M9.98283 19.2857H9.26978V20H9.98283V19.2857Z" fill="#132F6D"/>
<path d="M9.26976 19.2857H8.5567V20H9.26976V19.2857Z" fill="#132F6D"/>
<path d="M7.84361 17.1429H7.13055V17.8571H7.84361V17.1429Z" fill="#81E0EA"/>
<path d="M7.84361 16.4286H7.13055V17.1428H7.84361V16.4286Z" fill="#132F6D"/>
<path d="M7.84361 15.7143H7.13055V16.4286H7.84361V15.7143Z" fill="#ED56C2"/>
<path d="M7.84361 15H7.13055V15.7143H7.84361V15Z" fill="#ED56C2"/>
<path d="M7.84361 14.2857H7.13055V15H7.84361V14.2857Z" fill="#ED56C2"/>
<path d="M7.84361 13.5714H7.13055V14.2857H7.84361V13.5714Z" fill="#ED56C2"/>
<path d="M7.84361 12.8571H7.13055V13.5714H7.84361V12.8571Z" fill="#ED56C2"/>
<path d="M7.84361 12.1429H7.13055V12.8571H7.84361V12.1429Z" fill="#ED56C2"/>
<path d="M7.84361 11.4286H7.13055V12.1428H7.84361V11.4286Z" fill="#FF7BD3"/>
<path d="M7.84361 10.7143H7.13055V11.4286H7.84361V10.7143Z" fill="#FF7BD3"/>
<path d="M7.84361 10H7.13055V10.7143H7.84361V10Z" fill="#FF7BD3"/>
<path d="M7.84361 9.28571H7.13055V9.99999H7.84361V9.28571Z" fill="#8E1DD8"/>
<path d="M7.84361 8.57144H7.13055V9.28573H7.84361V8.57144Z" fill="#FF7BD3"/>
<path d="M7.84361 7.85715H7.13055V8.57143H7.84361V7.85715Z" fill="#FF7BD3"/>
<path d="M7.84361 7.14285H7.13055V7.85714H7.84361V7.14285Z" fill="#FF7BD3"/>
<path d="M7.84361 6.42856H7.13055V7.14284H7.84361V6.42856Z" fill="#FF7BD3"/>
<path d="M7.84361 5.71429H7.13055V6.42858H7.84361V5.71429Z" fill="#FF7BD3"/>
<path d="M7.84361 5H7.13055V5.71429H7.84361V5Z" fill="#FF7BD3"/>
<path d="M7.84361 4.28571H7.13055V4.99999H7.84361V4.28571Z" fill="#8E1DD8"/>
<path d="M7.84361 3.57144H7.13055V4.28573H7.84361V3.57144Z" fill="#FFBBEC"/>
<path d="M7.84361 2.85715H7.13055V3.57143H7.84361V2.85715Z" fill="#FFBBEC"/>
<path d="M7.84361 2.14285H7.13055V2.85714H7.84361V2.14285Z" fill="#FFBBEC"/>
<path d="M7.84361 1.42856H7.13055V2.14284H7.84361V1.42856Z" fill="#FF7BD3"/>
<path d="M7.84361 0.714294H7.13055V1.42858H7.84361V0.714294Z" fill="#FF7BD3"/>
<path d="M7.84361 0H7.13055V0.714286H7.84361V0Z" fill="#132F6D"/>
<path d="M7.1306 17.1429H6.41754V17.8571H7.1306V17.1429Z" fill="#C6F7FF"/>
<path d="M7.1306 16.4286H6.41754V17.1428H7.1306V16.4286Z" fill="#132F6D"/>
<path d="M7.1306 15.7143H6.41754V16.4286H7.1306V15.7143Z" fill="#132F6D"/>
<path d="M7.1306 15H6.41754V15.7143H7.1306V15Z" fill="#ED56C2"/>
<path d="M7.1306 14.2857H6.41754V15H7.1306V14.2857Z" fill="#ED56C2"/>
<path d="M7.1306 13.5714H6.41754V14.2857H7.1306V13.5714Z" fill="#ED56C2"/>
<path d="M7.1306 12.8571H6.41754V13.5714H7.1306V12.8571Z" fill="#ED56C2"/>
<path d="M7.1306 12.1429H6.41754V12.8571H7.1306V12.1429Z" fill="#ED56C2"/>
<path d="M7.1306 11.4286H6.41754V12.1428H7.1306V11.4286Z" fill="#8E1DD8"/>
<path d="M7.1306 10.7143H6.41754V11.4286H7.1306V10.7143Z" fill="#8E1DD8"/>
<path d="M7.1306 10H6.41754V10.7143H7.1306V10Z" fill="#FF7BD3"/>
<path d="M7.1306 9.28571H6.41754V9.99999H7.1306V9.28571Z" fill="#8E1DD8"/>
<path d="M7.1306 8.57144H6.41754V9.28573H7.1306V8.57144Z" fill="#FF7BD3"/>
<path d="M7.1306 7.85715H6.41754V8.57143H7.1306V7.85715Z" fill="#FF7BD3"/>
<path d="M7.1306 7.14285H6.41754V7.85714H7.1306V7.14285Z" fill="#FF7BD3"/>
<path d="M7.1306 6.42856H6.41754V7.14284H7.1306V6.42856Z" fill="#FF7BD3"/>
<path d="M7.1306 5.71429H6.41754V6.42858H7.1306V5.71429Z" fill="#FF7BD3"/>
<path d="M7.1306 5H6.41754V5.71429H7.1306V5Z" fill="#FF7BD3"/>
<path d="M7.1306 4.28571H6.41754V4.99999H7.1306V4.28571Z" fill="#FFBBEC"/>
<path d="M7.1306 3.57144H6.41754V4.28573H7.1306V3.57144Z" fill="#FFBBEC"/>
<path d="M7.1306 2.85715H6.41754V3.57143H7.1306V2.85715Z" fill="#FFBBEC"/>
<path d="M7.1306 2.14285H6.41754V2.85714H7.1306V2.14285Z" fill="#FF7BD3"/>
<path d="M7.1306 1.42856H6.41754V2.14284H7.1306V1.42856Z" fill="#FF7BD3"/>
<path d="M7.1306 0.714294H6.41754V1.42858H7.1306V0.714294Z" fill="#132F6D"/>
<path d="M6.41753 17.1429H5.70447V17.8571H6.41753V17.1429Z" fill="#C6F7FF"/>
<path d="M6.41753 16.4286H5.70447V17.1428H6.41753V16.4286Z" fill="#C6F7FF"/>
<path d="M6.41753 15.7143H5.70447V16.4286H6.41753V15.7143Z" fill="#81E0EA"/>
<path d="M6.41753 15H5.70447V15.7143H6.41753V15Z" fill="#132F6D"/>
<path d="M6.41753 14.2857H5.70447V15H6.41753V14.2857Z" fill="#132F6D"/>
<path d="M6.41753 13.5714H5.70447V14.2857H6.41753V13.5714Z" fill="#132F6D"/>
<path d="M6.41753 12.8571H5.70447V13.5714H6.41753V12.8571Z" fill="#ED56C2"/>
<path d="M6.41753 12.1429H5.70447V12.8571H6.41753V12.1429Z" fill="#ED56C2"/>
<path d="M6.41753 11.4286H5.70447V12.1428H6.41753V11.4286Z" fill="#ED56C2"/>
<path d="M6.41753 10.7143H5.70447V11.4286H6.41753V10.7143Z" fill="#ED56C2"/>
<path d="M6.41753 10H5.70447V10.7143H6.41753V10Z" fill="#FF7BD3"/>
<path d="M6.41753 9.28571H5.70447V9.99999H6.41753V9.28571Z" fill="#FF7BD3"/>
<path d="M6.41753 8.57144H5.70447V9.28573H6.41753V8.57144Z" fill="#FF7BD3"/>
<path d="M6.41753 7.85715H5.70447V8.57143H6.41753V7.85715Z" fill="#FF7BD3"/>
<path d="M6.41753 7.14285H5.70447V7.85714H6.41753V7.14285Z" fill="#FF7BD3"/>
<path d="M6.41753 6.42856H5.70447V7.14284H6.41753V6.42856Z" fill="#FFBBEC"/>
<path d="M6.41753 5.71429H5.70447V6.42858H6.41753V5.71429Z" fill="#FFBBEC"/>
<path d="M6.41753 5H5.70447V5.71429H6.41753V5Z" fill="#FFBBEC"/>
<path d="M6.41753 4.28571H5.70447V4.99999H6.41753V4.28571Z" fill="#FFBBEC"/>
<path d="M6.41753 3.57144H5.70447V4.28573H6.41753V3.57144Z" fill="#FFBBEC"/>
<path d="M6.41753 2.85715H5.70447V3.57143H6.41753V2.85715Z" fill="#FFBBEC"/>
<path d="M6.41753 2.14285H5.70447V2.85714H6.41753V2.14285Z" fill="#8E1DD8"/>
<path d="M6.41753 1.42856H5.70447V2.14284H6.41753V1.42856Z" fill="#FF7BD3"/>
<path d="M6.41753 0.714294H5.70447V1.42858H6.41753V0.714294Z" fill="#132F6D"/>
<path d="M5.70445 16.4286H4.99139V17.1428H5.70445V16.4286Z" fill="#C6F7FF"/>
<path d="M5.70445 15.7143H4.99139V16.4286H5.70445V15.7143Z" fill="#C6F7FF"/>
<path d="M5.70445 15H4.99139V15.7143H5.70445V15Z" fill="#C6F7FF"/>
<path d="M5.70445 14.2857H4.99139V15H5.70445V14.2857Z" fill="#81E0EA"/>
<path d="M5.70445 13.5714H4.99139V14.2857H5.70445V13.5714Z" fill="#132F6D"/>
<path d="M5.70445 12.8571H4.99139V13.5714H5.70445V12.8571Z" fill="#ED56C2"/>
<path d="M5.70445 12.1429H4.99139V12.8571H5.70445V12.1429Z" fill="#ED56C2"/>
<path d="M5.70445 11.4286H4.99139V12.1428H5.70445V11.4286Z" fill="#ED56C2"/>
<path d="M5.70445 10.7143H4.99139V11.4286H5.70445V10.7143Z" fill="#ED56C2"/>
<path d="M5.70445 10H4.99139V10.7143H5.70445V10Z" fill="#ED56C2"/>
<path d="M5.70445 9.28571H4.99139V9.99999H5.70445V9.28571Z" fill="#ED56C2"/>
<path d="M5.70445 8.57144H4.99139V9.28573H5.70445V8.57144Z" fill="#ED56C2"/>
<path d="M5.70445 7.85715H4.99139V8.57143H5.70445V7.85715Z" fill="#8E1DD8"/>
<path d="M5.70445 7.14285H4.99139V7.85714H5.70445V7.14285Z" fill="#8E1DD8"/>
<path d="M5.70445 6.42856H4.99139V7.14284H5.70445V6.42856Z" fill="#FFBBEC"/>
<path d="M5.70445 5.71429H4.99139V6.42858H5.70445V5.71429Z" fill="#FFBBEC"/>
<path d="M5.70445 5H4.99139V5.71429H5.70445V5Z" fill="#8E1DD8"/>
<path d="M5.70445 4.28571H4.99139V4.99999H5.70445V4.28571Z" fill="#FFBBEC"/>
<path d="M5.70445 3.57144H4.99139V4.28573H5.70445V3.57144Z" fill="#FF7BD3"/>
<path d="M5.70445 2.85715H4.99139V3.57143H5.70445V2.85715Z" fill="#FF7BD3"/>
<path d="M5.70445 2.14285H4.99139V2.85714H5.70445V2.14285Z" fill="#FF7BD3"/>
<path d="M5.70445 1.42856H4.99139V2.14284H5.70445V1.42856Z" fill="#FF7BD3"/>
<path d="M5.70445 0.714294H4.99139V1.42858H5.70445V0.714294Z" fill="#132F6D"/>
<path d="M4.99138 15.7143H4.27832V16.4286H4.99138V15.7143Z" fill="#C6F7FF"/>
<path d="M4.99138 15H4.27832V15.7143H4.99138V15Z" fill="#C6F7FF"/>
<path d="M4.99138 14.2857H4.27832V15H4.99138V14.2857Z" fill="#132F6D"/>
<path d="M4.99138 13.5714H4.27832V14.2857H4.99138V13.5714Z" fill="#ED56C2"/>
<path d="M4.99138 12.8571H4.27832V13.5714H4.99138V12.8571Z" fill="#ED56C2"/>
<path d="M4.99138 12.1429H4.27832V12.8571H4.99138V12.1429Z" fill="#ED56C2"/>
<path d="M4.99138 11.4286H4.27832V12.1428H4.99138V11.4286Z" fill="#ED56C2"/>
<path d="M4.99138 10.7143H4.27832V11.4286H4.99138V10.7143Z" fill="#ED56C2"/>
<path d="M4.99138 10H4.27832V10.7143H4.99138V10Z" fill="#ED56C2"/>
<path d="M4.99138 9.28571H4.27832V9.99999H4.99138V9.28571Z" fill="#ED56C2"/>
<path d="M4.99138 8.57144H4.27832V9.28573H4.99138V8.57144Z" fill="#ED56C2"/>
<path d="M4.99138 7.85715H4.27832V8.57143H4.99138V7.85715Z" fill="#ED56C2"/>
<path d="M4.99138 7.14285H4.27832V7.85714H4.99138V7.14285Z" fill="#FF7BD3"/>
<path d="M4.99138 6.42856H4.27832V7.14284H4.99138V6.42856Z" fill="#FF7BD3"/>
<path d="M4.99138 5.71429H4.27832V6.42858H4.99138V5.71429Z" fill="#FF7BD3"/>
<path d="M4.99138 5H4.27832V5.71429H4.99138V5Z" fill="#8E1DD8"/>
<path d="M4.99138 4.28571H4.27832V4.99999H4.99138V4.28571Z" fill="#FF7BD3"/>
<path d="M4.99138 3.57144H4.27832V4.28573H4.99138V3.57144Z" fill="#FF7BD3"/>
<path d="M4.99138 2.85715H4.27832V3.57143H4.99138V2.85715Z" fill="#FF7BD3"/>
<path d="M4.99138 2.14285H4.27832V2.85714H4.99138V2.14285Z" fill="#FF7BD3"/>
<path d="M4.99138 1.42856H4.27832V2.14284H4.99138V1.42856Z" fill="#132F6D"/>
<path d="M4.27837 15H3.56531V15.7143H4.27837V15Z" fill="#132F6D"/>
<path d="M6.41753 17.85H5.70447V18.5643H6.41753V17.85Z" fill="#132F6D"/>
<path d="M5.70445 17.1429H4.99139V17.8571H5.70445V17.1429Z" fill="#132F6D"/>
<path d="M4.99138 16.4286H4.27832V17.1428H4.99138V16.4286Z" fill="#132F6D"/>
<path d="M4.27837 15.7143H3.56531V16.4286H4.27837V15.7143Z" fill="#132F6D"/>
<path d="M4.27837 14.2857H3.56531V15H4.27837V14.2857Z" fill="#ED56C2"/>
<path d="M4.27837 13.5714H3.56531V14.2857H4.27837V13.5714Z" fill="#ED56C2"/>
<path d="M4.27837 12.8571H3.56531V13.5714H4.27837V12.8571Z" fill="#ED56C2"/>
<path d="M4.27837 12.1429H3.56531V12.8571H4.27837V12.1429Z" fill="#ED56C2"/>
<path d="M4.27837 11.4286H3.56531V12.1428H4.27837V11.4286Z" fill="#132F6D"/>
<path d="M4.27837 10.7143H3.56531V11.4286H4.27837V10.7143Z" fill="#132F6D"/>
<path d="M4.27837 10H3.56531V10.7143H4.27837V10Z" fill="#132F6D"/>
<path d="M4.27837 9.28571H3.56531V9.99999H4.27837V9.28571Z" fill="#132F6D"/>
<path d="M4.27837 8.57144H3.56531V9.28573H4.27837V8.57144Z" fill="#ED56C2"/>
<path d="M4.27837 7.85715H3.56531V8.57143H4.27837V7.85715Z" fill="#ED56C2"/>
<path d="M4.27837 7.14285H3.56531V7.85714H4.27837V7.14285Z" fill="#ED56C2"/>
<path d="M4.27837 6.42856H3.56531V7.14284H4.27837V6.42856Z" fill="#FF7BD3"/>
<path d="M4.27837 5.71429H3.56531V6.42858H4.27837V5.71429Z" fill="#FF7BD3"/>
<path d="M4.27837 5H3.56531V5.71429H4.27837V5Z" fill="#FF7BD3"/>
<path d="M4.27837 4.28571H3.56531V4.99999H4.27837V4.28571Z" fill="#FF7BD3"/>
<path d="M4.27837 3.57144H3.56531V4.28573H4.27837V3.57144Z" fill="#FF7BD3"/>
<path d="M4.27837 2.85715H3.56531V3.57143H4.27837V2.85715Z" fill="#FF7BD3"/>
<path d="M4.27837 2.14285H3.56531V2.85714H4.27837V2.14285Z" fill="#FF7BD3"/>
<path d="M4.27837 1.42856H3.56531V2.14284H4.27837V1.42856Z" fill="#132F6D"/>
<path d="M3.56529 15H2.85223V15.7143H3.56529V15Z" fill="#132F6D"/>
<path d="M3.56529 14.2857H2.85223V15H3.56529V14.2857Z" fill="#ED56C2"/>
<path d="M3.56529 13.5714H2.85223V14.2857H3.56529V13.5714Z" fill="#ED56C2"/>
<path d="M3.56529 12.8571H2.85223V13.5714H3.56529V12.8571Z" fill="#132F6D"/>
<path d="M3.56529 12.1429H2.85223V12.8571H3.56529V12.1429Z" fill="#132F6D"/>
<path d="M3.56529 11.4286H2.85223V12.1428H3.56529V11.4286Z" fill="#81E0EA"/>
<path d="M3.56529 10.7143H2.85223V11.4286H3.56529V10.7143Z" fill="#81E0EA"/>
<path d="M3.56529 10H2.85223V10.7143H3.56529V10Z" fill="#81E0EA"/>
<path d="M3.56529 9.28571H2.85223V9.99999H3.56529V9.28571Z" fill="#81E0EA"/>
<path d="M3.56529 8.57144H2.85223V9.28573H3.56529V8.57144Z" fill="#132F6D"/>
<path d="M3.56529 7.85715H2.85223V8.57143H3.56529V7.85715Z" fill="#ED56C2"/>
<path d="M3.56529 7.14285H2.85223V7.85714H3.56529V7.14285Z" fill="#ED56C2"/>
<path d="M3.56529 6.42856H2.85223V7.14284H3.56529V6.42856Z" fill="#ED56C2"/>
<path d="M3.56529 5.71429H2.85223V6.42858H3.56529V5.71429Z" fill="#ED56C2"/>
<path d="M3.56529 5H2.85223V5.71429H3.56529V5Z" fill="#ED56C2"/>
<path d="M3.56529 4.28571H2.85223V4.99999H3.56529V4.28571Z" fill="#FF7BD3"/>
<path d="M3.56529 3.57144H2.85223V4.28573H3.56529V3.57144Z" fill="#FF7BD3"/>
<path d="M3.56529 2.85715H2.85223V3.57143H3.56529V2.85715Z" fill="#FF7BD3"/>
<path d="M3.56529 2.14285H2.85223V2.85714H3.56529V2.14285Z" fill="#132F6D"/>
<path d="M2.85222 14.2857H2.13916V15H2.85222V14.2857Z" fill="#132F6D"/>
<path d="M2.85222 13.5714H2.13916V14.2857H2.85222V13.5714Z" fill="#132F6D"/>
<path d="M2.85222 12.8571H2.13916V13.5714H2.85222V12.8571Z" fill="#C6F7FF"/>
<path d="M2.85222 12.1429H2.13916V12.8571H2.85222V12.1429Z" fill="#C6F7FF"/>
<path d="M2.85222 11.4286H2.13916V12.1428H2.85222V11.4286Z" fill="#C6F7FF"/>
<path d="M2.85222 10.7143H2.13916V11.4286H2.85222V10.7143Z" fill="#81E0EA"/>
<path d="M2.85222 10H2.13916V10.7143H2.85222V10Z" fill="#81E0EA"/>
<path d="M2.85222 9.28571H2.13916V9.99999H2.85222V9.28571Z" fill="#81E0EA"/>
<path d="M2.85222 8.57144H2.13916V9.28573H2.85222V8.57144Z" fill="#81E0EA"/>
<path d="M2.85222 7.85715H2.13916V8.57143H2.85222V7.85715Z" fill="#132F6D"/>
<path d="M2.85222 7.14285H2.13916V7.85714H2.85222V7.14285Z" fill="#132F6D"/>
<path d="M2.85222 6.42856H2.13916V7.14284H2.85222V6.42856Z" fill="#132F6D"/>
<path d="M2.85222 5.71429H2.13916V6.42858H2.85222V5.71429Z" fill="#132F6D"/>
<path d="M2.85222 5H2.13916V5.71429H2.85222V5Z" fill="#132F6D"/>
<path d="M2.85222 4.28571H2.13916V4.99999H2.85222V4.28571Z" fill="#FF7BD3"/>
<path d="M2.85222 3.57144H2.13916V4.28573H2.85222V3.57144Z" fill="#FF7BD3"/>
<path d="M2.85222 2.85715H2.13916V3.57143H2.85222V2.85715Z" fill="#132F6D"/>
<path d="M2.13914 12.8571H1.42609V13.5714H2.13914V12.8571Z" fill="#132F6D"/>
<path d="M2.13914 12.1429H1.42609V12.8571H2.13914V12.1429Z" fill="#C6F7FF"/>
<path d="M2.13914 11.4286H1.42609V12.1428H2.13914V11.4286Z" fill="#C6F7FF"/>
<path d="M2.13914 10.7143H1.42609V11.4286H2.13914V10.7143Z" fill="#C6F7FF"/>
<path d="M2.13914 10H1.42609V10.7143H2.13914V10Z" fill="#C6F7FF"/>
<path d="M2.13914 9.28571H1.42609V9.99999H2.13914V9.28571Z" fill="#C6F7FF"/>
<path d="M2.13914 8.57144H1.42609V9.28573H2.13914V8.57144Z" fill="#81E0EA"/>
<path d="M2.13914 7.85715H1.42609V8.57143H2.13914V7.85715Z" fill="#81E0EA"/>
<path d="M2.13914 7.14285H1.42609V7.85714H2.13914V7.14285Z" fill="#81E0EA"/>
<path d="M2.13914 6.42856H1.42609V7.14284H2.13914V6.42856Z" fill="#81E0EA"/>
<path d="M2.13914 5.71429H1.42609V6.42858H2.13914V5.71429Z" fill="#81E0EA"/>
<path d="M2.13914 5H1.42609V5.71429H2.13914V5Z" fill="#81E0EA"/>
<path d="M2.13914 4.28571H1.42609V4.99999H2.13914V4.28571Z" fill="#132F6D"/>
<path d="M2.13914 3.57144H1.42609V4.28573H2.13914V3.57144Z" fill="#132F6D"/>
<path d="M1.42613 12.1429H0.713074V12.8571H1.42613V12.1429Z" fill="#132F6D"/>
<path d="M1.42613 11.4286H0.713074V12.1428H1.42613V11.4286Z" fill="#132F6D"/>
<path d="M1.42613 10.7143H0.713074V11.4286H1.42613V10.7143Z" fill="#C6F7FF"/>
<path d="M1.42613 10H0.713074V10.7143H1.42613V10Z" fill="#C6F7FF"/>
<path d="M1.42613 9.28571H0.713074V9.99999H1.42613V9.28571Z" fill="#C6F7FF"/>
<path d="M1.42613 8.57144H0.713074V9.28573H1.42613V8.57144Z" fill="#C6F7FF"/>
<path d="M1.42613 7.85715H0.713074V8.57143H1.42613V7.85715Z" fill="#C6F7FF"/>
<path d="M1.42613 7.14285H0.713074V7.85714H1.42613V7.14285Z" fill="#C6F7FF"/>
<path d="M1.42613 6.42856H0.713074V7.14284H1.42613V6.42856Z" fill="#C6F7FF"/>
<path d="M1.42613 5.71429H0.713074V6.42858H1.42613V5.71429Z" fill="#132F6D"/>
<path d="M1.42613 5H0.713074V5.71429H1.42613V5Z" fill="#132F6D"/>
<path d="M0.713058 10.7143H0V11.4286H0.713058V10.7143Z" fill="#132F6D"/>
<path d="M0.713058 10H0V10.7143H0.713058V10Z" fill="#132F6D"/>
<path d="M0.713058 9.28571H0V9.99999H0.713058V9.28571Z" fill="#132F6D"/>
<path d="M0.713058 8.57144H0V9.28573H0.713058V8.57144Z" fill="#132F6D"/>
<path d="M0.713058 7.85715H0V8.57143H0.713058V7.85715Z" fill="#132F6D"/>
<path d="M0.713058 7.14285H0V7.85714H0.713058V7.14285Z" fill="#132F6D"/>
<path d="M0.713058 6.42856H0V7.14284H0.713058V6.42856Z" fill="#132F6D"/>
</g>
<path d="M32.5459 15V4.92H35.6339C38.5139 4.92 40.0979 6.904 40.0979 9.944C40.0979 12.92 38.6099 15 35.6979 15H32.5459ZM34.7379 13.16H35.7939C37.3299 13.16 37.8899 11.832 37.8899 9.944C37.8899 7.992 37.2659 6.744 35.7299 6.744H34.7379V13.16ZM41.803 15V4.92H48.523V6.76H43.931V9.032H47.899V10.776H43.931V13.16H48.571V15H41.803ZM57.6841 12.072C57.6841 13.944 56.3081 15.288 53.8601 15.288C52.4361 15.288 50.9161 14.808 50.1321 14.328L50.8201 12.584H51.1081C51.7321 13.016 52.7401 13.448 53.7321 13.448C54.7561 13.448 55.4441 13 55.4441 12.216C55.4441 11.576 54.9641 11.272 54.2441 11.048L52.9801 10.664C50.8841 10.024 50.5001 8.776 50.5001 7.752C50.5001 5.96 51.7001 4.696 54.1481 4.696C55.1241 4.696 56.1641 4.888 57.0761 5.272V7.288H56.8041C55.8601 6.776 54.9321 6.584 54.2281 6.584C53.2521 6.584 52.7401 6.952 52.7401 7.608C52.7401 8.104 53.0601 8.472 53.8601 8.712L55.1241 9.096C57.0921 9.688 57.6841 10.856 57.6841 12.072ZM59.5493 15V13.224H61.9333V6.696H59.5493V4.92H66.4613V6.696H64.0773V13.224H66.4613V15H59.5493ZM71.8944 15.288C69.3184 15.288 67.9264 13.032 67.9264 10.04C67.9264 7.016 69.3344 4.696 72.4544 4.696C73.3984 4.696 74.4544 4.92 75.2384 5.272V7.272H74.9504C74.2784 6.856 73.4464 6.584 72.7104 6.584C71.0144 6.584 70.1344 7.912 70.1344 10.008C70.1344 11.736 70.7424 13.528 72.2624 13.528C72.8224 13.528 73.3824 13.272 73.6544 13V11.368H71.8624V9.656H75.6704V15H74.5664L74.3104 14.44C73.8784 14.888 72.9824 15.288 71.8944 15.288ZM77.3115 15V4.92H79.6955L82.5595 11.736V4.92H84.5115V15H82.2235L79.2635 8.232V15H77.3115ZM95.2178 15V4.92H98.8338C101.074 4.92 102.338 5.992 102.338 7.688C102.338 9.016 101.538 9.56 100.85 9.816C101.762 10.024 102.594 10.872 102.594 12.28C102.594 13.96 101.362 15 99.1378 15H95.2178ZM97.3458 9.208H98.7858C99.6498 9.208 100.146 8.648 100.146 7.896C100.146 7.144 99.6498 6.584 98.7538 6.584H97.3458V9.208ZM97.3458 13.304H99.0098C99.8418 13.304 100.402 12.728 100.402 11.96C100.402 11.144 99.8098 10.648 99.0258 10.648H97.3458V13.304ZM112.043 5.208L108.843 11.144V15H106.699V11.144L103.515 5.208V4.92H105.787L107.787 9.272L109.915 4.92H112.043V5.208ZM120.788 6.936H117.796V15H115.652V6.936H112.66V4.92H120.788V6.936ZM122.381 15V4.92H129.101V6.76H124.509V9.032H128.477V10.776H124.509V13.16H129.149V15H122.381ZM138.262 12.072C138.262 13.944 136.886 15.288 134.438 15.288C133.014 15.288 131.494 14.808 130.71 14.328L131.398 12.584H131.686C132.31 13.016 133.318 13.448 134.31 13.448C135.334 13.448 136.022 13 136.022 12.216C136.022 11.576 135.542 11.272 134.822 11.048L133.558 10.664C131.462 10.024 131.078 8.776 131.078 7.752C131.078 5.96 132.278 4.696 134.726 4.696C135.702 4.696 136.742 4.888 137.654 5.272V7.288H137.382C136.438 6.776 135.51 6.584 134.806 6.584C133.83 6.584 133.318 6.952 133.318 7.608C133.318 8.104 133.638 8.472 134.438 8.712L135.702 9.096C137.67 9.688 138.262 10.856 138.262 12.072Z" fill="#172542"/>
<defs>
<clipPath id="clip0_4_21">
<rect width="21.3846" height="20" fill="white"/>
</clipPath>
</defs>
</svg>
